SplineFontDB: 3.0
FontName: RoundStyle-Bold
FullName: Round Style Bold
FamilyName: Round Style
Weight: Bold
Copyright: Copyright (c) 2020-2024 by Wojciech Kalinowski "wmk69" with Reserved Font Name "RoundStyle-Bold".\nThis Font Software is licensed under the SIL Open Font License, Version 1.1.
Version: 3.1.0; 2021-05-15
ItalicAngle: 0
UnderlinePosition: -80
UnderlineWidth: 320
Ascent: 1638
Descent: 410
InvalidEm: 0
LayerCount: 2
Layer: 0 1 "Warstwa t+AUIA-a" 1
Layer: 1 1 "Plan pierwszy" 0
XUID: [1021 783 23647091 2952791]
StyleMap: 0x0020
FSType: 0
OS2Version: 3
OS2_WeightWidthSlopeOnly: 0
OS2_UseTypoMetrics: 1
CreationTime: 1260698820
ModificationTime: 1621079022
PfmFamily: 17
TTFWeight: 700
TTFWidth: 5
LineGap: 200
VLineGap: 0
Panose: 2 2 8 3 7 5 8 6 4 4
OS2TypoAscent: 2000
OS2TypoAOffset: 0
OS2TypoDescent: -500
OS2TypoDOffset: 0
OS2TypoLinegap: 200
OS2WinAscent: 2000
OS2WinAOffset: 0
OS2WinDescent: 500
OS2WinDOffset: 0
HheadAscent: 2000
HheadAOffset: 0
HheadDescent: -500
HheadDOffset: 0
OS2SubXSize: 1434
OS2SubYSize: 1331
OS2SubXOff: 0
OS2SubYOff: 287
OS2SupXSize: 1434
OS2SupYSize: 1331
OS2SupXOff: 0
OS2SupYOff: 977
OS2StrikeYSize: 102
OS2StrikeYPos: 512
OS2CapHeight: 1510
OS2XHeight: 1100
OS2Vendor: '    '
OS2CodePages: 20000093.00000000
OS2UnicodeRanges: 8000002f.4000204b.00000000.00000000
Lookup: 258 0 0 "'kern' Horizontal Kerning lookup 0-0" { "'kern' Horizontal Kerning lookup 0-1 subtable" [307,0,4] } ['kern' ('DFLT' <'dflt' > 'grek' <'dflt' > 'latn' <'dflt' > ) ]
MarkAttachClasses: 1
DEI: 91125
KernClass2: 63 50 "'kern' Horizontal Kerning lookup 0-1 subtable"
 94 A M Agrave Aacute Acircumflex Atilde Adieresis Aring Amacron Abreve Aogonek Aringacute uni1E40
 28 B germandbls uni1E02 uni1E9E
 140 C E AE Ccedilla Egrave Eacute Ecircumflex Edieresis Cacute Ccircumflex Cdotaccent Ccaron Emacron Ebreve Edotaccent Eogonek Ecaron OE AEacute

StartChar: .notdef
Encoding: 65536 -1 0
Width: 1054
Flags: W
HStem: 0 80<350 704> 1430 80<350 704>
VStem: 120 230<80 1430> 704 230<80 1430>
LayerCount: 2
Fore
SplineSet
120 0 m 1,0,-1
 120 1510 l 1,1,-1
 934 1510 l 1,2,-1
 934 0 l 1,3,-1
 120 0 l 1,0,-1
350 80 m 1,4,-1
 704 80 l 1,5,-1
 704 1430 l 1,6,-1
 350 1430 l 1,7,-1
 350 80 l 1,4,-1
EndSplineSet
Validated: 19457
EndChar

StartChar: exclam
Encoding: 33 33 4
Width: 704
GlyphClass: 2
Flags: W
HStem: -20 370<233.14 470.86> 1510 20G<314 390>
VStem: 170 364<42.5779 287.422 1100.52 1467.42> 344 16<426 500.294>
LayerCount: 2
Fore
SplineSet
352 -20 m 128,-1,1
 276 -20 276 -20 223 34 c 128,-1,2
 170 88 170 88 170 165 c 128,-1,3
 170 242 170 242 223 296 c 128,-1,4
 276 350 276 350 352 350 c 128,-1,5
 428 350 428 350 481 296 c 128,-1,6
 534 242 534 242 534 165 c 128,-1,7
 534 88 534 88 481 34 c 128,-1,0
 428 -20 428 -20 352 -20 c 128,-1,1
352 1530 m 128,-1,9
 428 1530 428 1530 481 1476 c 128,-1,10
 534 1422 534 1422 534 1345 c 0,11,12
 534 1328 534 1328 530 1307 c 2,13,-1
 360 426 l 1,14,-1
 344 426 l 1,15,-1
 174 1307 l 2,16,17
 170 1328 170 1328 170 1345 c 0,18,19
 170 1422 170 1422 223 1476 c 128,-1,8
 276 1530 276 1530 352 1530 c 128,-1,9
EndSplineSet
Validated: 19457
EndChar

StartChar: quotedbl
Encoding: 34 34 5
Width: 502
GlyphClass: 2
Flags: W
HStem: 1156 394<20 200 302 482>
VStem: 20 180<1156 1550> 302 180<1156 1550>
LayerCount: 2
Fore
SplineSet
302 1550 m 1,0,-1
 482 1550 l 1,1,-1
 482 1156 l 1,2,-1
 302 1156 l 1,3,-1
 302 1550 l 1,0,-1
20 1550 m 1,4,-1
 200 1550 l 1,5,-1
 200 1156 l 1,6,-1
 20 1156 l 1,7,-1
 20 1550 l 1,4,-1
EndSplineSet
Validated: 19457
EndChar

StartChar: numbersign
Encoding: 35 35 6
Width: 1318
GlyphClass: 2
Flags: W
HStem: 501 161<121 407 568 750 911 1198> 844 161<120 407 568 750 911 1197>
VStem: 407 161<214 501 662 844 1005 1291> 750 161<215 501 662 844 1005 1292>
LayerCount: 2
Fore
SplineSet
407 1291 m 1,0,-1
 568 1291 l 1,1,-1
 568 1005 l 1,2,-1
 750 1005 l 1,3,-1
 750 1292 l 1,4,-1
 911 1292 l 1,5,-1
 911 1005 l 1,6,-1
 1197 1005 l 1,7,-1
 1197 844 l 1,8,-1
 911 844 l 1,9,-1
 911 662 l 1,10,-1
 1198 662 l 1,11,-1
 1198 501 l 1,12,-1
 911 501 l 1,13,-1
 911 215 l 1,14,-1
 750 215 l 1,15,-1
 750 501 l 1,16,-1
 568 501 l 1,17,-1
 568 214 l 1,18,-1
 407 214 l 1,19,-1
 407 501 l 1,20,-1
 121 501 l 1,21,-1
 121 662 l 1,22,-1
 407 662 l 1,23,-1
 407 844 l 1,24,-1
 120 844 l 1,25,-1
 120 1005 l 1,26,-1
 407 1005 l 1,27,-1
 407 1291 l 1,0,-1
568 662 m 1,28,-1
 750 662 l 1,29,-1
 750 844 l 1,30,-1
 568 844 l 1,31,-1
 568 662 l 1,28,-1
EndSplineSet
Validated: 19457
EndChar

StartChar: dollar
Encoding: 36 36 7
Width: 1330
GlyphClass: 2
Flags: W
HStem: -20 120<468.884 656> 1100 21G<869 898.788>
VStem: 261 285<1137.77 1328.27> 656 120<-100 -20 129 693 1084 1398 1525.06 1610> 964 316<308.419 576.547>
LayerCount: 2
Fore
SplineSet
656 -20 m 1,0,1
 358 -20 358 -20 208 122 c 0,2,3
 112 213 112 213 50 368 c 1,4,-1
 322 627 l 1,5,-1
 331 620 l 1,6,7
 314 535 314 535 314 440 c 0,8,9
 314 318 314 318 388 216 c 0,10,11
 472 100 472 100 656 100 c 1,12,-1
 656 748 l 1,13,-1
 529 805 l 2,14,15
 261 925 261 925 261 1151 c 0,16,17
 261 1324 261 1324 401 1440 c 0,18,19
 497 1520 497 1520 656 1529 c 1,20,-1
 656 1610 l 1,21,-1
 776 1610 l 1,22,-1
 776 1526 l 1,23,24
 922 1509 922 1509 1008 1426 c 0,25,26
 1060 1376 1060 1376 1089 1303 c 1,27,-1
 878 1100 l 1,28,-1
 869 1107 l 1,29,30
 880 1161 880 1161 880 1217 c 0,31,32
 880 1294 880 1294 844 1344 c 0,33,34
 817 1382 817 1382 776 1398 c 1,35,-1
 776 1025 l 1,36,-1
 961 942 l 2,37,38
 1280 799 1280 799 1280 506 c 0,39,40
 1280 294 1280 294 1109 144 c 0,41,42
 969 21 969 21 776 -10 c 1,43,-1
 776 -100 l 1,44,-1
 656 -100 l 1,45,-1
 656 -20 l 1,0,1
656 1084 m 1,46,-1
 656 1403 l 1,47,48
 623 1394 623 1394 598 1371 c 0,49,50
 546 1324 546 1324 546 1242 c 0,51,52
 546 1153 546 1153 656 1084 c 1,46,-1
776 693 m 1,53,-1
 776 129 l 1,54,55
 833 157 833 157 879 211 c 0,56,57
 964 313 964 313 964 434 c 0,58,59
 964 597 964 597 776 693 c 1,53,-1
EndSplineSet
Validated: 19457
EndChar

StartChar: percent
Encoding: 37 37 8
Width: 1806
GlyphClass: 2
Flags: W
HStem: -20 70<1245.87 1381.82> 584 70<1246.89 1383.12> 856 70<422.874 558.824> 1460 70<423.886 560.119>
VStem: 120 254<1027.17 1362.22> 610 253<1023.54 1358.12> 943 254<151.172 486.22> 1433 253<147.54 482.116>
DStem2: 432 102 661 -20 0.446965 0.894551<0 1596.11>
LayerCount: 2
Fore
SplineSet
1316 50 m 0,0,1
 1372 50 1372 50 1404 117 c 0,2,3
 1433 178 1433 178 1433 317 c 128,-1,4
 1433 456 1433 456 1404 517 c 0,5,6
 1372 584 1372 584 1315 584 c 128,-1,7
 1258 584 1258 584 1226 517 c 0,8,9
 1197 456 1197 456 1197 318 c 0,10,11
 1197 177 1197 177 1226 116 c 0,12,13
 1257 50 1257 50 1316 50 c 0,0,1
492 1460 m 128,-1,15
 435 1460 435 1460 403 1393 c 0,16,17
 374 1332 374 1332 374 1194 c 0,18,19
 374 1053 374 1053 403 992 c 0,20,21
 434 926 434 926 493 926 c 0,22,23
 549 926 549 926 581 993 c 0,24,25
 610 1054 610 1054 610 1193 c 128,-1,26
 610 1332 610 1332 581 1393 c 0,27,14
 549 1460 549 1460 492 1460 c 128,-1,15
493 1530 m 0,28,29
 663 1530 663 1530 764 1428 c 0,30,31
 863 1328 863 1328 863 1193 c 0,32,33
 863 1053 863 1053 769 962 c 0,34,35
 660 856 660 856 490 856 c 0,36,37
 318 856 318 856 218 958 c 0,38,39
 120 1057 120 1057 120 1192 c 0,40,41
 120 1332 120 1332 213 1424 c 0,42,43
 318 1530 318 1530 493 1530 c 0,28,29
1313 -20 m 0,44,45
 1141 -20 1141 -20 1041 82 c 0,46,47
 943 181 943 181 943 316 c 0,48,49
 943 456 943 456 1036 548 c 0,50,51
 1141 654 1141 654 1316 654 c 0,52,53
 1486 654 1486 654 1587 552 c 0,54,55
 1686 452 1686 452 1686 317 c 0,56,57
 1686 177 1686 177 1592 86 c 0,58,59
 1483 -20 1483 -20 1313 -20 c 0,44,45
661 -20 m 1,60,-1
 432 102 l 1,61,-1
 1145 1530 l 1,62,-1
 1381 1421 l 1,63,-1
 661 -20 l 1,60,-1
EndSplineSet
Validated: 19457
EndChar

StartChar: ampersand
Encoding: 38 38 9
Width: 1966
GlyphClass: 2
Flags: W
HStem: -20 120<628.075 1033.02> 0 21G<1480.9 1846> 1090 10<1371 1383.55> 1420 110<708.079 892.228>
VStem: 120 340<305.68 718.617> 372 290<1104.69 1373.98> 1575 269<698.932 957.71>
DStem2: 1102 1061 833 944 0.574135 -0.81876<0 709.929 837.428 1094.34>
LayerCount: 2
Fore
SplineSet
1103 183 m 0,0,1
 1191 241 1191 241 1271 321 c 1,2,-1
 833 944 l 1,3,4
 647 927 647 927 544 788 c 0,5,6
 460 674 460 674 460 504 c 0,7,8
 460 330 460 330 537 226 c 0,9,10
 629 100 629 100 817 100 c 0,11,12
 977 100 977 100 1103 183 c 0,0,1
1371 1100 m 1,13,14
 1844 1100 1844 1100 1844 856 c 0,15,16
 1844 653 1844 653 1569 460 c 1,17,-1
 1561 469 l 1,18,19
 1575 613 1575 613 1575 758 c 0,20,21
 1575 1014 1575 1014 1371 1090 c 1,22,-1
 1371 1100 l 1,13,14
1846 0 m 1,23,-1
 1495 0 l 1,24,-1
 1347 210 l 1,25,26
 1279 151 1279 151 1221 113 c 0,27,28
 1019 -20 1019 -20 755 -20 c 0,29,30
 451 -20 451 -20 284 141 c 0,31,32
 120 300 120 300 120 504 c 0,33,34
 120 710 120 710 249 843 c 0,35,36
 358 955 358 955 551 1003 c 1,37,38
 475 1031 475 1031 435 1074 c 0,39,40
 372 1144 372 1144 372 1249 c 0,41,42
 372 1356 372 1356 460 1435 c 0,43,44
 567 1530 567 1530 762 1530 c 0,45,46
 947 1530 947 1530 1040 1451 c 0,47,48
 1083 1415 1083 1415 1111 1357 c 1,49,-1
 921 1169 l 1,50,-1
 913 1176 l 1,51,52
 926 1232 926 1232 926 1279 c 0,53,54
 926 1335 926 1335 893 1377 c 0,55,56
 860 1420 860 1420 805 1420 c 0,57,58
 759 1420 759 1420 728 1395 c 0,59,60
 662 1342 662 1342 662 1239 c 0,61,62
 662 1061 662 1061 834 1061 c 2,63,-1
 1102 1061 l 1,64,-1
 1846 0 l 1,23,-1
EndSplineSet
Validated: 19457
EndChar

StartChar: quotesingle
Encoding: 39 39 10
Width: 220
GlyphClass: 2
Flags: W
HStem: 1156 394<20 200>
VStem: 20 180<1156 1550>
LayerCount: 2
Fore
SplineSet
20 1550 m 1,0,-1
 200 1550 l 1,1,-1
 200 1156 l 1,2,-1
 20 1156 l 1,3,-1
 20 1550 l 1,0,-1
EndSplineSet
Validated: 19457
EndChar

StartChar: parenleft
Encoding: 40 40 11
Width: 867
GlyphClass: 2
Flags: W
VStem: 170 320<375.126 1134.87>
LayerCount: 2
Fore
SplineSet
500 1760 m 1,0,-1
 747 1760 l 1,1,2
 490 1340 490 1340 490 755 c 128,-1,3
 490 170 490 170 747 -250 c 1,4,-1
 500 -250 l 1,5,6
 170 218 170 218 170 755 c 128,-1,7
 170 1292 170 1292 500 1760 c 1,0,-1
EndSplineSet
Validated: 19457
EndChar

StartChar: parenright
Encoding: 41 41 12
Width: 867
GlyphClass: 2
Flags: W
VStem: 377 320<375.126 1134.87>
LayerCount: 2
Fore
SplineSet
367 1760 m 1,0,1
 697 1292 697 1292 697 755 c 128,-1,2
 697 218 697 218 367 -250 c 1,3,-1
 120 -250 l 1,4,5
 377 170 377 170 377 755 c 128,-1,6
 377 1340 377 1340 120 1760 c 1,7,-1
 367 1760 l 1,0,1
EndSplineSet
Validated: 19457
EndChar

StartChar: asterisk
Encoding: 42 42 13
Width: 728
GlyphClass: 2
Flags: W
VStem: 279 170<854 1055 1349 1550>
DStem2: 105 1450 20 1302 0.866114 -0.499847<0.357649 201.046 495.525 696.213> 20 1102 105 954 0.866114 0.499847<0 200.688 495.167 695.856>
LayerCount: 2
Fore
SplineSet
279 1550 m 1,0,-1
 449 1550 l 1,1,-1
 449 1349 l 1,2,-1
 623 1450 l 1,3,-1
 708 1302 l 1,4,-1
 534 1202 l 1,5,-1
 708 1102 l 1,6,-1
 623 954 l 1,7,-1
 449 1055 l 1,8,-1
 449 854 l 1,9,-1
 279 854 l 1,10,-1
 279 1055 l 1,11,-1
 105 954 l 1,12,-1
 20 1102 l 1,13,-1
 194 1202 l 1,14,-1
 20 1302 l 1,15,-1
 105 1450 l 1,16,-1
 279 1349 l 1,17,-1
 279 1550 l 1,0,-1
EndSplineSet
Validated: 19457
EndChar

StartChar: plus
Encoding: 43 43 14
Width: 1192
GlyphClass: 2
Flags: W
HStem: 650 210<120 491 701 1072>
VStem: 491 210<279 650 860 1231>
LayerCount: 2
Fore
SplineSet
491 1231 m 1,0,-1
 701 1231 l 1,1,-1
 701 860 l 1,2,-1
 1072 860 l 1,3,-1
 1072 650 l 1,4,-1
 701 650 l 1,5,-1
 701 279 l 1,6,-1
 491 279 l 1,7,-1
 491 650 l 1,8,-1
 120 650 l 1,9,-1
 120 860 l 1,10,-1
 491 860 l 1,11,-1
 491 1231 l 1,0,-1
EndSplineSet
Validated: 19457
EndChar

StartChar: comma
Encoding: 44 44 15
Width: 368
GlyphClass: 2
Flags: W
HStem: -324 633
VStem: 117 231<-115.87 147.244>
LayerCount: 2
Fore
SplineSet
194 309 m 1,0,1
 348 211 348 211 348 45 c 0,2,3
 348 -199 348 -199 10 -324 c 1,4,-1
 10 -314 l 1,5,6
 117 -194 117 -194 117 -58 c 0,7,8
 117 74 117 74 25 140 c 1,9,-1
 194 309 l 1,0,1
EndSplineSet
Validated: 19457
EndChar

StartChar: hyphen
Encoding: 45 45 16
Width: 1192
GlyphClass: 2
Flags: W
HStem: 650 210<120 1072>
LayerCount: 2
Fore
SplineSet
120 860 m 1,0,-1
 1072 860 l 1,1,-1
 1072 650 l 1,2,-1
 120 650 l 1,3,-1
 120 860 l 1,0,-1
EndSplineSet
Validated: 19457
EndChar

StartChar: period
Encoding: 46 46 17
Width: 404
GlyphClass: 2
Flags: W
HStem: -20 370<83.1396 320.86>
VStem: 20 364<42.5779 287.422>
LayerCount: 2
Fore
SplineSet
202 -20 m 128,-1,1
 126 -20 126 -20 73 34 c 128,-1,2
 20 88 20 88 20 165 c 128,-1,3
 20 242 20 242 73 296 c 128,-1,4
 126 350 126 350 202 350 c 128,-1,5
 278 350 278 350 331 296 c 128,-1,6
 384 242 384 242 384 165 c 128,-1,7
 384 88 384 88 331 34 c 128,-1,0
 278 -20 278 -20 202 -20 c 128,-1,1
EndSplineSet
Validated: 19457
EndChar

StartChar: slash
Encoding: 47 47 18
Width: 1142
GlyphClass: 2
Flags: W
DStem2: 10 -64 254 -180 0.446806 0.894631<5.24361 1961.03>
LayerCount: 2
Fore
SplineSet
254 -180 m 1,0,-1
 10 -64 l 1,1,-1
 887 1690 l 1,2,-1
 1132 1578 l 1,3,-1
 254 -180 l 1,0,-1
EndSplineSet
Validated: 1
EndChar

StartChar: zero
Encoding: 48 48 19
Width: 1766
GlyphClass: 2
Flags: W
HStem: -20 119.967<705.067 1060.02> 1410 120<705.626 1060.58>
VStem: 70 340<471.869 1038.38> 1356 340<471.12 1038.38>
LayerCount: 2
Fore
SplineSet
883.046875 99.966796875 m 128,-1,1
 1084 100 1084 100 1219 289 c 0,2,3
 1356 481 1356 481 1356 755 c 128,-1,4
 1356 1029 1356 1029 1219 1221 c 0,5,6
 1084 1410 1084 1410 883 1410 c 128,-1,7
 682 1410 682 1410 547 1221 c 0,8,9
 410 1029 410 1029 410 755 c 128,-1,10
 410 481 410 481 547 289 c 0,11,0
 682 100 682 100 883.046875 99.966796875 c 128,-1,1
883 -20 m 0,12,13
 486 -20 486 -20 261 226 c 0,14,15
 70 435 70 435 70 755 c 0,16,17
 70 1076 70 1076 262 1284 c 0,18,19
 489 1530 489 1530 883 1530 c 0,20,21
 1278 1530 1278 1530 1505 1284 c 0,22,23
 1696 1076 1696 1076 1696 755 c 0,24,25
 1696 432 1696 432 1504 226 c 0,26,27
 1275 -20 1275 -20 883 -20 c 0,12,13
EndSplineSet
Validated: 19457
EndChar

StartChar: one
Encoding: 49 49 20
Width: 760
GlyphClass: 2
Flags: W
HStem: 0 21G<220 540>
VStem: 220 320<0 1280.73>
LayerCount: 2
Fore
SplineSet
220 0 m 1,0,-1
 220 1130 l 2,1,2
 220 1340 220 1340 20 1340 c 1,3,-1
 20 1350 l 1,4,-1
 540 1540 l 1,5,-1
 540 0 l 1,6,-1
 220 0 l 1,0,-1
EndSplineSet
Validated: 19457
EndChar

StartChar: two
Encoding: 50 50 21
Width: 1384
GlyphClass: 2
Flags: W
HStem: 0 140<90 1196.41> 1409 121<540.122 815.466>
VStem: 924 340<915.918 1263.33> 1254 10<267.183 280>
LayerCount: 2
Fore
SplineSet
90 0 m 1,0,-1
 90 140 l 1,1,-1
 1074 140 l 2,2,3
 1207 140 1207 140 1254 280 c 1,4,-1
 1264 280 l 1,5,-1
 1264 0 l 1,6,-1
 90 0 l 1,0,-1
703 1530 m 0,7,8
 953 1530 953 1530 1097 1413 c 0,9,10
 1264 1277 1264 1277 1264 1065 c 0,11,12
 1264 768 1264 768 956 613 c 2,13,-1
 669 469 l 2,14,15
 409 339 409 339 147 196 c 1,16,-1
 141 202 l 1,17,18
 259 375 259 375 519 576 c 2,19,-1
 734 742 l 2,20,21
 924 889 924 889 924 1115 c 0,22,23
 924 1240 924 1240 866 1315 c 0,24,25
 793 1409 793 1409 681 1409 c 0,26,27
 572 1409 572 1409 488 1322 c 0,28,29
 394 1224 394 1224 394 1081 c 0,30,31
 394 1013 394 1013 408 933 c 1,32,-1
 402 925 l 1,33,-1
 119 1202 l 1,34,35
 189 1309 189 1309 296 1398 c 0,36,37
 455 1530 455 1530 703 1530 c 0,7,8
EndSplineSet
Validated: 19457
EndChar

StartChar: three
Encoding: 51 51 22
Width: 1425
GlyphClass: 2
Flags: W
HStem: -20 120<507.5 802.291> 1390 120<403.586 754>
VStem: 336 10<1250 1262.82> 456 335<936 1271> 965 340<314.372 724.248>
LayerCount: 2
Fore
SplineSet
662 -20 m 0,0,1
 422 -20 422 -20 266 112 c 0,2,3
 146 214 146 214 90 306 c 1,4,-1
 372 583 l 1,5,-1
 378 575 l 1,6,7
 363 512 363 512 363 449 c 0,8,9
 363 314 363 314 432 219 c 0,10,11
 520 100 520 100 656 100 c 0,12,13
 797 100 797 100 883 224 c 0,14,15
 965 343 965 343 965 543 c 0,16,17
 965 807 965 807 834 947 c 1,18,-1
 840 956 l 1,19,20
 1042 956 1042 956 1167 845 c 0,21,22
 1305 722 1305 722 1305 534 c 0,23,24
 1305 302 1305 302 1139 140 c 0,25,26
 975 -20 975 -20 662 -20 c 0,0,1
336 1510 m 1,27,-1
 1168 1510 l 1,28,-1
 791 936 l 1,29,-1
 456 936 l 1,30,-1
 754 1390 l 1,31,-1
 526 1390 l 2,32,33
 393 1390 393 1390 346 1250 c 1,34,-1
 336 1250 l 1,35,-1
 336 1510 l 1,27,-1
EndSplineSet
Validated: 19457
EndChar

StartChar: four
Encoding: 52 52 23
Width: 1484
GlyphClass: 2
Flags: W
HStem: 0 21G<944 1264> 257 10<867.947 881> 1080 20G<944 1264> 1490 20G<416 862>
VStem: 120 340<556.891 954.188> 944 320<0 1100>
LayerCount: 2
Fore
SplineSet
712 1510 m 1,0,-1
 862 1510 l 1,1,2
 460 1174 460 1174 460 750 c 0,3,4
 460 408 460 408 881 267 c 1,5,-1
 881 257 l 1,6,7
 120 257 120 257 120 750 c 0,8,9
 120 1130 120 1130 712 1510 c 1,0,-1
1264 0 m 1,10,-1
 944 0 l 1,11,-1
 944 1100 l 1,12,-1
 1264 1100 l 1,13,-1
 1264 0 l 1,10,-1
EndSplineSet
Validated: 19457
EndChar

StartChar: five
Encoding: 53 53 24
Width: 1425
GlyphClass: 2
Flags: W
HStem: -20 120<505.02 810.375> 937 71<643.255 954> 1390 120<627 1048.41>
VStem: 224 317<897 1214> 965 340<313.64 746.493> 1106 10<1250 1262.82>
DStem2: 224 897 541 897 0.171952 0.985105<54.5086 554.953>
LayerCount: 2
Fore
SplineSet
331 1510 m 1,0,-1
 1116 1510 l 1,1,-1
 1116 1250 l 1,2,-1
 1106 1250 l 1,3,4
 1059 1390 1059 1390 926 1390 c 2,5,-1
 627 1390 l 1,6,-1
 541 897 l 1,7,-1
 224 897 l 1,8,-1
 331 1510 l 1,0,-1
662 -20 m 0,9,10
 422 -20 422 -20 266 112 c 0,11,12
 145 214 145 214 90 305 c 1,13,-1
 372 582 l 1,14,-1
 378 574 l 1,15,16
 363 508 363 508 363 439 c 0,17,18
 363 315 363 315 429 218 c 0,19,20
 510 100 510 100 662 100 c 0,21,22
 803 100 803 100 884 221 c 128,-1,23
 965 342 965 342 965 512 c 0,24,25
 965 685 965 685 893 799 c 0,26,27
 807 937 807 937 659 937 c 0,28,29
 617 937 617 937 574 925 c 1,30,-1
 576 936 l 1,31,32
 675 1008 675 1008 843 1008 c 0,33,34
 1065 1008 1065 1008 1197 848 c 0,35,36
 1305 718 1305 718 1305 527 c 0,37,38
 1305 304 1305 304 1139 141 c 0,39,40
 975 -20 975 -20 662 -20 c 0,9,10
EndSplineSet
Validated: 19457
EndChar

StartChar: six
Encoding: 54 54 25
Width: 1525
GlyphClass: 2
Flags: W
HStem: -20 120<630.236 907.593> 933 74<710.543 1004.5> 1520 10<1243.22 1254>
VStem: 120 340<333.109 844.484> 1065 340<307.954 739.115>
LayerCount: 2
Fore
SplineSet
773 -20 m 0,0,1
 474 -20 474 -20 296 144 c 0,2,3
 120 307 120 307 120 571 c 0,4,5
 120 937 120 937 403 1218 c 0,6,7
 717 1530 717 1530 1254 1530 c 1,8,-1
 1254 1520 l 1,9,10
 908 1421 908 1421 686 1177 c 0,11,12
 460 928 460 928 460 576 c 0,13,14
 460 348 460 348 544 230 c 0,15,16
 637 100 637 100 769 100 c 128,-1,17
 901 100 901 100 983 222.5 c 128,-1,18
 1065 345 1065 345 1065 521 c 0,19,20
 1065 725 1065 725 963 835 c 0,21,22
 872 933 872 933 738 933 c 0,23,24
 680 933 680 933 626 914 c 1,25,-1
 621 924 l 1,26,27
 749 1007 749 1007 901 1007 c 0,28,29
 1108 1007 1108 1007 1246 887 c 0,30,31
 1405 749 1405 749 1405 526 c 0,32,33
 1405 301 1405 301 1247 148 c 0,34,35
 1074 -20 1074 -20 773 -20 c 0,0,1
EndSplineSet
Validated: 19457
EndChar

StartChar: seven
Encoding: 55 55 26
Width: 1189
GlyphClass: 2
Flags: W
HStem: 0 21G<194 731.5> 1390 120<87.5859 624.927>
VStem: 20 10<1250 1262.82> 759 360<882.371 1275.81>
LayerCount: 2
Fore
SplineSet
194 0 m 1,0,1
 759 644 759 644 759 1111 c 0,2,3
 759 1390 759 1390 430 1390 c 2,4,-1
 210 1390 l 2,5,6
 77 1390 77 1390 30 1250 c 1,7,-1
 20 1250 l 1,8,-1
 20 1510 l 1,9,-1
 450 1510 l 2,10,11
 1119 1510 1119 1510 1119 1111 c 0,12,13
 1119 644 1119 644 344 0 c 1,14,-1
 194 0 l 1,0,1
EndSplineSet
Validated: 19457
EndChar

StartChar: eight
Encoding: 56 56 27
Width: 1525
GlyphClass: 2
Flags: W
HStem: -20 120<574.764 897.218> 1430 100<697.774 922.832>
VStem: 120 279<300.654 718.797> 370 281<1135.78 1381.59> 979 177<1135.14 1371.62> 1066 339<312.94 738.315>
LayerCount: 2
Fore
SplineSet
757 -20 m 0,0,1
 441 -20 441 -20 279 140 c 0,2,3
 120 298 120 298 120 508 c 0,4,5
 120 706 120 706 242 832 c 0,6,7
 362 957 362 957 570 979 c 1,8,-1
 574 969 l 1,9,10
 490 889 490 889 447 792 c 0,11,12
 399 685 399 685 399 524 c 0,13,14
 399 341 399 341 483 229 c 0,15,16
 580 100 580 100 734 100 c 0,17,18
 898 100 898 100 991 237 c 0,19,20
 1066 347 1066 347 1066 532 c 0,21,22
 1066 702 1066 702 975 807 c 0,23,24
 886 909 886 909 728 954 c 0,25,26
 370 1057 370 1057 370 1247 c 0,27,28
 370 1367 370 1367 483 1453 c 0,29,30
 583 1530 583 1530 770 1530 c 0,31,32
 943 1530 943 1530 1048 1452 c 0,33,34
 1156 1371 1156 1371 1156 1263 c 0,35,36
 1156 1174 1156 1174 1090 1111 c 0,37,38
 1034 1058 1034 1058 956 1041 c 1,39,-1
 949 1049 l 1,40,41
 979 1132 979 1132 979 1226 c 0,42,43
 979 1314 979 1314 935.5 1372 c 128,-1,44
 892 1430 892 1430 810 1430 c 0,45,46
 742 1430 742 1430 696.5 1384 c 128,-1,47
 651 1338 651 1338 651 1267 c 0,48,49
 651 1169 651 1169 717 1112 c 0,50,51
 779 1058 779 1058 935 1027 c 0,52,53
 1164 982 1164 982 1288 848 c 0,54,55
 1405 722 1405 722 1405 548 c 0,56,57
 1405 303 1405 303 1247 147 c 0,58,59
 1076 -20 1076 -20 757 -20 c 0,0,1
EndSplineSet
Validated: 19457
EndChar

StartChar: nine
Encoding: 57 57 28
Width: 1525
GlyphClass: 2
Flags: W
HStem: -20 10<271 281.782> 503 74<520.5 814.457> 1410 120<617.407 894.764>
VStem: 120 340<770.885 1202.05> 1065 340<665.516 1176.89>
LayerCount: 2
Fore
SplineSet
271 -20 m 1,0,-1
 271 -10 l 1,1,2
 617 89 617 89 839 333 c 0,3,4
 1065 582 1065 582 1065 934 c 0,5,6
 1065 1162 1065 1162 981 1280 c 0,7,8
 888 1410 888 1410 756 1410 c 128,-1,9
 624 1410 624 1410 542 1287.5 c 128,-1,10
 460 1165 460 1165 460 989 c 0,11,12
 460 785 460 785 562 675 c 0,13,14
 653 577 653 577 787 577 c 0,15,16
 845 577 845 577 899 596 c 1,17,-1
 904 586 l 1,18,19
 776 503 776 503 624 503 c 0,20,21
 417 503 417 503 279 623 c 0,22,23
 120 761 120 761 120 984 c 0,24,25
 120 1209 120 1209 278 1362 c 0,26,27
 451 1530 451 1530 752 1530 c 0,28,29
 1051 1530 1051 1530 1229 1366 c 0,30,31
 1405 1203 1405 1203 1405 939 c 0,32,33
 1405 573 1405 573 1122 292 c 0,34,35
 808 -20 808 -20 271 -20 c 1,0,-1
EndSplineSet
Validated: 19457
EndChar

StartChar: colon
Encoding: 58 58 29
Width: 404
GlyphClass: 2
Flags: W
HStem: -20 370<83.1396 320.86> 570 370<83.1396 320.86>
VStem: 20 364<42.5779 287.422 632.578 877.422>
LayerCount: 2
Fore
SplineSet
202 940 m 128,-1,1
 278 940 278 940 331 886 c 128,-1,2
 384 832 384 832 384 755 c 128,-1,3
 384 678 384 678 331 624 c 128,-1,4
 278 570 278 570 202 570 c 128,-1,5
 126 570 126 570 73 624 c 128,-1,6
 20 678 20 678 20 755 c 128,-1,7
 20 832 20 832 73 886 c 128,-1,0
 126 940 126 940 202 940 c 128,-1,1
202 -20 m 128,-1,9
 126 -20 126 -20 73 34 c 128,-1,10
 20 88 20 88 20 165 c 128,-1,11
 20 242 20 242 73 296 c 128,-1,12
 126 350 126 350 202 350 c 128,-1,13
 278 350 278 350 331 296 c 128,-1,14
 384 242 384 242 384 165 c 128,-1,15
 384 88 384 88 331 34 c 128,-1,8
 278 -20 278 -20 202 -20 c 128,-1,9
EndSplineSet
Validated: 19457
EndChar

StartChar: semicolon
Encoding: 59 59 30
Width: 404
GlyphClass: 2
Flags: W
HStem: 570 370<83.1396 320.86>
VStem: 20 364<632.578 877.422> 117 231<-115.87 147.244>
LayerCount: 2
Fore
SplineSet
194 309 m 1,0,1
 348 211 348 211 348 45 c 0,2,3
 348 -199 348 -199 10 -324 c 1,4,-1
 10 -314 l 1,5,6
 117 -194 117 -194 117 -58 c 0,7,8
 117 74 117 74 25 140 c 1,9,-1
 194 309 l 1,0,1
202 940 m 128,-1,11
 278 940 278 940 331 886 c 128,-1,12
 384 832 384 832 384 755 c 128,-1,13
 384 678 384 678 331 624 c 128,-1,14
 278 570 278 570 202 570 c 128,-1,15
 126 570 126 570 73 624 c 128,-1,16
 20 678 20 678 20 755 c 128,-1,17
 20 832 20 832 73 886 c 128,-1,10
 126 940 126 940 202 940 c 128,-1,11
EndSplineSet
Validated: 19457
EndChar

StartChar: less
Encoding: 60 60 31
Width: 1166
GlyphClass: 2
Flags: W
DStem2: 120 860 316 790 0.866509 0.499161<134.895 919.792> 316 790 120 650 0.855395 -0.517977<0 791>
LayerCount: 2
Fore
SplineSet
120 860 m 1,0,-1
 922 1322 l 1,1,-1
 996 1182 l 1,2,-1
 316 790 l 1,3,-1
 996 379 l 1,4,-1
 878 191 l 1,5,-1
 120 650 l 1,6,-1
 120 860 l 1,0,-1
EndSplineSet
Validated: 19457
EndChar

StartChar: equal
Encoding: 61 61 32
Width: 1192
GlyphClass: 2
Flags: W
HStem: 440 210<120 1072> 859 210<120 1072>
LayerCount: 2
Fore
SplineSet
120 650 m 1,0,-1
 1072 650 l 1,1,-1
 1072 440 l 1,2,-1
 120 440 l 1,3,-1
 120 650 l 1,0,-1
120 1069 m 1,4,-1
 1072 1069 l 1,5,-1
 1072 859 l 1,6,-1
 120 859 l 1,7,-1
 120 1069 l 1,4,-1
EndSplineSet
Validated: 19457
EndChar

StartChar: greater
Encoding: 62 62 33
Width: 1166
GlyphClass: 2
Flags: W
DStem2: 288 1319 170 1131 0.855395 -0.517977<0 791> 170 328 244 188 0.866509 0.499161<0 784.897>
LayerCount: 2
Fore
SplineSet
1046 650 m 1,0,-1
 244 188 l 1,1,-1
 170 328 l 1,2,-1
 850 720 l 1,3,-1
 170 1131 l 1,4,-1
 288 1319 l 1,5,-1
 1046 860 l 1,6,-1
 1046 650 l 1,0,-1
EndSplineSet
Validated: 19457
EndChar

StartChar: question
Encoding: 63 63 34
Width: 1380
GlyphClass: 2
Flags: W
HStem: -20 370<534.14 771.86> 1410 120<523.553 803.902>
VStem: 471 364<42.5779 287.422> 920 340<889.789 1269.59>
LayerCount: 2
Fore
SplineSet
653 -20 m 128,-1,1
 577 -20 577 -20 524 34 c 128,-1,2
 471 88 471 88 471 165 c 128,-1,3
 471 242 471 242 524 296 c 128,-1,4
 577 350 577 350 653 350 c 128,-1,5
 729 350 729 350 782 296 c 128,-1,6
 835 242 835 242 835 165 c 128,-1,7
 835 88 835 88 782 34 c 128,-1,0
 729 -20 729 -20 653 -20 c 128,-1,1
704 1530 m 0,8,9
 956 1530 956 1530 1098 1413 c 0,10,11
 1260 1280 1260 1280 1260 1078 c 0,12,13
 1260 811 1260 811 1011 670 c 2,14,-1
 879 595 l 2,15,16
 751 522 751 522 657 426 c 1,17,-1
 647 426 l 1,18,19
 622 458 622 458 622 506 c 0,20,21
 622 592 622 592 704 681 c 2,22,-1
 815 801 l 2,23,24
 920 915 920 915 920 1091 c 0,25,26
 920 1224 920 1224 852.5 1317 c 128,-1,27
 785 1410 785 1410 673 1410 c 0,28,29
 548 1410 548 1410 481 1323 c 0,30,31
 395 1211 395 1211 395 1081 c 0,32,33
 395 1013 395 1013 409 933 c 1,34,-1
 403 925 l 1,35,-1
 120 1202 l 1,36,37
 190 1309 190 1309 297 1398 c 0,38,39
 456 1530 456 1530 704 1530 c 0,8,9
EndSplineSet
Validated: 19457
EndChar

StartChar: at
Encoding: 64 64 35
Width: 1644
GlyphClass: 2
Flags: W
HStem: 0 110<949.812 1174> 0 10<1601.18 1614> 1010 110<745.728 1050.8>
VStem: 120 318<53.9238 617.183> 570 298<194.361 494.513> 1174 300<111.978 837.291>
LayerCount: 2
Fore
SplineSet
1614 0 m 1,0,-1
 974 0 l 2,1,2
 771 0 771 0 669 99 c 0,3,4
 570 196 570 196 570 330 c 0,5,6
 570 467 570 467 663 552 c 0,7,8
 783 662 783 662 1028 662 c 1,9,-1
 1028 652 l 1,10,11
 957 600 957 600 916 533 c 0,12,13
 868 455 868 455 868 355 c 0,14,15
 868 243 868 243 926 177 c 0,16,17
 985 110 985 110 1092 110 c 2,18,-1
 1174 110 l 1,19,-1
 1174 612 l 2,20,21
 1174 768 1174 768 1129 866 c 0,22,23
 1064 1010 1064 1010 912 1010 c 0,24,25
 717 1010 717 1010 578 809 c 0,26,27
 438 608 438 608 438 337 c 0,28,29
 438 62 438 62 576 -136 c 0,30,31
 693 -304 693 -304 904 -420 c 1,32,-1
 904 -430 l 1,33,34
 517 -430 517 -430 311 -201 c 0,35,36
 120 11 120 11 120 335 c 0,37,38
 120 660 120 660 312 871 c 0,39,40
 538 1120 538 1120 903 1120 c 0,41,42
 1216 1120 1216 1120 1367 939 c 0,43,44
 1474 811 1474 811 1474 613 c 2,45,-1
 1474 190 l 2,46,47
 1474 57 1474 57 1614 10 c 1,48,-1
 1614 0 l 1,0,-1
EndSplineSet
Validated: 19457
EndChar

StartChar: A
Encoding: 65 65 36
Width: 1671
GlyphClass: 2
Flags: W
HStem: 0 10<998 1006.15> 695 120<673 1136> 1500 10<466 477.169>
VStem: 1261 340<236.46 700.192>
DStem2: 5 0 322 0 0.395387 0.918515<125.338 881.926 1012.71 1497.34>
CounterMasks: 1 e0
LayerCount: 2
Fore
SplineSet
998 0 m 1,0,1
 998 10 l 1,2,3
 1261 133 1261 133 1261 440 c 0,4,5
 1261 895 1261 895 979 1386 c 1,6,-1
 985 1394 l 1,7,8
 1601 938 1601 938 1601 440 c 0,9,10
 1601 0 1601 0 998 0 c 1,0,1
5 0 m 1,11,-1
 574 1322 l 2,12,13
 588 1355 588 1355 588 1380 c 0,14,15
 588 1458 588 1458 466 1500 c 1,16,-1
 466 1510 l 1,17,-1
 972 1510 l 1,18,-1
 673 815 l 1,19,-1
 1136 815 l 1,20,-1
 1136 695 l 1,21,-1
 621 695 l 1,22,-1
 322 0 l 1,23,-1
 5 0 l 1,11,-1
EndSplineSet
Validated: 1
EndChar

StartChar: B
Encoding: 66 66 37
Width: 1378
GlyphClass: 2
Flags: W
HStem: 0 21G<170 490 610 785> 909 120<567 696.789> 1390 120<490 702.495> 1500 10<30 42.8174>
VStem: 170 320<0 1388.01> 765 292<1103.88 1332.39> 968 340<318.888 717.81>
LayerCount: 2
Fore
SplineSet
170 0 m 1,0,-1
 170 1320 l 10,1,2
 170 1453 170 1453 30 1500 c 1,3,-1
 30 1510 l 1,4,-1
 611 1510 l 2,5,6
 848 1510 848 1510 969 1415 c 0,7,8
 1057 1346 1057 1346 1057 1245 c 0,9,10
 1057 1149 1057 1149 996 1085 c 0,11,12
 935 1023 935 1023 849 990 c 1,13,14
 1070 961 1070 961 1189 843 c 0,15,16
 1308 724 1308 724 1308 518 c 0,17,18
 1308 309 1308 309 1148 167 c 0,19,20
 960 0 960 0 610 0 c 1,21,-1
 610 10 l 1,22,23
 774 92 774 92 868 212 c 0,24,25
 968 340 968 340 968 504 c 0,26,27
 968 670 968 670 892 768 c 0,28,29
 782 909 782 909 567 909 c 9,30,-1
 567 1029 l 1,31,32
 654 1029 654 1029 709.5 1081.5 c 128,-1,33
 765 1134 765 1134 765 1218 c 0,34,35
 765 1296 765 1296 705 1347 c 0,36,37
 655 1390 655 1390 566 1390 c 2,38,-1
 490 1390 l 1,39,-1
 490 0 l 1,40,-1
 170 0 l 1,0,-1
EndSplineSet
Validated: 19457
EndChar

StartChar: C
Encoding: 67 67 38
Width: 1654
GlyphClass: 2
Flags: W
HStem: -20 130<739.578 1176.54> 1410 120<690.99 1062.93>
VStem: 70 340<488.639 1039.85>
LayerCount: 2
Fore
SplineSet
883 -20 m 0,0,1
 486 -20 486 -20 261 226 c 0,2,3
 70 435 70 435 70 756 c 0,4,5
 70 1078 70 1078 261 1284 c 0,6,7
 490 1530 490 1530 892 1530 c 0,8,9
 1295 1530 1295 1530 1520 1262 c 1,10,-1
 1255 1010 l 1,11,-1
 1247 1018 l 1,12,13
 1247 1176 1247 1176 1161 1283 c 0,14,15
 1060 1410 1060 1410 881 1410 c 0,16,17
 661 1410 661 1410 541 1220 c 0,18,19
 410 1016 410 1016 410 762 c 0,20,21
 410 497 410 497 548 312 c 0,22,23
 698 110 698 110 960 110 c 0,24,25
 1325 110 1325 110 1576 340 c 1,26,-1
 1584 334 l 1,27,28
 1349 -20 1349 -20 883 -20 c 0,0,1
EndSplineSet
Validated: 19457
EndChar

StartChar: D
Encoding: 68 68 39
Width: 1646
GlyphClass: 2
Flags: W
HStem: 0 10<610 626.12> 1390 120<490 908.5> 1500 10<30 42.8174>
VStem: 170 320<0 1388.01> 1236 340<503.779 1035.15>
LayerCount: 2
Fore
SplineSet
170 0 m 1,0,-1
 170 1320 l 10,1,2
 170 1453 170 1453 30 1500 c 1,3,-1
 30 1510 l 1,4,-1
 746 1510 l 2,5,6
 1178 1510 1178 1510 1396 1265 c 0,7,8
 1576 1063 1576 1063 1576 755 c 0,9,10
 1576 468 1576 468 1371 255 c 0,11,12
 1128 1 1128 1 610 0 c 1,13,-1
 610 10 l 1,14,15
 920 80 920 80 1093 318 c 0,16,17
 1236 515 1236 515 1236 755 c 0,18,19
 1236 1051 1236 1051 1082 1220.5 c 128,-1,20
 928 1390 928 1390 696 1390 c 2,21,-1
 490 1390 l 1,22,-1
 490 0 l 1,23,-1
 170 0 l 1,0,-1
EndSplineSet
Validated: 19457
EndChar

StartChar: E
Encoding: 69 69 40
Width: 1654
GlyphClass: 2
Flags: W
HStem: -20 130<739.578 1176.54> 695 120<412 1183> 1410 120<698.206 1062.93>
VStem: 70 342<482.281 695 815 1036.53>
LayerCount: 2
Fore
SplineSet
883 -20 m 0,0,1
 486 -20 486 -20 261 226 c 0,2,3
 70 435 70 435 70 756 c 0,4,5
 70 1078 70 1078 261 1284 c 0,6,7
 490 1530 490 1530 892 1530 c 0,8,9
 1295 1530 1295 1530 1520 1262 c 1,10,-1
 1255 1010 l 1,11,-1
 1247 1018 l 1,12,13
 1247 1176 1247 1176 1161 1283 c 0,14,15
 1060 1410 1060 1410 881 1410 c 0,16,17
 668 1410 668 1410 540 1218 c 0,18,19
 423 1044 423 1044 411 815 c 1,20,-1
 1183 815 l 1,21,-1
 1183 695 l 1,22,-1
 412 695 l 1,23,24
 427 473 427 473 548 312 c 0,25,26
 698 110 698 110 960 110 c 0,27,28
 1325 110 1325 110 1576 340 c 1,29,-1
 1584 334 l 1,30,31
 1349 -20 1349 -20 883 -20 c 0,0,1
EndSplineSet
Validated: 19457
EndChar

StartChar: F
Encoding: 70 70 41
Width: 1078
GlyphClass: 2
Flags: W
HStem: 0 21G<170 490> 695 120<490 882> 1390 120<490 1000.41> 1500 10<30 42.8174>
VStem: 170 320<0 695 815 1388.01> 1058 10<1250 1262.82>
LayerCount: 2
Fore
SplineSet
170 0 m 1,0,-1
 170 1320 l 2,1,2
 170 1453 170 1453 30 1500 c 1,3,-1
 30 1510 l 1,4,-1
 1068 1510 l 1,5,-1
 1068 1250 l 1,6,-1
 1058 1250 l 1,7,8
 1011 1390 1011 1390 878 1390 c 2,9,-1
 490 1390 l 1,10,-1
 490 815 l 1,11,-1
 882 815 l 1,12,-1
 882 695 l 1,13,-1
 490 695 l 1,14,-1
 490 0 l 1,15,-1
 170 0 l 1,0,-1
EndSplineSet
Validated: 19457
EndChar

StartChar: G
Encoding: 71 71 42
Width: 1725
GlyphClass: 2
Flags: W
HStem: -20 130<736.756 1122.16> 663 10<1145 1153.61> 1410 120<690.741 1062.93>
VStem: 70 340<488.639 1034.46> 1285 320<303.794 601.477>
LayerCount: 2
Fore
SplineSet
883 -20 m 0,0,1
 486 -20 486 -20 261 226 c 0,2,3
 70 435 70 435 70 756 c 0,4,5
 70 1078 70 1078 261 1284 c 0,6,7
 490 1530 490 1530 892 1530 c 0,8,9
 1295 1530 1295 1530 1520 1262 c 1,10,-1
 1255 1010 l 1,11,-1
 1247 1018 l 1,12,13
 1247 1176 1247 1176 1161 1283 c 0,14,15
 1060 1410 1060 1410 881 1410 c 0,16,17
 660 1410 660 1410 541 1220 c 0,18,19
 410 1011 410 1011 410 762 c 0,20,21
 410 497 410 497 548 312 c 0,22,23
 698 110 698 110 940 110 c 0,24,25
 1144 110 1144 110 1244 275 c 0,26,27
 1285 343 1285 343 1285 414 c 2,28,-1
 1285 483 l 2,29,30
 1285 608 1285 608 1145 663 c 1,31,-1
 1145 673 l 1,32,-1
 1605 673 l 1,33,-1
 1605 361 l 1,34,35
 1364 -20 1364 -20 883 -20 c 0,0,1
EndSplineSet
Validated: 19457
EndChar

StartChar: H
Encoding: 72 72 43
Width: 1612
GlyphClass: 2
Flags: W
HStem: 0 10<1569.18 1582> 695 120<490 1122> 1500 10<30 42.8174>
VStem: 170 320<0 695 815 1442.41> 1122 320<67.5859 695 815 1510>
CounterMasks: 1 e0
LayerCount: 2
Fore
SplineSet
170 0 m 1,0,-1
 170 1320 l 2,1,2
 170 1453 170 1453 30 1500 c 1,3,-1
 30 1510 l 1,4,-1
 490 1510 l 1,5,-1
 490 815 l 1,6,-1
 1122 815 l 1,7,-1
 1122 1510 l 1,8,-1
 1442 1510 l 1,9,-1
 1442 190 l 2,10,11
 1442 57 1442 57 1582 10 c 1,12,-1
 1582 0 l 1,13,-1
 1122 0 l 1,14,-1
 1122 695 l 1,15,-1
 490 695 l 1,16,-1
 490 0 l 1,17,-1
 170 0 l 1,0,-1
EndSplineSet
Validated: 19457
EndChar

StartChar: I
Encoding: 73 73 44
Width: 660
GlyphClass: 2
Flags: W
HStem: 0 21G<170 490> 1500 10<30 42.8174>
VStem: 170 320<0 1442.41>
LayerCount: 2
Fore
SplineSet
170 0 m 1,0,-1
 170 1320 l 10,1,2
 170 1453 170 1453 30 1500 c 1,3,-1
 30 1510 l 1,4,-1
 490 1510 l 1,5,-1
 490 0 l 1,6,-1
 170 0 l 1,0,-1
EndSplineSet
Validated: 19457
EndChar

StartChar: J
Encoding: 74 74 45
Width: 1282
GlyphClass: 2
Flags: W
HStem: -20 120<372.662 635.209> 1390 120<281.586 792>
VStem: 214 10<1250 1262.82> 792 320<321.5 1390>
LayerCount: 2
Fore
SplineSet
495.5 -20 m 128,-1,1
 205 -20 205 -20 20 223 c 1,2,-1
 279 472 l 1,3,-1
 287 465 l 1,4,5
 278 410 278 410 278 353 c 0,6,7
 278 260 278 260 321 198 c 0,8,9
 389 100 389 100 515 100 c 0,10,11
 592 100 592 100 664 166 c 0,12,13
 792 283 792 283 792 554 c 2,14,-1
 792 1390 l 1,15,-1
 404 1390 l 2,16,17
 271 1390 271 1390 224 1250 c 1,18,-1
 214 1250 l 1,19,-1
 214 1510 l 1,20,-1
 1112 1510 l 1,21,-1
 1112 551 l 2,22,23
 1112 315 1112 315 962 161 c 0,24,0
 786 -20 786 -20 495.5 -20 c 128,-1,1
EndSplineSet
Validated: 19457
EndChar

StartChar: K
Encoding: 75 75 46
Width: 1566
GlyphClass: 2
Flags: W
HStem: 0 21G<170 490 1064.98 1496> 1500 10<30 42.8174>
VStem: 170 320<0 1442.41> 1016 341<853.311 1282.58> 1084 412<0 412>
DStem2: 1024 498 734 368 0.687906 -0.725799<0 402.723>
LayerCount: 2
Fore
SplineSet
170 0 m 1,0,-1
 170 1320 l 10,1,2
 170 1453 170 1453 30 1500 c 1,3,-1
 30 1510 l 1,4,-1
 490 1510 l 1,5,-1
 490 0 l 1,6,-1
 170 0 l 1,0,-1
1496 0 m 1,7,-1
 1084 0 l 1,8,-1
 734 368 l 1,9,10
 629 330 629 330 548 313 c 1,11,-1
 545 323 l 1,12,13
 1016 583 1016 583 1016 1075 c 0,14,15
 1016 1341 1016 1341 791 1500 c 1,16,-1
 791 1510 l 1,17,18
 1357 1510 1357 1510 1357 1074 c 0,19,20
 1357 748 1357 748 1024 498 c 1,21,-1
 1496 0 l 1,7,-1
EndSplineSet
Validated: 19457
EndChar

StartChar: L
Encoding: 76 76 47
Width: 1078
GlyphClass: 2
Flags: W
HStem: 0 120<490 1000.41> 1500 10<30 42.8174>
VStem: 170 320<120 1442.41> 1058 10<247.183 260>
LayerCount: 2
Fore
SplineSet
170 0 m 1,0,-1
 170 1320 l 2,1,2
 170 1453 170 1453 30 1500 c 1,3,-1
 30 1510 l 1,4,-1
 490 1510 l 1,5,-1
 490 120 l 1,6,-1
 878 120 l 2,7,8
 1011 120 1011 120 1058 260 c 1,9,-1
 1068 260 l 1,10,-1
 1068 0 l 1,11,-1
 170 0 l 1,0,-1
EndSplineSet
Validated: 19457
EndChar

StartChar: M
Encoding: 77 77 48
Width: 2386
GlyphClass: 2
Flags: W
HStem: 0 10<769 777.155 1713 1721.15> 1500 10<276 286.803 1233 1243.8>
VStem: 5 329<0 329> 1976 340<236.46 700.192>
DStem2: 5 0 334 0 0.275646 0.961259<90.6875 1440.52> 1231 907 1371 323 0.275363 0.96134<0 494.604>
LayerCount: 2
Fore
SplineSet
769 0 m 1,0,-1
 769 10 l 1,1,2
 1032 135 1032 135 1032 440 c 0,3,4
 1032 895 1032 895 750 1386 c 1,5,-1
 756 1394 l 1,6,7
 1072 1167 1072 1167 1231 907 c 1,8,-1
 1341 1322 l 2,9,10
 1351 1360 1351 1360 1351 1388 c 0,11,12
 1351 1458 1351 1458 1233 1500 c 1,13,-1
 1233 1510 l 1,14,-1
 1711 1510 l 1,15,-1
 1371 323 l 2,16,17
 1280 4 1280 4 769 0 c 1,0,-1
1713 0 m 1,18,-1
 1713 10 l 1,19,20
 1976 133 1976 133 1976 440 c 0,21,22
 1976 895 1976 895 1694 1386 c 1,23,-1
 1700 1394 l 1,24,25
 2316 938 2316 938 2316 440 c 0,26,27
 2316 0 2316 0 1713 0 c 1,18,-1
5 0 m 1,28,-1
 384 1322 l 2,29,30
 394 1357 394 1357 394 1388 c 0,31,32
 394 1458 394 1458 276 1500 c 1,33,-1
 276 1510 l 1,34,-1
 767 1510 l 1,35,-1
 334 0 l 1,36,-1
 5 0 l 1,28,-1
EndSplineSet
Validated: 1
EndChar

StartChar: N
Encoding: 78 78 49
Width: 1612
GlyphClass: 2
Flags: W
HStem: 0 10<839 847.527> 1500 10<30 42.8174>
VStem: 170 320<0 1442.41> 1114 328<249.699 745.314> 1132 310<1043 1510>
LayerCount: 2
Fore
SplineSet
170 0 m 1,0,-1
 170 1320 l 10,1,2
 170 1453 170 1453 30 1500 c 1,3,-1
 30 1510 l 1,4,-1
 490 1510 l 1,5,-1
 490 0 l 1,6,-1
 170 0 l 1,0,-1
839 0 m 1,7,8
 839 10 l 1,9,10
 1114 100 1114 100 1114 449 c 0,11,12
 1114 989 1114 989 556 1435 c 1,13,-1
 562 1444 l 1,14,15
 898 1288 898 1288 1132 1043 c 1,16,-1
 1132 1510 l 1,17,-1
 1442 1510 l 1,18,-1
 1442 463 l 2,19,20
 1442 0 1442 0 839 0 c 1,7,8
EndSplineSet
Validated: 19457
EndChar

StartChar: O
Encoding: 79 79 50
Width: 1766
GlyphClass: 2
Flags: W
HStem: -20 119.967<705.067 1060.02> 1410 120<705.626 1060.58>
VStem: 70 340<471.869 1038.38> 1356 340<471.12 1038.38>
LayerCount: 2
Fore
SplineSet
883.046875 99.966796875 m 128,-1,1
 1084 100 1084 100 1219 289 c 0,2,3
 1356 481 1356 481 1356 755 c 128,-1,4
 1356 1029 1356 1029 1219 1221 c 0,5,6
 1084 1410 1084 1410 883 1410 c 128,-1,7
 682 1410 682 1410 547 1221 c 0,8,9
 410 1029 410 1029 410 755 c 128,-1,10
 410 481 410 481 547 289 c 0,11,0
 682 100 682 100 883.046875 99.966796875 c 128,-1,1
883 -20 m 0,12,13
 486 -20 486 -20 261 226 c 0,14,15
 70 435 70 435 70 755 c 0,16,17
 70 1076 70 1076 262 1284 c 0,18,19
 489 1530 489 1530 883 1530 c 0,20,21
 1278 1530 1278 1530 1505 1284 c 0,22,23
 1696 1076 1696 1076 1696 755 c 0,24,25
 1696 432 1696 432 1504 226 c 0,26,27
 1275 -20 1275 -20 883 -20 c 0,12,13
EndSplineSet
Validated: 19457
EndChar

StartChar: P
Encoding: 80 80 51
Width: 1384
GlyphClass: 2
Flags: W
HStem: 0 21G<170 490> 1390 120<490 762.636> 1500 10<30 42.8174>
VStem: 170 320<0 1388.01> 975 339<716.307 1168.83>
LayerCount: 2
Fore
SplineSet
170 0 m 1,0,-1
 170 1320 l 10,1,2
 170 1453 170 1453 30 1500 c 1,3,-1
 30 1510 l 1,4,-1
 665 1510 l 2,5,6
 959 1510 959 1510 1137 1352 c 0,7,8
 1314 1194 1314 1194 1314 963 c 0,9,10
 1314 728 1314 728 1180 566 c 0,11,12
 999 349 999 349 604 349 c 1,13,-1
 604 359 l 1,14,15
 777 453 777 453 874 592 c 0,16,17
 975 735 975 735 975 931 c 0,18,19
 975 1135 975 1135 883 1247 c 0,20,21
 766 1390 766 1390 584 1390 c 2,22,-1
 490 1390 l 1,23,-1
 490 0 l 1,24,-1
 170 0 l 1,0,-1
EndSplineSet
Validated: 19457
EndChar

StartChar: Q
Encoding: 81 81 52
Width: 1766
GlyphClass: 2
Flags: W
HStem: 0 21G<685 883 1011.89 1423> 1410 120<705.376 1061.26>
VStem: 70 340<472.818 1038.13> 1356 340<473.513 1037.15>
LayerCount: 2
Fore
SplineSet
1423 0 m 1,0,-1
 1031 0 l 1,1,-1
 622 428 l 1,2,-1
 1017 428 l 1,3,-1
 1188 248 l 1,4,5
 1356 449 1356 449 1356 755 c 0,6,7
 1356 1025 1356 1025 1219 1221 c 0,8,9
 1086 1410 1086 1410 883 1410 c 0,10,11
 681 1410 681 1410 547 1221 c 0,12,13
 410 1028 410 1028 410 755 c 0,14,15
 410 481 410 481 541 295 c 0,16,17
 661 125 661 125 883 -10 c 1,18,-1
 883 -20 l 1,19,20
 487 -20 487 -20 261 226 c 0,21,22
 70 435 70 435 70 755 c 0,23,24
 70 1076 70 1076 262 1284 c 0,25,26
 489 1530 489 1530 883 1530 c 0,27,28
 1279 1530 1279 1530 1505 1284 c 0,29,30
 1696 1075 1696 1075 1696 755 c 0,31,32
 1696 436 1696 436 1504 227 c 0,33,34
 1429 146 1429 146 1337 92 c 1,35,-1
 1423 0 l 1,0,-1
EndSplineSet
Validated: 19457
EndChar

StartChar: R
Encoding: 82 82 53
Width: 1501
GlyphClass: 2
Flags: W
HStem: 0 21G<170 490 1064.95 1496> 1390 120<490 762.636> 1500 10<30 42.8174>
VStem: 170 320<0 1388.01> 975 339<716.307 1168.83> 1084 412<0 412>
LayerCount: 2
Fore
SplineSet
170 0 m 1,0,-1
 170 1320 l 2,1,2
 170 1453 170 1453 30 1500 c 1,3,-1
 30 1510 l 1,4,-1
 665 1510 l 2,5,6
 959 1510 959 1510 1137 1352 c 0,7,8
 1314 1194 1314 1194 1314 963 c 0,9,10
 1314 728 1314 728 1180 566 c 0,11,12
 1129 505 1129 505 1060 461 c 1,13,-1
 1496 0 l 1,14,-1
 1084 0 l 1,15,-1
 744 357 l 1,16,17
 678 349 678 349 604 349 c 1,18,-1
 604 359 l 1,19,20
 777 453 777 453 874 592 c 0,21,22
 975 735 975 735 975 931 c 0,23,24
 975 1135 975 1135 883 1247 c 0,25,26
 766 1390 766 1390 584 1390 c 2,27,-1
 490 1390 l 1,28,-1
 490 0 l 1,29,-1
 170 0 l 1,0,-1
EndSplineSet
Validated: 19457
EndChar

StartChar: S
Encoding: 83 83 54
Width: 1330
GlyphClass: 2
Flags: W
HStem: -20 120<468.177 800.782> 1100 21G<869 898.788> 1410 120<597.947 824.535>
VStem: 261 285<1136.36 1328.27> 964 316<308.419 576.845>
DStem2: 726 1047 529 805 0.913009 -0.40794<-192.121 359.091>
LayerCount: 2
Fore
SplineSet
640 -20 m 128,-1,1
 358 -20 358 -20 208 122 c 0,2,3
 112 213 112 213 50 368 c 1,4,-1
 322 627 l 1,5,-1
 331 620 l 1,6,7
 314 535 314 535 314 440 c 0,8,9
 314 318 314 318 388 216 c 0,10,11
 472 100 472 100 645 100 c 0,12,13
 786 100 786 100 879 211 c 0,14,15
 964 313 964 313 964 434 c 0,16,17
 964 609 964 609 747 707 c 2,18,-1
 529 805 l 2,19,20
 261 925 261 925 261 1151 c 0,21,22
 261 1324 261 1324 401 1440 c 0,23,24
 509 1530 509 1530 695 1530 c 0,25,26
 900 1530 900 1530 1008 1426 c 0,27,28
 1060 1376 1060 1376 1089 1303 c 1,29,-1
 878 1100 l 1,30,-1
 869 1107 l 1,31,32
 880 1161 880 1161 880 1217 c 0,33,34
 880 1294 880 1294 844 1344 c 0,35,36
 796 1410 796 1410 708 1410 c 0,37,38
 641 1410 641 1410 598 1371 c 0,39,40
 546 1324 546 1324 546 1242 c 0,41,42
 546 1127 546 1127 726 1047 c 2,43,-1
 961 942 l 2,44,45
 1280 799 1280 799 1280 506 c 0,46,47
 1280 294 1280 294 1109 144 c 0,48,0
 922 -20 922 -20 640 -20 c 128,-1,1
EndSplineSet
Validated: 19457
EndChar

StartChar: T
Encoding: 84 84 55
Width: 1210
GlyphClass: 2
Flags: W
HStem: 0 21G<446 766> 1390 120<77.5859 446 766 1132.41>
VStem: 10 10<1250 1262.82> 446 320<0 1390> 1190 10<1250 1262.82>
LayerCount: 2
Fore
SplineSet
446 0 m 1,0,-1
 446 1390 l 1,1,-1
 200 1390 l 2,2,3
 67 1390 67 1390 20 1250 c 1,4,-1
 10 1250 l 1,5,-1
 10 1510 l 1,6,-1
 1200 1510 l 1,7,-1
 1200 1250 l 1,8,-1
 1190 1250 l 1,9,10
 1143 1390 1143 1390 1010 1390 c 2,11,-1
 766 1390 l 1,12,-1
 766 0 l 1,13,-1
 446 0 l 1,0,-1
EndSplineSet
Validated: 19457
EndChar

StartChar: U
Encoding: 85 85 56
Width: 1634
GlyphClass: 2
Flags: W
HStem: -20 120<667.93 960.619> 1500 10<30 42.8174>
VStem: 170 320<324.75 1442.41> 1144 320<320.442 1510>
LayerCount: 2
Fore
SplineSet
815 -20 m 0,0,1
 510 -20 510 -20 340 142 c 0,2,3
 170 303 170 303 170 551 c 2,4,-1
 170 1320 l 10,5,6
 170 1453 170 1453 30 1500 c 1,7,-1
 30 1510 l 1,8,-1
 490 1510 l 1,9,-1
 490 555 l 2,10,11
 490 356 490 356 576 234 c 0,12,13
 670 100 670 100 818 100 c 0,14,15
 922 100 922 100 1014 185 c 0,16,17
 1144 305 1144 305 1144 555 c 2,18,-1
 1144 1510 l 1,19,-1
 1464 1510 l 1,20,-1
 1464 551 l 2,21,22
 1464 300 1464 300 1298 145 c 0,23,24
 1121 -20 1121 -20 815 -20 c 0,0,1
EndSplineSet
Validated: 19457
EndChar

StartChar: V
Encoding: 86 86 57
Width: 1785
GlyphClass: 2
Flags: W
HStem: 0 10<1173.56 1185> 1500 10<5 16.4404 1112 1120.15>
VStem: 1375 340<809.808 1273.54>
DStem2: 436 1510 169 1359 0.395387 -0.918515<0 1512.69>
LayerCount: 2
Fore
SplineSet
1112 1510 m 1,0,1
 1715 1510 1715 1510 1715 1070 c 0,2,3
 1715 572 1715 572 1099 116 c 1,4,-1
 1093 124 l 1,5,6
 1375 615 1375 615 1375 1070 c 0,7,8
 1375 1377 1375 1377 1112 1500 c 1,9,-1
 1112 1510 l 1,0,1
754 0 m 1,10,-1
 169 1359 l 2,11,12
 129 1453 129 1453 5 1500 c 9,13,-1
 5 1510 l 1,14,-1
 436 1510 l 1,15,-1
 1021 151 l 2,16,17
 1061 57 1061 57 1185 10 c 9,18,-1
 1185 0 l 1,19,-1
 754 0 l 1,10,-1
EndSplineSet
Validated: 1
EndChar

StartChar: W
Encoding: 87 87 58
Width: 2408
GlyphClass: 2
Flags: W
HStem: 0 10<1173.56 1185 1796.56 1808> 1500 10<5 16.4404 628 639.44 1735 1743.15>
VStem: 1998 340<809.808 1273.54>
DStem2: 436 1510 169 1359 0.395387 -0.918515<0 1512.69> 1059 1510 792 1359 0.395387 -0.918515<0 1512.69>
LayerCount: 2
Fore
SplineSet
754 0 m 1,0,-1
 169 1359 l 2,1,2
 129 1453 129 1453 5 1500 c 9,3,-1
 5 1510 l 1,4,-1
 436 1510 l 1,5,-1
 1021 151 l 2,6,7
 1061 57 1061 57 1185 10 c 9,8,-1
 1185 0 l 1,9,-1
 754 0 l 1,0,-1
1735 1510 m 1,10,11
 2338 1510 2338 1510 2338 1070 c 0,12,13
 2338 572 2338 572 1722 116 c 1,14,-1
 1716 124 l 1,15,16
 1998 615 1998 615 1998 1070 c 0,17,18
 1998 1377 1998 1377 1735 1500 c 1,19,-1
 1735 1510 l 1,10,11
1377 0 m 1,20,-1
 792 1359 l 2,21,22
 752 1453 752 1453 628 1500 c 9,23,-1
 628 1510 l 1,24,-1
 1059 1510 l 1,25,-1
 1644 151 l 2,26,27
 1684 57 1684 57 1808 10 c 9,28,-1
 1808 0 l 1,29,-1
 1377 0 l 1,20,-1
EndSplineSet
Validated: 1
EndChar

StartChar: X
Encoding: 88 88 59
Width: 1620
GlyphClass: 2
Flags: W
HStem: 0 21G<57 286.991 1135.95 1520> 1500 10<5 16.4038>
VStem: 57 204<0 204> 1150 370<0 370> 1173 337<1023.72 1325.91>
DStem2: 57 0 261 0 0.792292 0.610143<161.627 889.683> 454 1510 193 1361 0.576726 -0.816938<0 967.467 1092.32 1634.98>
LayerCount: 2
Fore
SplineSet
977 1510 m 1,0,1
 1510 1510 1510 1510 1510 1185 c 0,2,3
 1510 937 1510 937 1089 661 c 1,4,-1
 1083 669 l 1,5,6
 1173 925 1173 925 1173 1101 c 0,7,8
 1172 1374 1172 1374 977 1500 c 1,9,-1
 977 1510 l 1,0,1
57 0 m 1,10,-1
 766 546 l 1,11,-1
 193 1361 l 2,12,13
 128 1453 128 1453 5 1500 c 1,14,-1
 5 1510 l 1,15,-1
 454 1510 l 1,16,-1
 1520 0 l 1,17,-1
 1150 0 l 1,18,-1
 838 444 l 1,19,-1
 261 0 l 1,20,-1
 57 0 l 1,10,-1
EndSplineSet
Validated: 1
EndChar

StartChar: Y
Encoding: 89 89 60
Width: 1567
GlyphClass: 2
Flags: W
HStem: 0 21G<660 980> 1500 10<5 17.5654>
VStem: 660 320<0 504> 1167 330<961.707 1341.83>
DStem2: 459 1510 193 1361 0.474697 -0.880149<0 980.844>
LayerCount: 2
Fore
SplineSet
660 0 m 1,0,-1
 660 504 l 1,1,-1
 193 1361 l 2,2,3
 141 1457 141 1457 5 1500 c 1,4,-1
 5 1510 l 1,5,-1
 459 1510 l 1,6,-1
 980 544 l 1,7,-1
 980 0 l 1,8,-1
 660 0 l 1,0,-1
998 1510 m 1,9,10
 1497 1510 1497 1510 1497 1170 c 0,11,12
 1497 820 1497 820 1047 576 c 1,13,-1
 1041 584 l 1,14,15
 1167 816 1167 816 1167 1101 c 0,16,17
 1167 1383 1167 1383 998 1500 c 1,18,-1
 998 1510 l 1,9,10
EndSplineSet
Validated: 1
EndChar

StartChar: Z
Encoding: 90 90 61
Width: 1425
GlyphClass: 2
Flags: W
HStem: 0 140<50 1237.41> 1390 120<197.586 814.619>
VStem: 130 10<1250 1262.82> 945 360<879.963 1256.26> 1295 10<267.183 280>
LayerCount: 2
Fore
SplineSet
50 0 m 1,0,-1
 50 140 l 1,1,-1
 1115 140 l 2,2,3
 1248 140 1248 140 1295 280 c 1,4,-1
 1305 280 l 1,5,-1
 1305 0 l 1,6,-1
 50 0 l 1,0,-1
130 1510 m 1,7,-1
 641 1510 l 2,8,9
 1305 1510 1305 1510 1305 1073 c 0,10,11
 1305 552 1305 552 171 177 c 9,12,-1
 166 186 l 1,13,14
 944 668 944 668 945 1070 c 0,15,16
 945 1390 945 1390 621 1390 c 2,17,-1
 320 1390 l 2,18,19
 187 1390 187 1390 140 1250 c 1,20,-1
 130 1250 l 1,21,-1
 130 1510 l 1,7,-1
EndSplineSet
Validated: 19457
EndChar

StartChar: bracketleft
Encoding: 91 91 62
Width: 863
GlyphClass: 2
Flags: W
HStem: -250 120<492 843> 1640 120<492 843>
VStem: 170 322<-130 1640>
LayerCount: 2
Fore
SplineSet
170 -250 m 1,0,-1
 170 1760 l 1,1,-1
 843 1760 l 1,2,-1
 843 1640 l 1,3,-1
 492 1640 l 1,4,-1
 492 -130 l 1,5,-1
 843 -130 l 1,6,-1
 843 -250 l 1,7,-1
 170 -250 l 1,0,-1
EndSplineSet
Validated: 19457
EndChar

StartChar: backslash
Encoding: 92 92 63
Width: 1142
GlyphClass: 2
Flags: W
DStem2: 255 1690 10 1578 0.446806 -0.894631<0 1955.79>
LayerCount: 2
Fore
SplineSet
888 -180 m 1,0,-1
 10 1578 l 1,1,-1
 255 1690 l 1,2,-1
 1132 -64 l 1,3,-1
 888 -180 l 1,0,-1
EndSplineSet
Validated: 1
EndChar

StartChar: bracketright
Encoding: 93 93 64
Width: 863
GlyphClass: 2
Flags: W
HStem: -250 120<20 371> 1640 120<20 371>
VStem: 371 322<-130 1640>
LayerCount: 2
Fore
SplineSet
693 -250 m 1,0,-1
 20 -250 l 1,1,-1
 20 -130 l 1,2,-1
 371 -130 l 1,3,-1
 371 1640 l 1,4,-1
 20 1640 l 1,5,-1
 20 1760 l 1,6,-1
 693 1760 l 1,7,-1
 693 -250 l 1,0,-1
EndSplineSet
Validated: 19457
EndChar

StartChar: asciicircum
Encoding: 94 94 65
Width: 740
GlyphClass: 2
Flags: W
HStem: 1123 427
DStem2: 20 1217 115 1123 0.745973 0.665976<8.2657 323.504> 393 1550 351 1332 0.748166 -0.663511<113.222 426.219>
LayerCount: 2
Fore
SplineSet
393 1550 m 1,0,-1
 720 1260 l 1,1,-1
 584 1123 l 1,2,-1
 351 1332 l 1,3,-1
 115 1123 l 1,4,-1
 20 1217 l 1,5,-1
 393 1550 l 1,0,-1
EndSplineSet
Validated: 19457
EndChar

StartChar: underscore
Encoding: 95 95 66
Width: 1192
GlyphClass: 2
Flags: W
HStem: -241 141<120 1072>
LayerCount: 2
Fore
SplineSet
120 -100 m 1,0,-1
 1072 -100 l 1,1,-1
 1072 -241 l 1,2,-1
 120 -241 l 1,3,-1
 120 -100 l 1,0,-1
EndSplineSet
Validated: 19457
EndChar

StartChar: grave
Encoding: 96 96 67
Width: 427
GlyphClass: 2
Flags: W
HStem: 1150 404
VStem: 20 387
LayerCount: 2
Fore
SplineSet
208 1554 m 1,0,1
 390 1412 390 1412 407 1150 c 1,2,-1
 397 1150 l 1,3,4
 227 1332 227 1332 20 1367 c 1,5,-1
 208 1554 l 1,0,1
EndSplineSet
Validated: 19457
EndChar

StartChar: a
Encoding: 97 97 68
Width: 1328
GlyphClass: 2
Flags: W
HStem: 0 10<759.722 770 1285.18 1298> 990 110<591.188 858>
VStem: 70 320<329.165 770.797> 858 300<67.5859 990>
LayerCount: 2
Fore
SplineSet
1298 0 m 1,0,-1
 858 0 l 1,1,-1
 858 990 l 1,2,-1
 758 990 l 2,3,4
 606 990 606 990 503 876 c 0,5,6
 390 750 390 750 390 550 c 0,7,8
 390 349 390 349 501 210 c 0,9,10
 601 85 601 85 770 10 c 1,11,-1
 770 0 l 1,12,13
 440 0 440 0 253 150 c 0,14,15
 70 298 70 298 70 550 c 0,16,17
 70 793 70 793 249 946 c 0,18,19
 428 1100 428 1100 738 1100 c 2,20,-1
 1158 1100 l 1,21,-1
 1158 190 l 10,22,23
 1158 57 1158 57 1298 10 c 1,24,-1
 1298 0 l 1,0,-1
EndSplineSet
Validated: 19457
EndChar

StartChar: b
Encoding: 98 98 69
Width: 1328
GlyphClass: 2
Flags: W
HStem: 0 110<470 736.812> 1090 10<558 568.278> 1500 10<30 42.8174>
VStem: 170 300<110 1442.41> 938 320<329.203 770.835>
LayerCount: 2
Fore
SplineSet
170 0 m 1,0,-1
 170 1320 l 10,1,2
 170 1453 170 1453 30 1500 c 1,3,-1
 30 1510 l 1,4,-1
 470 1510 l 1,5,-1
 470 110 l 1,6,-1
 570 110 l 2,7,8
 723 110 723 110 825 224 c 0,9,10
 938 350 938 350 938 550 c 0,11,12
 938 751 938 751 827 890 c 0,13,14
 727 1015 727 1015 558 1090 c 1,15,-1
 558 1100 l 1,16,17
 888 1100 888 1100 1075 950 c 0,18,19
 1258 802 1258 802 1258 550 c 0,20,21
 1258 307 1258 307 1079 154 c 0,22,23
 900 0 900 0 590 0 c 2,24,-1
 170 0 l 1,0,-1
EndSplineSet
Validated: 19457
EndChar

StartChar: c
Encoding: 99 99 70
Width: 1248
GlyphClass: 2
Flags: W
HStem: -20 120<560.785 915.951> 1011 109<543.988 831.368>
VStem: 70 320<314.214 787.584>
LayerCount: 2
Fore
SplineSet
682 -20 m 0,0,1
 366 -20 366 -20 202 172 c 0,2,3
 70 327 70 327 70 550 c 0,4,5
 70 776 70 776 202 928 c 24,6,7
 369 1120 369 1120 671 1120 c 0,8,9
 970 1120 970 1120 1146 910 c 1,10,-1
 933 708 l 1,11,-1
 924 715 l 1,12,13
 928 737 928 737 928 771 c 0,14,15
 928 855 928 855 875 924 c 0,16,17
 808 1011 808 1011 690 1011 c 0,18,19
 582 1011 582 1011 513 942 c 0,20,21
 390 819 390 819 390 550 c 0,22,23
 390 339 390 339 474 222 c 0,24,25
 562 100 562 100 748 100 c 0,26,27
 981 100 981 100 1170 240 c 1,28,-1
 1178 234 l 1,29,30
 996 -20 996 -20 682 -20 c 0,0,1
EndSplineSet
Validated: 19457
EndChar

StartChar: d
Encoding: 100 100 71
Width: 1328
GlyphClass: 2
Flags: W
HStem: 0 110<591.188 858> 0 10<1285.18 1298> 1090 10<759.722 770> 1500 10<718 730.817>
VStem: 70 320<329.203 770.835> 858 300<111.978 1442.41>
LayerCount: 2
Fore
SplineSet
1298 0 m 1,0,-1
 738 0 l 2,1,2
 428 0 428 0 249 154 c 0,3,4
 70 307 70 307 70 550 c 0,5,6
 70 802 70 802 253 950 c 0,7,8
 440 1100 440 1100 770 1100 c 1,9,-1
 770 1090 l 1,10,11
 601 1015 601 1015 501 890 c 0,12,13
 390 751 390 751 390 550 c 0,14,15
 390 350 390 350 503 224 c 0,16,17
 606 110 606 110 758 110 c 2,18,-1
 858 110 l 1,19,-1
 858 1320 l 2,20,21
 858 1453 858 1453 718 1500 c 1,22,-1
 718 1510 l 1,23,-1
 1158 1510 l 1,24,-1
 1158 190 l 2,25,26
 1158 57 1158 57 1298 10 c 1,27,-1
 1298 0 l 1,0,-1
EndSplineSet
Validated: 19457
EndChar

StartChar: e
Encoding: 101 101 72
Width: 1248
GlyphClass: 2
Flags: W
HStem: -20 120<560.785 915.951> 495 110<392 884> 1011 109<543.988 831.368>
VStem: 70 322<315.78 495 605 786.58>
LayerCount: 2
Fore
SplineSet
682 -20 m 0,0,1
 366 -20 366 -20 202 172 c 0,2,3
 70 327 70 327 70 550 c 0,4,5
 70 776 70 776 202 928 c 0,6,7
 369 1120 369 1120 671 1120 c 0,8,9
 970 1120 970 1120 1146 910 c 1,10,-1
 933 708 l 1,11,-1
 924 715 l 1,12,13
 928 737 928 737 928 771 c 0,14,15
 928 855 928 855 875 924 c 0,16,17
 808 1011 808 1011 690 1011 c 0,18,19
 582 1011 582 1011 513 942 c 0,20,21
 403 832 403 832 391 605 c 1,22,-1
 884 605 l 1,23,-1
 884 495 l 1,24,-1
 392 495 l 1,25,26
 402 323 402 323 474 222 c 0,27,28
 562 100 562 100 748 100 c 0,29,30
 981 100 981 100 1170 240 c 1,31,-1
 1178 234 l 1,32,33
 996 -20 996 -20 682 -20 c 0,0,1
EndSplineSet
Validated: 19457
EndChar

StartChar: g
Encoding: 103 103 73
Width: 1328
GlyphClass: 2
Flags: W
HStem: -410 21G<428 793> 0 10<759.722 770> 990 110<591.188 858>
VStem: 70 320<329.165 770.797> 858 300<-43.7891 990>
LayerCount: 2
Fore
SplineSet
770 0 m 1,0,1
 440 0 440 0 253 150 c 0,2,3
 70 298 70 298 70 550 c 0,4,5
 70 793 70 793 249 946 c 0,6,7
 428 1100 428 1100 738 1100 c 2,8,-1
 1158 1100 l 1,9,-1
 1158 190 l 2,10,11
 1158 -410 1158 -410 428 -410 c 1,12,-1
 428 -400 l 1,13,14
 858 -235 858 -235 858 190 c 2,15,-1
 858 990 l 1,16,-1
 758 990 l 2,17,18
 606 990 606 990 503 876 c 0,19,20
 390 750 390 750 390 550 c 0,21,22
 390 349 390 349 501 210 c 0,23,24
 601 85 601 85 770 10 c 1,25,-1
 770 0 l 1,0,1
EndSplineSet
Validated: 19457
EndChar

StartChar: h
Encoding: 104 104 74
Width: 1328
GlyphClass: 2
Flags: W
HStem: 0 21G<170 470 763 869.5> 990 110<470 738.249> 1500 10<30 42.8174>
VStem: 170 300<0 990 1100 1442.41> 938 320<330.569 764.864>
LayerCount: 2
Fore
SplineSet
170 0 m 1,0,-1
 170 1320 l 2,1,2
 170 1453 170 1453 30 1500 c 1,3,-1
 30 1510 l 1,4,-1
 470 1510 l 9,5,-1
 470 1100 l 25,6,-1
 590 1100 l 2,7,8
 905 1100 905 1100 1073 952 c 0,9,10
 1258 789 1258 789 1258 550 c 0,11,12
 1258 320 1258 320 1089 157 c 0,13,14
 966 39 966 39 773 -20 c 1,15,-1
 763 -20 l 1,16,17
 849 108 849 108 893 248 c 0,18,19
 938 393 938 393 938 550 c 0,20,21
 938 753 938 753 829.5 871.5 c 128,-1,22
 721 990 721 990 570 990 c 2,23,-1
 470 990 l 1,24,-1
 470 0 l 1,25,-1
 170 0 l 1,0,-1
EndSplineSet
Validated: 19457
EndChar

StartChar: i
Encoding: 105 105 75
Width: 640
GlyphClass: 2
Flags: W
HStem: 0 10<597.183 610> 1090 10<30 42.8174> 1170 370<183.14 420.86>
VStem: 120 364<1232.58 1477.42> 170 300<67.5859 1032.41>
LayerCount: 2
Fore
SplineSet
302 1540 m 128,-1,1
 378 1540 378 1540 431 1486 c 128,-1,2
 484 1432 484 1432 484 1355 c 128,-1,3
 484 1278 484 1278 431 1224 c 128,-1,4
 378 1170 378 1170 302 1170 c 128,-1,5
 226 1170 226 1170 173 1224 c 128,-1,6
 120 1278 120 1278 120 1355 c 128,-1,7
 120 1432 120 1432 173 1486 c 128,-1,0
 226 1540 226 1540 302 1540 c 128,-1,1
170 0 m 1,8,-1
 170 910 l 2,9,10
 170 1043 170 1043 30 1090 c 1,11,-1
 30 1100 l 1,12,-1
 470 1100 l 1,13,-1
 470 190 l 10,14,15
 470 57 470 57 610 10 c 1,16,-1
 610 0 l 1,17,-1
 170 0 l 1,8,-1
EndSplineSet
Validated: 19457
EndChar

StartChar: j
Encoding: 106 106 76
Width: 640
GlyphClass: 2
Flags: W
HStem: -410 10<-10 -4.41895> 1090 10<30 42.8174> 1170 370<183.14 420.86>
VStem: 120 364<1232.58 1477.42> 170 300<-226.583 1032.41>
LayerCount: 2
Fore
SplineSet
302 1540 m 128,-1,1
 378 1540 378 1540 431 1486 c 128,-1,2
 484 1432 484 1432 484 1355 c 128,-1,3
 484 1278 484 1278 431 1224 c 128,-1,4
 378 1170 378 1170 302 1170 c 128,-1,5
 226 1170 226 1170 173 1224 c 128,-1,6
 120 1278 120 1278 120 1355 c 128,-1,7
 120 1432 120 1432 173 1486 c 128,-1,0
 226 1540 226 1540 302 1540 c 128,-1,1
-10 -410 m 1,8,-1
 -10 -400 l 1,9,10
 170 -309 170 -309 170 -39 c 2,11,-1
 170 910 l 2,12,13
 170 1043 170 1043 30 1090 c 1,14,-1
 30 1100 l 1,15,-1
 470 1100 l 1,16,-1
 470 -39 l 2,17,18
 470 -410 470 -410 -10 -410 c 1,8,-1
EndSplineSet
Validated: 19457
EndChar

StartChar: k
Encoding: 107 107 77
Width: 1349
GlyphClass: 2
Flags: W
HStem: 0 21G<170 470 886.14 1344> 184 8<504 508.455> 1080 20G<708 948> 1500 10<30 42.8174>
VStem: 170 300<0 1442.41> 867 321<584.093 943.605>
LayerCount: 2
Fore
SplineSet
170 0 m 1,0,-1
 170 1320 l 2,1,2
 170 1453 170 1453 30 1500 c 1,3,-1
 30 1510 l 1,4,-1
 470 1510 l 1,5,-1
 470 0 l 1,6,-1
 170 0 l 1,0,-1
1344 0 m 1,7,-1
 912 0 l 1,8,-1
 634 215 l 1,9,-1
 509 184 l 1,10,-1
 504 192 l 1,11,12
 647 282 647 282 732 384 c 0,13,14
 867 545 867 545 867 751 c 0,15,16
 867 979 867 979 708 1090 c 1,17,-1
 708 1100 l 1,18,19
 1188 1100 1188 1100 1188 782 c 0,20,21
 1188 505 1188 505 904 342 c 1,22,-1
 1344 0 l 1,7,-1
EndSplineSet
Validated: 19457
EndChar

StartChar: l
Encoding: 108 108 78
Width: 640
GlyphClass: 2
Flags: W
HStem: 0 10<597.183 610> 1500 10<30 42.8174>
VStem: 170 300<67.5859 1442.41>
LayerCount: 2
Fore
SplineSet
170 0 m 1,0,-1
 170 1320 l 2,1,2
 170 1453 170 1453 30 1500 c 1,3,-1
 30 1510 l 1,4,-1
 470 1510 l 1,5,-1
 470 190 l 10,6,7
 470 57 470 57 610 10 c 1,8,-1
 610 0 l 1,9,-1
 170 0 l 1,0,-1
EndSplineSet
Validated: 19457
EndChar

StartChar: m
Encoding: 109 109 79
Width: 1805
GlyphClass: 2
Flags: W
HStem: 0 21G<170 470 757 1057 1240 1346.5> 990 110<470 1215.25> 1090 10<30 42.8174>
VStem: 170 300<0 988.022> 757 300<0 858> 1415 320<330.569 764.864>
LayerCount: 2
Fore
SplineSet
170 0 m 1,0,-1
 170 910 l 2,1,2
 170 1043 170 1043 30 1090 c 1,3,-1
 30 1100 l 1,4,-1
 1067 1100 l 2,5,6
 1382 1100 1382 1100 1550 952 c 0,7,8
 1735 789 1735 789 1735 550 c 0,9,10
 1735 320 1735 320 1566 157 c 0,11,12
 1443 39 1443 39 1250 -20 c 1,13,-1
 1240 -20 l 1,14,15
 1326 108 1326 108 1370 248 c 0,16,17
 1415 393 1415 393 1415 550 c 0,18,19
 1415 753 1415 753 1306.5 871.5 c 128,-1,20
 1198 990 1198 990 1047 990 c 2,21,-1
 470 990 l 1,22,-1
 470 0 l 1,23,-1
 170 0 l 1,0,-1
757 0 m 1,24,-1
 757 858 l 1,25,-1
 1057 858 l 1,26,-1
 1057 0 l 1,27,-1
 757 0 l 1,24,-1
EndSplineSet
Validated: 19457
EndChar

StartChar: n
Encoding: 110 110 80
Width: 1328
GlyphClass: 2
Flags: W
HStem: 0 21G<170 470 763 869.5> 990 110<470 738.249> 1090 10<30 42.8174>
VStem: 170 300<0 988.022> 938 320<330.569 764.864>
LayerCount: 2
Fore
SplineSet
170 0 m 1,0,-1
 170 910 l 2,1,2
 170 1043 170 1043 30 1090 c 1,3,-1
 30 1100 l 1,4,-1
 590 1100 l 2,5,6
 905 1100 905 1100 1073 952 c 0,7,8
 1258 789 1258 789 1258 550 c 0,9,10
 1258 320 1258 320 1089 157 c 0,11,12
 966 39 966 39 773 -20 c 1,13,-1
 763 -20 l 1,14,15
 849 108 849 108 893 248 c 0,16,17
 938 393 938 393 938 550 c 0,18,19
 938 753 938 753 829.5 871.5 c 128,-1,20
 721 990 721 990 570 990 c 2,21,-1
 470 990 l 1,22,-1
 470 0 l 1,23,-1
 170 0 l 1,0,-1
EndSplineSet
Validated: 19457
EndChar

StartChar: o
Encoding: 111 111 81
Width: 1335
GlyphClass: 2
Flags: W
HStem: -20 109<541.006 794.818> 1011 109<540.799 794.607>
VStem: 70 320<314.938 784.431> 946 319<311.957 786.038>
LayerCount: 2
Fore
SplineSet
667.5 89 m 128,-1,1
 789 89 789 89 868 215 c 0,2,3
 946 340 946 340 946 550 c 0,4,5
 946 759 946 759 872 879 c 0,6,7
 790 1011 790 1011 668 1011 c 0,8,9
 547 1011 547 1011 468 885 c 0,10,11
 390 758 390 758 390 550 c 0,12,13
 390 341 390 341 464 221 c 0,14,0
 546 89 546 89 667.5 89 c 128,-1,1
668 -20 m 0,15,16
 364 -20 364 -20 202 172 c 0,17,18
 70 329 70 329 70 550 c 0,19,20
 70 774 70 774 202 928 c 0,21,22
 366 1120 366 1120 668 1120 c 128,-1,23
 970 1120 970 1120 1134 928 c 0,24,25
 1265 775 1265 775 1265 550 c 0,26,27
 1265 323 1265 323 1134 172 c 0,28,29
 968 -20 968 -20 668 -20 c 0,15,16
EndSplineSet
Validated: 19457
EndChar

StartChar: p
Encoding: 112 112 82
Width: 1328
GlyphClass: 2
Flags: W
HStem: -410 21G<170 470> 0 10<558 568.278> 990 110<470 736.812> 1090 10<30 42.8174>
VStem: 170 300<-410 988.022> 938 320<329.165 770.797>
LayerCount: 2
Fore
SplineSet
170 -410 m 1,0,-1
 170 910 l 2,1,2
 170 1043 170 1043 30 1090 c 1,3,-1
 30 1100 l 1,4,-1
 590 1100 l 2,5,6
 900 1100 900 1100 1079 946 c 0,7,8
 1258 793 1258 793 1258 550 c 0,9,10
 1258 298 1258 298 1075 150 c 0,11,12
 888 0 888 0 558 0 c 1,13,-1
 558 10 l 1,14,15
 727 85 727 85 827 210 c 0,16,17
 938 349 938 349 938 550 c 0,18,19
 938 750 938 750 825 876 c 0,20,21
 722 990 722 990 570 990 c 2,22,-1
 470 990 l 1,23,-1
 470 -410 l 1,24,-1
 170 -410 l 1,0,-1
EndSplineSet
Validated: 19457
EndChar

StartChar: q
Encoding: 113 113 83
Width: 1328
GlyphClass: 2
Flags: W
HStem: -410 10<1285.18 1298> 0 10<759.722 770> 990 110<591.188 858>
VStem: 70 320<329.165 770.797> 858 300<-342.414 990>
LayerCount: 2
Fore
SplineSet
1298 -410 m 1,0,-1
 858 -410 l 1,1,-1
 858 990 l 1,2,-1
 758 990 l 2,3,4
 605 990 605 990 503 876 c 0,5,6
 390 750 390 750 390 550 c 0,7,8
 390 349 390 349 501 210 c 0,9,10
 601 85 601 85 770 10 c 1,11,-1
 770 0 l 1,12,13
 440 0 440 0 253 150 c 0,14,15
 70 298 70 298 70 550 c 0,16,17
 70 793 70 793 249 946 c 0,18,19
 428 1100 428 1100 738 1100 c 2,20,-1
 1158 1100 l 1,21,-1
 1158 -220 l 10,22,23
 1158 -353 1158 -353 1298 -400 c 1,24,-1
 1298 -410 l 1,0,-1
EndSplineSet
Validated: 19457
EndChar

StartChar: r
Encoding: 114 114 84
Width: 1127
GlyphClass: 2
Flags: W
HStem: 0 21G<170 470> 990 110<470 683.987> 1090 10<30 42.8174>
VStem: 170 300<0 988.022> 777 300<572.047 895.022>
LayerCount: 2
Fore
SplineSet
170 0 m 1,0,-1
 170 910 l 2,1,2
 170 1043 170 1043 30 1090 c 1,3,-1
 30 1100 l 1,4,-1
 590 1100 l 2,5,6
 815 1100 815 1100 947 999 c 0,7,8
 1077 900 1077 900 1077 749 c 0,9,10
 1077 614 1077 614 994 519 c 0,11,12
 871 378 871 378 598 378 c 1,13,-1
 598 388 l 1,14,15
 689 443 689 443 734 531 c 0,16,17
 777 615 777 615 777 725 c 0,18,19
 777 851 777 851 713 921 c 0,20,21
 650 990 650 990 543 990 c 2,22,-1
 470 990 l 1,23,-1
 470 0 l 1,24,-1
 170 0 l 1,0,-1
EndSplineSet
Validated: 19457
EndChar

StartChar: s
Encoding: 115 115 85
Width: 1026
GlyphClass: 2
Flags: W
HStem: -20 109<347.403 616.45> 1011 109<470.737 638.043>
VStem: 190 253<719.5 970.176> 690 286<206.751 398.495>
DStem2: 554 778 390 542 0.900552 -0.434749<-140.654 290.72>
LayerCount: 2
Fore
SplineSet
506 -20 m 0,0,1
 325 -20 325 -20 216.5 46.5 c 128,-1,2
 108 113 108 113 50 233 c 1,3,-1
 262 435 l 1,4,-1
 270 428 l 1,5,6
 258 377 258 377 258 326 c 0,7,8
 258 228 258 228 323 156 c 0,9,10
 384 89 384 89 481 89 c 0,11,12
 585 89 585 89 647 163 c 0,13,14
 690 215 690 215 690 289 c 0,15,16
 690 399 690 399 556 463 c 2,17,-1
 390 542 l 2,18,19
 190 637 190 637 190 802 c 0,20,21
 190 951 190 951 293 1036 c 0,22,23
 394 1120 394 1120 538 1120 c 0,24,25
 648 1120 648 1120 726 1077 c 0,26,27
 805 1033 805 1033 850 945 c 1,28,-1
 664 770 l 1,29,-1
 656 777 l 1,30,31
 670 825 670 825 670 865 c 0,32,33
 670 915 670 915 648 953 c 0,34,35
 614 1011 614 1011 550 1011 c 0,36,37
 506 1011 506 1011 476 983 c 0,38,39
 443 954 443 954 443 904 c 0,40,41
 443 832 443 832 554 778 c 2,42,-1
 757 680 l 2,43,44
 976 574 976 574 976 378 c 0,45,46
 976 207 976 207 827 88 c 0,47,48
 692 -20 692 -20 506 -20 c 0,0,1
EndSplineSet
Validated: 19457
EndChar

StartChar: t
Encoding: 116 116 86
Width: 825
GlyphClass: 2
Flags: W
HStem: 0 10<597.183 610> 990 110<470 820> 1500 10<30 42.8174>
VStem: 170 300<67.5859 990 1100 1442.41>
LayerCount: 2
Fore
SplineSet
170 0 m 1,0,-1
 170 1320 l 2,1,2
 170 1453 170 1453 30 1500 c 1,3,-1
 30 1510 l 1,4,-1
 470 1510 l 1,5,-1
 470 1100 l 1,6,-1
 820 1100 l 1,7,-1
 820 990 l 1,8,-1
 470 990 l 1,9,-1
 470 190 l 2,10,11
 470 57 470 57 610 10 c 1,12,-1
 610 0 l 1,13,-1
 170 0 l 1,0,-1
EndSplineSet
Validated: 19457
EndChar

StartChar: u
Encoding: 117 117 87
Width: 1328
GlyphClass: 2
Flags: W
HStem: 0 110<589.751 858> 0 10<1285.18 1298> 1100 0G<458.5 565 858 1158>
VStem: 70 320<335.136 769.431> 858 300<111.978 1100>
LayerCount: 2
Fore
SplineSet
1298 0 m 1,0,-1
 738 0 l 2,1,2
 423 0 423 0 255 148 c 0,3,4
 70 311 70 311 70 550 c 0,5,6
 70 780 70 780 239 943 c 0,7,8
 362 1061 362 1061 555 1120 c 1,9,-1
 565 1120 l 1,10,11
 479 992 479 992 435 852 c 0,12,13
 390 707 390 707 390 550 c 0,14,15
 390 347 390 347 498.5 228.5 c 128,-1,16
 607 110 607 110 758 110 c 2,17,-1
 858 110 l 1,18,-1
 858 1100 l 1,19,-1
 1158 1100 l 1,20,-1
 1158 190 l 2,21,22
 1158 57 1158 57 1298 10 c 1,23,-1
 1298 0 l 1,0,-1
EndSplineSet
Validated: 19457
EndChar

StartChar: v
Encoding: 118 118 88
Width: 1438
GlyphClass: 2
Flags: W
HStem: 0 10<976.649 988> 1090 10<5 16.3511>
VStem: 1048 320<561.74 913.661>
DStem2: 415 1100 169 949 0.395787 -0.918342<0 1074.69>
LayerCount: 2
Fore
SplineSet
988 0 m 1,0,-1
 578 0 l 1,1,-1
 169 949 l 2,2,3
 128 1045 128 1045 5 1090 c 9,4,-1
 5 1100 l 1,5,-1
 415 1100 l 1,6,-1
 824 151 l 2,7,8
 865 55 865 55 988 10 c 9,9,-1
 988 0 l 1,0,-1
834 1100 m 1,10,11
 1368 1100 1368 1100 1368 765 c 0,12,13
 1368 447 1368 447 930 105 c 1,14,-1
 924 113 l 1,15,16
 1048 410 1048 410 1048 693 c 0,17,18
 1048 978 1048 978 834 1090 c 1,19,-1
 834 1100 l 1,10,11
EndSplineSet
Validated: 19457
EndChar

StartChar: w
Encoding: 119 119 89
Width: 1979
GlyphClass: 2
Flags: W
HStem: 0 10<976.649 988 1517.65 1529> 1090 10<5 16.3511 546 557.351>
VStem: 1589 320<561.74 913.661>
DStem2: 415 1100 169 949 0.395787 -0.918342<0 1074.69> 956 1100 710 949 0.395787 -0.918342<0 1074.69>
LayerCount: 2
Fore
SplineSet
988 0 m 1,0,-1
 578 0 l 1,1,-1
 169 949 l 2,2,3
 128 1045 128 1045 5 1090 c 9,4,-1
 5 1100 l 1,5,-1
 415 1100 l 1,6,-1
 824 151 l 2,7,8
 865 55 865 55 988 10 c 9,9,-1
 988 0 l 1,0,-1
1529 0 m 1,10,-1
 1119 0 l 1,11,-1
 710 949 l 2,12,13
 669 1045 669 1045 546 1090 c 9,14,-1
 546 1100 l 1,15,-1
 956 1100 l 1,16,-1
 1365 151 l 2,17,18
 1406 55 1406 55 1529 10 c 9,19,-1
 1529 0 l 1,10,-1
1375 1100 m 1,20,21
 1909 1100 1909 1100 1909 765 c 0,22,23
 1909 447 1909 447 1471 105 c 1,24,-1
 1465 113 l 1,25,26
 1589 410 1589 410 1589 693 c 0,27,28
 1589 978 1589 978 1375 1090 c 1,29,-1
 1375 1100 l 1,20,21
EndSplineSet
Validated: 19457
EndChar

StartChar: x
Encoding: 120 120 90
Width: 1308
GlyphClass: 2
Flags: W
HStem: 0 21G<17 231.994 846.933 1208> 1080 20G<5 444.145 766 982>
VStem: 17 189<0 189> 867 331<0 331> 905 293<753.017 987.125>
DStem2: 17 0 206 0 0.792301 0.61013<149.745 685.986> 430 1100 193 951 0.577441 -0.816433<0 631.496 747.168 1146.95>
LayerCount: 2
Fore
SplineSet
766 1100 m 1,0,1
 1198 1100 1198 1100 1198 872 c 0,2,3
 1198 712 1198 712 873 526 c 1,4,-1
 867 534 l 1,5,6
 905 670 905 670 905 796 c 0,7,8
 905 995 905 995 766 1090 c 1,9,-1
 766 1100 l 1,0,1
17 0 m 1,10,-1
 565 422 l 1,11,-1
 193 951 l 2,12,13
 130 1041 130 1041 5 1090 c 1,14,-1
 5 1100 l 1,15,-1
 430 1100 l 1,16,-1
 1208 0 l 1,17,-1
 861 0 l 1,18,-1
 631 327 l 1,19,-1
 206 0 l 1,20,-1
 17 0 l 1,10,-1
EndSplineSet
Validated: 19457
EndChar

StartChar: y
Encoding: 121 121 91
Width: 1328
GlyphClass: 2
Flags: W
HStem: -410 10<428 438.127> 0 110<589.751 833> 1100 0G<458.5 565 858 1158>
VStem: 70 320<335.136 769.431> 858 300<117.344 1100>
LayerCount: 2
Fore
SplineSet
738 0 m 2,0,1
 423 0 423 0 255 148 c 0,2,3
 70 311 70 311 70 550 c 0,4,5
 70 780 70 780 239 943 c 0,6,7
 362 1061 362 1061 555 1120 c 1,8,-1
 565 1120 l 1,9,10
 479 992 479 992 435 852 c 0,11,12
 390 707 390 707 390 550 c 0,13,14
 390 347 390 347 498.5 228.5 c 128,-1,15
 607 110 607 110 758 110 c 2,16,-1
 854 110 l 1,17,18
 858 149 858 149 858 190 c 2,19,-1
 858 1100 l 1,20,-1
 1158 1100 l 1,21,-1
 1158 190 l 2,22,23
 1158 -410 1158 -410 428 -410 c 1,24,-1
 428 -400 l 1,25,26
 754 -274 754 -274 833 0 c 1,27,-1
 738 0 l 2,0,1
EndSplineSet
Validated: 19457
EndChar

StartChar: z
Encoding: 122 122 92
Width: 1190
GlyphClass: 2
Flags: W
HStem: 0 130<50 1010.16> 990 110<197.586 655.797>
VStem: 130 10<850 862.817> 730 340<635.16 926.801> 1060 10<239.014 250>
LayerCount: 2
Fore
SplineSet
50 0 m 1,0,-1
 50 130 l 1,1,-1
 880 130 l 2,2,3
 1013 130 1013 130 1060 250 c 1,4,-1
 1070 250 l 1,5,-1
 1070 0 l 1,6,-1
 50 0 l 1,0,-1
130 1100 m 1,7,-1
 529 1100 l 2,8,9
 1070 1100 1070 1100 1070 779 c 0,10,11
 1070 412 1070 412 161 173 c 1,12,-1
 156 182 l 1,13,14
 730 503 730 503 730 790 c 0,15,16
 730 990 730 990 509 990 c 2,17,-1
 320 990 l 2,18,19
 187 990 187 990 140 850 c 1,20,-1
 130 850 l 1,21,-1
 130 1100 l 1,7,-1
EndSplineSet
Validated: 19457
EndChar

StartChar: braceleft
Encoding: 123 123 93
Width: 878
GlyphClass: 2
Flags: W
HStem: -250 120<670.168 858> 695 120<20 206> 1640 120<670.168 858>
VStem: 206 315<14.375 695 815 1495.62>
CounterMasks: 1 e0
LayerCount: 2
Fore
SplineSet
858 -250 m 1,0,1
 206 -250 206 -250 206 220 c 2,2,-1
 206 695 l 1,3,-1
 20 695 l 1,4,-1
 20 815 l 1,5,-1
 206 815 l 1,6,-1
 206 1290 l 2,7,8
 206 1760 206 1760 858 1760 c 1,9,-1
 858 1640 l 1,10,11
 521 1640 521 1640 521 1290 c 2,12,-1
 521 220 l 2,13,14
 521 -130 521 -130 858 -130 c 1,15,-1
 858 -250 l 1,0,1
EndSplineSet
Validated: 19457
EndChar

StartChar: bar
Encoding: 124 124 94
Width: 710
GlyphClass: 2
Flags: W
VStem: 220 270<-180 1690>
LayerCount: 2
Fore
SplineSet
220 -180 m 1,0,-1
 220 1690 l 1,1,-1
 490 1690 l 1,2,-1
 490 -180 l 1,3,-1
 220 -180 l 1,0,-1
EndSplineSet
Validated: 19457
EndChar

StartChar: braceright
Encoding: 125 125 95
Width: 878
GlyphClass: 2
Flags: W
HStem: -250 120<20 207.832> 695 120<672 858> 1640 120<20 207.832>
VStem: 357 315<14.375 695 815 1495.62>
CounterMasks: 1 e0
LayerCount: 2
Fore
SplineSet
20 -250 m 1,0,1
 20 -130 l 1,2,3
 357 -130 357 -130 357 220 c 2,4,-1
 357 1290 l 2,5,6
 357 1640 357 1640 20 1640 c 1,7,-1
 20 1760 l 1,8,9
 672 1760 672 1760 672 1290 c 2,10,-1
 672 815 l 1,11,-1
 858 815 l 1,12,-1
 858 695 l 1,13,-1
 672 695 l 1,14,-1
 672 220 l 2,15,16
 672 -250 672 -250 20 -250 c 1,0,1
EndSplineSet
Validated: 19457
EndChar

StartChar: asciitilde
Encoding: 126 126 96
Width: 1223
GlyphClass: 2
Flags: W
HStem: 563 211<714.15 926.712> 726 211<296.803 510.975>
VStem: 120 121<563 668.536> 982 121<831.816 938>
DStem2: 538 908 460 707 0.892036 -0.451965<-55.7558 330.625>
LayerCount: 2
Fore
SplineSet
982 938 m 1,0,-1
 1103 938 l 1,1,2
 1049 563 1049 563 823 563 c 0,3,4
 744 563 744 563 679 596 c 2,5,-1
 460 707 l 2,6,7
 423 726 423 726 382 726 c 0,8,9
 283 726 283 726 241 563 c 1,10,-1
 120 563 l 1,11,12
 174 937 174 937 412 937 c 0,13,14
 481 937 481 937 538 908 c 2,15,-1
 763 794 l 2,16,17
 802 774 802 774 842 774 c 0,18,19
 940 774 940 774 982 938 c 1,0,-1
EndSplineSet
Validated: 19457
EndChar

StartChar: exclamdown
Encoding: 161 161 98
Width: 704
VWidth: 1638
GlyphClass: 2
Flags: W
HStem: 750 370<233.14 470.86>
VStem: 170 364<-367.422 -0.515625 812.578 1057.42> 344 16<599.706 674>
LayerCount: 2
Fore
SplineSet
352 1120 m 128,-1,1
 428 1120 428 1120 481 1066 c 128,-1,2
 534 1012 534 1012 534 935 c 128,-1,3
 534 858 534 858 481 804 c 128,-1,4
 428 750 428 750 352 750 c 128,-1,5
 276 750 276 750 223 804 c 128,-1,6
 170 858 170 858 170 935 c 128,-1,7
 170 1012 170 1012 223 1066 c 128,-1,0
 276 1120 276 1120 352 1120 c 128,-1,1
352 -430 m 128,-1,9
 276 -430 276 -430 223 -376 c 128,-1,10
 170 -322 170 -322 170 -245 c 0,11,12
 170 -228 170 -228 174 -207 c 2,13,-1
 344 674 l 1,14,-1
 360 674 l 1,15,-1
 530 -207 l 2,16,17
 534 -228 534 -228 534 -245 c 0,18,19
 534 -322 534 -322 481 -376 c 128,-1,8
 428 -430 428 -430 352 -430 c 128,-1,9
EndSplineSet
Validated: 19457
EndChar

StartChar: cent
Encoding: 162 162 99
Width: 1248
GlyphClass: 2
Flags: W
HStem: -18 118<741 922.681>
VStem: 70 320<314.214 787.584> 631 110<-100 -15.6736 114 1005 1119 1200>
LayerCount: 2
Fore
SplineSet
631 -19 m 1,0,1
 352 -4 352 -4 202 172 c 0,2,3
 70 327 70 327 70 550 c 0,4,5
 70 776 70 776 202 928 c 0,6,7
 358 1107 358 1107 631 1119 c 1,8,-1
 631 1200 l 1,9,-1
 741 1200 l 1,10,-1
 741 1117 l 1,11,12
 991 1095 991 1095 1146 910 c 1,13,-1
 933 708 l 1,14,-1
 924 715 l 1,15,16
 928 737 928 737 928 771 c 0,17,18
 928 855 928 855 875 924 c 0,19,20
 823 991 823 991 741 1007 c 1,21,-1
 741 100 l 1,22,23
 981 100 981 100 1170 240 c 1,24,-1
 1178 234 l 1,25,26
 1013 4 1013 4 741 -18 c 1,27,-1
 741 -100 l 1,28,-1
 631 -100 l 1,29,-1
 631 -19 l 1,0,1
631 114 m 1,30,-1
 631 1005 l 1,31,32
 562 991 562 991 513 942 c 0,33,34
 390 819 390 819 390 550 c 0,35,36
 390 339 390 339 474 222 c 0,37,38
 533 141 533 141 631 114 c 1,30,-1
EndSplineSet
Validated: 19457
EndChar

StartChar: sterling
Encoding: 163 163 100
Width: 1323
GlyphClass: 2
Flags: W
HStem: 0 120<70 170 490 1185.41> 669 120<490 962> 1118 21G<1024 1054.09> 1421 109<643.841 931.012>
VStem: 170 320<120 669 789 1192.54> 1243 10<247.183 260>
LayerCount: 2
Fore
SplineSet
70 0 m 1,0,-1
 70 120 l 1,1,-1
 170 120 l 1,2,-1
 170 956 l 2,3,4
 170 1183 170 1183 302 1337 c 0,5,6
 467 1530 467 1530 771 1530 c 0,7,8
 1070 1530 1070 1530 1246 1320 c 1,9,-1
 1033 1118 l 1,10,-1
 1024 1125 l 1,11,12
 1028 1147 1028 1147 1028 1181 c 0,13,14
 1028 1265 1028 1265 975 1334 c 0,15,16
 908 1421 908 1421 781 1421 c 0,17,18
 660 1421 660 1421 573 1308 c 0,19,20
 490 1199 490 1199 490 958 c 2,21,-1
 490 789 l 1,22,-1
 962 789 l 1,23,-1
 962 669 l 1,24,-1
 490 669 l 1,25,-1
 490 120 l 1,26,-1
 1063 120 l 2,27,28
 1196 120 1196 120 1243 260 c 1,29,-1
 1253 260 l 1,30,-1
 1253 0 l 1,31,-1
 70 0 l 1,0,-1
EndSplineSet
Validated: 19457
EndChar

StartChar: currency
Encoding: 164 164 101
Width: 1660
GlyphClass: 2
Flags: W
HStem: 190 109<711.637 966.935> 1221 109<710.524 965.333>
VStem: 240 320<524.96 997.989> 1116 319<521.504 996.113>
DStem2: 347 1415 170 1237 0.703097 -0.711094<2.12652 237.429 1393.29 1625.66> 170 258 346 81 0.703101 0.71109<0 248.09 1404.3 1624.96>
LayerCount: 2
Fore
SplineSet
837.5 299 m 128,-1,1
 959 299 959 299 1038 425 c 0,2,3
 1116 550 1116 550 1116 760 c 0,4,5
 1116 969 1116 969 1042 1089 c 0,6,7
 960 1221 960 1221 838 1221 c 0,8,9
 717 1221 717 1221 638 1095 c 0,10,11
 560 968 560 968 560 760 c 0,12,13
 560 551 560 551 634 431 c 0,14,0
 716 299 716 299 837.5 299 c 128,-1,1
838 1330 m 0,15,16
 1024 1330 1024 1330 1158 1257 c 1,17,-1
 1314 1415 l 1,18,-1
 1490 1238 l 1,19,-1
 1342 1088 l 1,20,21
 1435 949 1435 949 1435 760 c 0,22,23
 1435 559 1435 559 1333 418 c 1,24,-1
 1490 259 l 1,25,-1
 1313 81 l 1,26,-1
 1141 255 l 1,27,28
 1012 190 1012 190 838 190 c 0,29,30
 655 190 655 190 523 260 c 1,31,-1
 346 81 l 1,32,-1
 170 258 l 1,33,-1
 338 427 l 1,34,35
 240 570 240 570 240 760 c 0,36,37
 240 942 240 942 327 1078 c 1,38,-1
 170 1237 l 1,39,-1
 347 1415 l 1,40,-1
 508 1252 l 1,41,42
 645 1330 645 1330 838 1330 c 0,15,16
EndSplineSet
Validated: 19457
EndChar

StartChar: yen
Encoding: 165 165 102
Width: 1567
GlyphClass: 2
Flags: W
HStem: 0 21G<660 980> 219 120<385 660 980 1256> 435 120<385 632 980 1256> 1500 10<5 17.5654>
VStem: 660 320<0 219 339 435> 1167 330<961.707 1341.83>
DStem2: 459 1510 193 1361 0.474649 -0.880175<0 922.681>
LayerCount: 2
Fore
SplineSet
660 0 m 1,0,-1
 660 219 l 1,1,-1
 385 219 l 1,2,-1
 385 339 l 1,3,-1
 660 339 l 1,4,-1
 660 435 l 1,5,-1
 385 435 l 1,6,-1
 385 555 l 1,7,-1
 632 555 l 1,8,-1
 193 1361 l 2,9,10
 141 1457 141 1457 5 1500 c 1,11,-1
 5 1510 l 1,12,-1
 459 1510 l 1,13,-1
 974 555 l 1,14,-1
 1256 555 l 1,15,-1
 1256 435 l 1,16,-1
 980 435 l 1,17,-1
 980 339 l 1,18,-1
 1256 339 l 1,19,-1
 1256 219 l 1,20,-1
 980 219 l 1,21,-1
 980 0 l 1,22,-1
 660 0 l 1,0,-1
998 1510 m 1,23,24
 1497 1510 1497 1510 1497 1170 c 0,25,26
 1497 820 1497 820 1047 576 c 1,27,-1
 1041 584 l 1,28,29
 1167 816 1167 816 1167 1101 c 0,30,31
 1167 1383 1167 1383 998 1500 c 1,32,-1
 998 1510 l 1,23,24
EndSplineSet
Validated: 3073
EndChar

StartChar: brokenbar
Encoding: 166 166 103
Width: 710
GlyphClass: 2
Flags: W
VStem: 220 270<-180 647 862 1690>
LayerCount: 2
Fore
SplineSet
220 -180 m 1,0,-1
 220 647 l 1,1,-1
 490 647 l 1,2,-1
 490 -180 l 1,3,-1
 220 -180 l 1,0,-1
220 1690 m 1,4,-1
 490 1690 l 1,5,-1
 490 862 l 1,6,-1
 220 862 l 1,7,-1
 220 1690 l 1,4,-1
EndSplineSet
Validated: 19457
EndChar

StartChar: section
Encoding: 167 167 104
Width: 1164
GlyphClass: 2
Flags: W
HStem: -18 109<458.02 636.945> 1419 109<527.055 705.98>
VStem: 120 275<688.681 895.522> 258 241<1147 1380.61> 665 241<129.388 363> 769 275<614.478 821.319>
DStem2: 533 622 339 422 0.900552 -0.434749<-153.06 288.625> 622 1186 465 967 0.900552 -0.434749<-150.965 290.72>
LayerCount: 2
Fore
SplineSet
558 -18 m 0,0,1
 448 -18 448 -18 370 25 c 0,2,3
 291 69 291 69 246 157 c 1,4,-1
 432 332 l 1,5,-1
 440 325 l 1,6,7
 426 277 426 277 426 237 c 0,8,9
 426 187 426 187 448 149 c 0,10,11
 482 91 482 91 554 91 c 0,12,13
 602 91 602 91 631 118 c 0,14,15
 665 148 665 148 665 198 c 0,16,17
 665 265 665 265 542 324 c 2,18,-1
 339 422 l 2,19,20
 120 528 120 528 120 724 c 0,21,22
 120 895 120 895 269 1014 c 1,23,-1
 430 909 l 1,24,25
 395 862 395 862 395 804 c 0,26,27
 395 688 395 688 533 622 c 2,28,-1
 699 543 l 2,29,30
 906 444 906 444 906 282 c 0,31,32
 906 151 906 151 803 66 c 0,33,34
 702 -18 702 -18 558 -18 c 0,0,1
606 1528 m 0,35,36
 716 1528 716 1528 794 1485 c 0,37,38
 873 1441 873 1441 918 1353 c 1,39,-1
 732 1178 l 1,40,-1
 724 1185 l 1,41,42
 738 1233 738 1233 738 1273 c 0,43,44
 738 1323 738 1323 716 1361 c 0,45,46
 682 1419 682 1419 610 1419 c 0,47,48
 562 1419 562 1419 533 1392 c 0,49,50
 499 1362 499 1362 499 1312 c 0,51,52
 499 1245 499 1245 622 1186 c 2,53,-1
 825 1088 l 2,54,55
 1044 982 1044 982 1044 786 c 0,56,57
 1044 615 1044 615 895 496 c 1,58,-1
 734 601 l 1,59,60
 769 648 769 648 769 706 c 0,61,62
 769 822 769 822 631 888 c 2,63,-1
 465 967 l 2,64,65
 258 1066 258 1066 258 1228 c 0,66,67
 258 1359 258 1359 361 1444 c 0,68,69
 462 1528 462 1528 606 1528 c 0,35,36
EndSplineSet
Validated: 19457
EndChar

StartChar: dieresis
Encoding: 168 168 105
Width: 641
GlyphClass: 2
Flags: W
HStem: 1205 264<59.1914 240.809 400.191 581.809>
VStem: 20 260<1244.71 1429.29> 361 260<1244.71 1429.29>
LayerCount: 2
Fore
SplineSet
491 1469 m 128,-1,1
 545 1469 545 1469 583 1430.5 c 128,-1,2
 621 1392 621 1392 621 1337 c 128,-1,3
 621 1282 621 1282 583 1243.5 c 128,-1,4
 545 1205 545 1205 491 1205 c 128,-1,5
 437 1205 437 1205 399 1243.5 c 128,-1,6
 361 1282 361 1282 361 1337 c 128,-1,7
 361 1392 361 1392 399 1430.5 c 128,-1,0
 437 1469 437 1469 491 1469 c 128,-1,1
150 1469 m 128,-1,9
 204 1469 204 1469 242 1430.5 c 128,-1,10
 280 1392 280 1392 280 1337 c 128,-1,11
 280 1282 280 1282 242 1243.5 c 128,-1,12
 204 1205 204 1205 150 1205 c 128,-1,13
 96 1205 96 1205 58 1243.5 c 128,-1,14
 20 1282 20 1282 20 1337 c 128,-1,15
 20 1392 20 1392 58 1430.5 c 128,-1,8
 96 1469 96 1469 150 1469 c 128,-1,9
EndSplineSet
Validated: 19457
EndChar

StartChar: copyright
Encoding: 169 169 106
Width: 1341
GlyphClass: 2
Flags: W
HStem: 386 55<504.73 827.893> 563 75<606.934 883.079> 1276 70<581.884 786.54> 1475 55<512.972 828.032>
VStem: 120 60<779.952 1138.53> 258 212<775 1150.45> 1160 61<771.255 1146.12>
LayerCount: 2
Fore
SplineSet
691 1346 m 128,-1,1
 908 1346 908 1346 1024 1209 c 1,2,-1
 870 1062 l 1,3,-1
 862 1070 l 1,4,5
 862 1147 862 1147 818 1208 c 0,6,7
 769 1276 769 1276 686 1276 c 0,8,9
 595 1276 595 1276 538 1198 c 0,10,11
 470 1106 470 1106 470 953 c 0,12,13
 470 826 470 826 542 731 c 0,14,15
 613 638 613 638 758 638 c 0,16,17
 924 638 924 638 1048 751 c 1,18,-1
 1056 744 l 1,19,20
 934 563 934 563 686 563 c 0,21,22
 469 563 469 563 354 689 c 0,23,24
 258 794 258 794 258 957 c 0,25,26
 258 1122 258 1122 354 1222 c 0,27,0
 474 1346 474 1346 691 1346 c 128,-1,1
671 1530 m 0,28,29
 913 1530 913 1530 1069 1357 c 0,30,31
 1221 1188 1221 1188 1221 953 c 0,32,33
 1221 701 1221 701 1060 549 c 0,34,35
 889 386 889 386 669 386 c 0,36,37
 446 386 446 386 281 549 c 0,38,39
 120 708 120 708 120 953 c 0,40,41
 120 1197 120 1197 278 1362 c 0,42,43
 439 1530 439 1530 671 1530 c 0,28,29
669 1475 m 0,44,45
 473 1475 473 1475 327 1330 c 0,46,47
 180 1184 180 1184 180 953 c 0,48,49
 180 751 180 751 324 591 c 0,50,51
 459 441 459 441 671 441 c 0,52,53
 868 441 868 441 1017 591 c 0,54,55
 1160 736 1160 736 1160 953 c 0,56,57
 1160 1188 1160 1188 1019 1327 c 0,58,59
 869 1475 869 1475 669 1475 c 0,44,45
EndSplineSet
Validated: 19457
EndChar

StartChar: ordfeminine
Encoding: 170 170 107
Width: 694
GlyphClass: 2
Flags: W
HStem: 775 141<20 674> 981 10<661.49 674> 1477 65<299.425 414>
VStem: 20 201<1110.56 1409.84> 414 190<1002.48 1477>
LayerCount: 2
Fore
SplineSet
604 1542 m 1,0,-1
 604 1081 l 2,1,2
 604 1015 604 1015 674 991 c 1,3,-1
 674 981 l 1,4,-1
 414 981 l 1,5,-1
 414 1477 l 1,6,-1
 384 1477 l 2,7,8
 325 1477 325 1477 277 1424 c 0,9,10
 221 1362 221 1362 221 1262 c 0,11,12
 221 1167 221 1167 264 1099 c 0,13,14
 307 1032 307 1032 390 991 c 1,15,-1
 390 981 l 1,16,17
 208 983 208 983 112 1060 c 0,18,19
 20 1134 20 1134 20 1260 c 0,20,21
 20 1384 20 1384 114 1464 c 0,22,23
 206 1542 206 1542 374 1542 c 2,24,-1
 604 1542 l 1,0,-1
20 916 m 1,25,-1
 674 916 l 1,26,-1
 674 775 l 1,27,-1
 20 775 l 1,28,-1
 20 916 l 1,25,-1
EndSplineSet
Validated: 19457
EndChar

StartChar: guillemotleft
Encoding: 171 171 108
Width: 1327
GlyphClass: 2
Flags: W
DStem2: 360 815 120 755 0.665725 -0.746197<0 555.163> 120 755 360 815 0.666452 0.745548<204.681 674.302> 786 815 546 755 0.665725 -0.746197<0 555.163> 546 755 786 815 0.666452 0.745548<204.681 674.302>
LayerCount: 2
Fore
SplineSet
1001 1264 m 1,0,-1
 1098 1166 l 1,1,-1
 786 815 l 1,2,-1
 1157 402 l 1,3,-1
 1001 245 l 1,4,-1
 546 755 l 1,5,-1
 1001 1264 l 1,0,-1
575 1264 m 1,6,-1
 672 1166 l 1,7,-1
 360 815 l 1,8,-1
 731 402 l 1,9,-1
 575 245 l 1,10,-1
 120 755 l 1,11,-1
 575 1264 l 1,6,-1
EndSplineSet
Validated: 19457
EndChar

StartChar: logicalnot
Encoding: 172 172 109
Width: 1192
GlyphClass: 2
Flags: W
HStem: 650 210<120 933>
VStem: 933 139<400 650>
LayerCount: 2
Fore
SplineSet
120 860 m 1,0,-1
 1072 860 l 1,1,-1
 1072 400 l 1,2,-1
 933 400 l 1,3,-1
 933 650 l 1,4,-1
 120 650 l 1,5,-1
 120 860 l 1,0,-1
EndSplineSet
Validated: 19457
EndChar

StartChar: uni00AD
Encoding: 173 173 110
Width: 1192
GlyphClass: 2
Flags: W
HStem: 650 210<120 1072>
LayerCount: 2
Fore
SplineSet
120 860 m 1,0,-1
 1072 860 l 1,1,-1
 1072 650 l 1,2,-1
 120 650 l 1,3,-1
 120 860 l 1,0,-1
EndSplineSet
Validated: 19457
EndChar

StartChar: registered
Encoding: 174 174 111
Width: 1341
GlyphClass: 2
Flags: W
HStem: 386 55<504.73 826.752> 1270 71<577 699.788> 1475 55<513.266 828.032>
VStem: 120 60<779.952 1140.05> 377 200<576 1268.94> 779 210<890.557 1201.43> 1160 61<771.567 1146.12>
LayerCount: 2
Fore
SplineSet
671 1530 m 0,0,1
 913 1530 913 1530 1069 1357 c 0,2,3
 1221 1188 1221 1188 1221 953 c 0,4,5
 1221 701 1221 701 1060 549 c 0,6,7
 889 386 889 386 669 386 c 0,8,9
 446 386 446 386 281 549 c 0,10,11
 120 708 120 708 120 953 c 0,12,13
 120 1197 120 1197 278 1362 c 0,14,15
 439 1530 439 1530 671 1530 c 0,0,1
1044 620 m 1,16,17
 1160 757 1160 757 1160 953 c 0,18,19
 1160 1188 1160 1188 1019 1327 c 0,20,21
 869 1475 869 1475 669 1475 c 0,22,23
 481 1475 481 1475 338 1341 c 1,24,-1
 645 1341 l 2,25,26
 811 1341 811 1341 900 1259 c 128,-1,27
 989 1177 989 1177 989 1062 c 0,28,29
 989 891 989 891 864 811 c 1,30,-1
 1044 620 l 1,16,17
322 1325 m 1,31,32
 180 1180 180 1180 180 953 c 0,33,34
 180 751 180 751 324 591 c 0,35,36
 459 441 459 441 671 441 c 0,37,38
 858 441 858 441 1002 576 c 1,39,-1
 839 576 l 1,40,-1
 671 752 l 1,41,42
 641 750 641 750 615 750 c 2,43,-1
 595 750 l 1,44,-1
 595 761 l 1,45,46
 677 802 677 802 728 876 c 128,-1,47
 779 950 779 950 779 1049 c 128,-1,48
 779 1148 779 1148 729 1209 c 128,-1,49
 679 1270 679 1270 605 1270 c 2,50,-1
 577 1270 l 1,51,-1
 577 576 l 1,52,-1
 377 576 l 1,53,-1
 377 1242 l 2,54,55
 377 1300 377 1300 322 1325 c 1,31,32
EndSplineSet
Validated: 19457
EndChar

StartChar: macron
Encoding: 175 175 112
Width: 658
GlyphClass: 2
Flags: W
HStem: 1270 141<20 638>
VStem: 20 618<1270 1411>
LayerCount: 2
Fore
SplineSet
20 1411 m 1,0,-1
 638 1411 l 1,1,-1
 638 1270 l 1,2,-1
 20 1270 l 1,3,-1
 20 1411 l 1,0,-1
EndSplineSet
Validated: 19457
EndChar

StartChar: degree
Encoding: 176 176 113
Width: 671
GlyphClass: 2
Flags: W
HStem: 978 60<277.41 393.766> 1490 60<276.386 393.732>
VStem: 20 214<1113.03 1418.46> 435 216<1109.18 1417.7>
LayerCount: 2
Fore
SplineSet
335 1490 m 128,-1,1
 287 1490 287 1490 259 1433 c 0,2,3
 234 1384 234 1384 234 1276 c 0,4,5
 234 1150 234 1150 260 1095 c 0,6,7
 287 1038 287 1038 336 1038 c 0,8,9
 386 1038 386 1038 412 1095 c 0,10,11
 435 1146 435 1146 435 1264 c 0,12,13
 435 1384 435 1384 411 1433 c 0,14,0
 383 1490 383 1490 335 1490 c 128,-1,1
337 1550 m 0,15,16
 483 1550 483 1550 568 1464 c 0,17,18
 651 1381 651 1381 651 1265 c 0,19,20
 651 1146 651 1146 572 1068 c 0,21,22
 483 978 483 978 334 978 c 0,23,24
 190 978 190 978 104 1064 c 0,25,26
 20 1149 20 1149 20 1264 c 0,27,28
 20 1383 20 1383 100 1460 c 0,29,30
 193 1550 193 1550 337 1550 c 0,15,16
EndSplineSet
Validated: 19457
EndChar

StartChar: plusminus
Encoding: 177 177 114
Width: 1192
GlyphClass: 2
Flags: W
HStem: 160 210<120 1072> 815 210<120 491 701 1072>
VStem: 491 210<444 815 1025 1396>
LayerCount: 2
Fore
SplineSet
120 370 m 1,0,-1
 1072 370 l 1,1,-1
 1072 160 l 1,2,-1
 120 160 l 1,3,-1
 120 370 l 1,0,-1
491 1396 m 1,4,-1
 701 1396 l 1,5,-1
 701 1025 l 1,6,-1
 1072 1025 l 1,7,-1
 1072 815 l 1,8,-1
 701 815 l 1,9,-1
 701 444 l 1,10,-1
 491 444 l 1,11,-1
 491 815 l 1,12,-1
 120 815 l 1,13,-1
 120 1025 l 1,14,-1
 491 1025 l 1,15,-1
 491 1396 l 1,4,-1
EndSplineSet
Validated: 19457
EndChar

StartChar: acute
Encoding: 180 180 115
Width: 427
GlyphClass: 2
Flags: W
HStem: 1150 404
VStem: 20 387
LayerCount: 2
Fore
SplineSet
219 1554 m 1,0,-1
 407 1367 l 1,1,2
 200 1332 200 1332 30 1150 c 1,3,-1
 20 1150 l 1,4,5
 37 1412 37 1412 219 1554 c 1,0,-1
EndSplineSet
Validated: 19457
EndChar

StartChar: uni00B5
Encoding: 181 181 116
Width: 1378
GlyphClass: 2
Flags: W
HStem: -410 10<594.419 600> 0 110<639.751 908> 0 10<1335.18 1348> 1100 0G<508.5 615 908 1208>
VStem: 120 320<324.585 769.374> 120 300<-226.583 72> 908 300<111.978 1100>
LayerCount: 2
Fore
SplineSet
1348 0 m 1,0,-1
 788 0 l 2,1,2
 568 0 568 0 420 72 c 1,3,-1
 420 -39 l 2,4,5
 420 -309 420 -309 600 -400 c 1,6,-1
 600 -410 l 1,7,8
 120 -410 120 -410 120 -39 c 2,9,-1
 120 550 l 2,10,11
 120 780 120 780 289 943 c 0,12,13
 412 1061 412 1061 605 1120 c 1,14,-1
 615 1120 l 1,15,16
 529 992 529 992 485 852 c 0,17,18
 440 707 440 707 440 550 c 0,19,20
 440 347 440 347 548.5 228.5 c 128,-1,21
 657 110 657 110 808 110 c 2,22,-1
 908 110 l 1,23,-1
 908 1100 l 1,24,-1
 1208 1100 l 1,25,-1
 1208 190 l 2,26,27
 1208 57 1208 57 1348 10 c 1,28,-1
 1348 0 l 1,0,-1
EndSplineSet
Validated: 19457
EndChar

StartChar: paragraph
Encoding: 182 182 117
Width: 1172
GlyphClass: 2
Flags: W
HStem: 0 21G<682 795 891 1002> 1426 84<795 891>
VStem: 120 675<916.893 1290.48> 682 113<0 696> 891 111<0 1426>
LayerCount: 2
Fore
SplineSet
1002 0 m 1,0,-1
 891 0 l 1,1,-1
 891 1426 l 1,2,-1
 795 1426 l 1,3,-1
 795 0 l 1,4,-1
 682 0 l 1,5,-1
 682 696 l 1,6,7
 628 687 628 687 576 687 c 0,8,9
 369 687 369 687 238 817 c 0,10,11
 120 935 120 935 120 1103.5 c 128,-1,12
 120 1272 120 1272 238 1391 c 0,13,14
 366 1520 366 1520 576 1520 c 0,15,16
 627 1520 627 1520 686 1510 c 1,17,-1
 1002 1510 l 1,18,-1
 1002 0 l 1,0,-1
EndSplineSet
Validated: 19457
EndChar

StartChar: periodcentered
Encoding: 183 183 118
Width: 404
GlyphClass: 2
Flags: W
HStem: 570 370<83.1396 320.86>
VStem: 20 364<632.578 877.422>
LayerCount: 2
Fore
SplineSet
202 940 m 128,-1,1
 278 940 278 940 331 886 c 128,-1,2
 384 832 384 832 384 755 c 128,-1,3
 384 678 384 678 331 624 c 128,-1,4
 278 570 278 570 202 570 c 128,-1,5
 126 570 126 570 73 624 c 128,-1,6
 20 678 20 678 20 755 c 128,-1,7
 20 832 20 832 73 886 c 128,-1,0
 126 940 126 940 202 940 c 128,-1,1
EndSplineSet
Validated: 19457
EndChar

StartChar: cedilla
Encoding: 184 184 119
Width: 364
GlyphClass: 2
Flags: W
HStem: -430 158<20 130.019> -107 107<28 123.146>
VStem: 28 140<-50.1694 0> 161 183<-251.594 -123.867>
LayerCount: 2
Fore
SplineSet
28 0 m 1,0,-1
 168 0 l 1,1,-1
 168 -39 l 1,2,3
 229 -49 229 -49 272 -81 c 0,4,5
 344 -133 344 -133 344 -229 c 0,6,7
 344 -303 344 -303 291 -354 c 0,8,9
 212 -430 212 -430 20 -430 c 1,10,-1
 20 -272 l 1,11,12
 100 -272 100 -272 131 -248 c 0,13,14
 161 -224 161 -224 161 -187 c 128,-1,15
 161 -150 161 -150 124 -125 c 0,16,17
 97 -107 97 -107 28 -107 c 1,18,-1
 28 0 l 1,0,-1
EndSplineSet
Validated: 19457
EndChar

StartChar: ordmasculine
Encoding: 186 186 120
Width: 677
GlyphClass: 2
Flags: W
HStem: 775 141<20 657> 971 65<270.783 406.474> 1485 65<271.269 407.328>
VStem: 20 196<1100.42 1421.18> 461 196<1097.81 1422.61>
LayerCount: 2
Fore
SplineSet
20 916 m 1,0,-1
 657 916 l 1,1,-1
 657 775 l 1,2,-1
 20 775 l 1,3,-1
 20 916 l 1,0,-1
338.5 1485 m 128,-1,5
 283 1485 283 1485 248 1423 c 0,6,7
 216 1367 216 1367 216 1260 c 0,8,9
 216 1155 216 1155 248 1098 c 0,10,11
 283 1036 283 1036 338.5 1036 c 128,-1,12
 394 1036 394 1036 429 1098 c 0,13,14
 461 1155 461 1155 461 1261 c 0,15,16
 461 1366 461 1366 429 1423 c 0,17,4
 394 1485 394 1485 338.5 1485 c 128,-1,5
337 1550 m 0,18,19
 506 1550 506 1550 592 1451 c 0,20,21
 657 1376 657 1376 657 1260 c 0,22,23
 657 1141 657 1141 592 1070 c 0,24,25
 501 971 501 971 337 971 c 0,26,27
 169 971 169 971 86 1070 c 0,28,29
 20 1150 20 1150 20 1260 c 0,30,31
 20 1375 20 1375 86 1451 c 0,32,33
 172 1550 172 1550 337 1550 c 0,18,19
EndSplineSet
Validated: 19457
EndChar

StartChar: guillemotright
Encoding: 187 187 121
Width: 1327
GlyphClass: 2
Flags: W
DStem2: 326 1265 170 1108 0.665725 -0.746197<13.2999 568.463> 229 344 326 246 0.666452 0.745548<0 469.62> 752 1265 596 1108 0.665725 -0.746197<13.2999 568.463> 655 344 752 246 0.666452 0.745548<0 469.62>
LayerCount: 2
Fore
SplineSet
326 1265 m 1,0,-1
 781 755 l 1,1,-1
 326 246 l 1,2,-1
 229 344 l 1,3,-1
 541 695 l 1,4,-1
 170 1108 l 1,5,-1
 326 1265 l 1,0,-1
752 1265 m 1,6,-1
 1207 755 l 1,7,-1
 752 246 l 1,8,-1
 655 344 l 1,9,-1
 967 695 l 1,10,-1
 596 1108 l 1,11,-1
 752 1265 l 1,6,-1
EndSplineSet
Validated: 19457
EndChar

StartChar: questiondown
Encoding: 191 191 122
Width: 1380
VWidth: 1638
GlyphClass: 2
Flags: W
HStem: -430 120<576.098 856.447> 750 370<608.14 845.86>
VStem: 120 340<-169.588 210.211> 545 364<812.578 1057.42>
LayerCount: 2
Fore
SplineSet
727 1120 m 128,-1,1
 803 1120 803 1120 856 1066 c 128,-1,2
 909 1012 909 1012 909 935 c 128,-1,3
 909 858 909 858 856 804 c 128,-1,4
 803 750 803 750 727 750 c 128,-1,5
 651 750 651 750 598 804 c 128,-1,6
 545 858 545 858 545 935 c 128,-1,7
 545 1012 545 1012 598 1066 c 128,-1,0
 651 1120 651 1120 727 1120 c 128,-1,1
676 -430 m 0,8,9
 424 -430 424 -430 282 -313 c 0,10,11
 120 -180 120 -180 120 22 c 0,12,13
 120 289 120 289 369 430 c 2,14,-1
 501 505 l 2,15,16
 629 578 629 578 723 674 c 1,17,-1
 733 674 l 1,18,19
 758 642 758 642 758 594 c 0,20,21
 758 508 758 508 676 419 c 2,22,-1
 565 299 l 2,23,24
 460 185 460 185 460 9 c 0,25,26
 460 -124 460 -124 527.5 -217 c 128,-1,27
 595 -310 595 -310 707 -310 c 0,28,29
 832 -310 832 -310 899 -223 c 0,30,31
 985 -111 985 -111 985 19 c 0,32,33
 985 87 985 87 971 167 c 1,34,-1
 977 175 l 1,35,-1
 1260 -102 l 1,36,37
 1190 -209 1190 -209 1083 -298 c 0,38,39
 924 -430 924 -430 676 -430 c 0,8,9
EndSplineSet
Validated: 19457
EndChar

StartChar: AE
Encoding: 198 198 123
Width: 2579
GlyphClass: 2
Flags: W
HStem: -20 130<1664.54 2101.54> 0 10<998 1005.6> 695 120<673 1136 1560 2108> 1410 120<1623.21 1987.93> 1500 10<466 477.169>
VStem: 1261 340<227.676 687.66>
DStem2: 5 0 322 0 0.395387 0.918515<125.338 881.926 1012.71 1497.34>
LayerCount: 2
Fore
SplineSet
979 1386 m 1,0,-1
 985 1394 l 1,1,2
 1079 1324 1079 1324 1159 1253 c 1,3,4
 1172 1269 1172 1269 1186 1284 c 0,5,6
 1415 1530 1415 1530 1817 1530 c 0,7,8
 2220 1530 2220 1530 2445 1262 c 1,9,-1
 2180 1010 l 1,10,-1
 2172 1018 l 1,11,12
 2172 1176 2172 1176 2086 1283 c 0,13,14
 1985 1410 1985 1410 1806 1410 c 0,15,16
 1593 1410 1593 1410 1465 1218 c 0,17,18
 1406 1131 1406 1131 1374 1029 c 1,19,20
 1458 923 1458 923 1511 815 c 1,21,-1
 2108 815 l 1,22,-1
 2108 695 l 1,23,-1
 1560 695 l 1,24,25
 1601 569 1601 569 1601 440 c 0,26,27
 1601 315 1601 315 1552 226 c 1,28,29
 1686 110 1686 110 1885 110 c 0,30,31
 2250 110 2250 110 2501 340 c 1,32,-1
 2509 334 l 1,33,34
 2274 -20 2274 -20 1808 -20 c 0,35,36
 1565 -20 1565 -20 1387 72 c 1,37,38
 1242 0 1242 0 998 0 c 1,39,-1
 998 10 l 1,40,41
 1261 133 1261 133 1261 440 c 0,42,43
 1261 895 1261 895 979 1386 c 1,0,-1
5 0 m 1,44,-1
 574 1322 l 2,45,46
 588 1355 588 1355 588 1380 c 0,47,48
 588 1458 588 1458 466 1500 c 1,49,-1
 466 1510 l 1,50,-1
 972 1510 l 1,51,-1
 673 815 l 1,52,-1
 1136 815 l 1,53,-1
 1136 695 l 1,54,-1
 621 695 l 1,55,-1
 322 0 l 1,56,-1
 5 0 l 1,44,-1
EndSplineSet
Validated: 19457
EndChar

StartChar: Eth
Encoding: 208 208 124
Width: 1646
GlyphClass: 2
Flags: W
HStem: 0 10<610 626.12> 694 120<30 170 490 902> 1390 120<490 908.5> 1500 10<30 42.8174>
VStem: 170 320<0 694 814 1388.01> 1236 340<503.779 1035.15>
LayerCount: 2
Fore
SplineSet
170 0 m 1,0,-1
 170 694 l 1,1,-1
 30 694 l 1,2,-1
 30 814 l 1,3,-1
 170 814 l 1,4,-1
 170 1320 l 2,5,6
 170 1453 170 1453 30 1500 c 1,7,-1
 30 1510 l 1,8,-1
 746 1510 l 2,9,10
 1178 1510 1178 1510 1396 1265 c 0,11,12
 1576 1063 1576 1063 1576 755 c 0,13,14
 1576 468 1576 468 1371 255 c 0,15,16
 1128 1 1128 1 610 0 c 1,17,-1
 610 10 l 1,18,19
 920 80 920 80 1093 318 c 0,20,21
 1236 515 1236 515 1236 755 c 0,22,23
 1236 1051 1236 1051 1082 1220.5 c 128,-1,24
 928 1390 928 1390 696 1390 c 2,25,-1
 490 1390 l 1,26,-1
 490 814 l 1,27,-1
 902 814 l 1,28,-1
 902 694 l 1,29,-1
 490 694 l 1,30,-1
 490 0 l 1,31,-1
 170 0 l 1,0,-1
EndSplineSet
Validated: 19457
EndChar

StartChar: multiply
Encoding: 215 215 125
Width: 1162
GlyphClass: 2
Flags: W
HStem: 607 296<433 729>
VStem: 433 296<607 903>
DStem2: 433 755 581 607 0.707107 0.707107<-371.231 0 209.304 580.535> 581 903 433 755 0.707107 -0.707107<-371.231 0 209.304 580.535>
LayerCount: 2
Fore
SplineSet
319 1166 m 1,0,-1
 581 903 l 1,1,-1
 843 1166 l 1,2,-1
 992 1017 l 1,3,-1
 729 755 l 1,4,-1
 992 493 l 1,5,-1
 843 344 l 1,6,-1
 581 607 l 1,7,-1
 319 344 l 1,8,-1
 170 493 l 1,9,-1
 433 755 l 1,10,-1
 170 1017 l 1,11,-1
 319 1166 l 1,0,-1
EndSplineSet
Validated: 19457
EndChar

StartChar: Oslash
Encoding: 216 216 126
Width: 1766
GlyphClass: 2
Flags: W
HStem: -20 120<705.696 1060.02> 1410 120<705.626 1060.05>
VStem: 70 340<472.432 1038.38> 1356 340<471.12 1037.82>
DStem2: 404 45 507 -15 0.500229 0.865893<0 53.537 284.042 1424.75 1655.53 1708.79>
LayerCount: 2
Fore
SplineSet
883 -20 m 0,0,1
 690 -20 690 -20 538 38 c 1,2,-1
 507 -15 l 1,3,-1
 404 45 l 1,4,-1
 430 90 l 1,5,6
 336 145 336 145 261 226 c 0,7,8
 70 435 70 435 70 755 c 0,9,10
 70 1076 70 1076 262 1284 c 0,11,12
 489 1530 489 1530 883 1530 c 0,13,14
 1075 1530 1075 1530 1228 1472 c 1,15,-1
 1259 1525 l 1,16,-1
 1362 1465 l 1,17,-1
 1336 1420 l 1,18,19
 1430 1366 1430 1366 1505 1284 c 0,20,21
 1696 1076 1696 1076 1696 755 c 0,22,23
 1696 432 1696 432 1504 226 c 0,24,25
 1275 -20 1275 -20 883 -20 c 0,0,1
883 100 m 0,26,27
 1084 100 1084 100 1219 289 c 0,28,29
 1356 481 1356 481 1356 755 c 0,30,31
 1356 1028 1356 1028 1220 1219 c 1,32,-1
 630 196 l 1,33,34
 740 100 740 100 883 100 c 0,26,27
546 291 m 1,35,-1
 1136 1314 l 1,36,37
 1026 1410 1026 1410 883 1410 c 0,38,39
 682 1410 682 1410 547 1221 c 0,40,41
 410 1029 410 1029 410 755 c 0,42,43
 410 482 410 482 546 291 c 1,35,-1
EndSplineSet
Validated: 19457
EndChar

StartChar: Thorn
Encoding: 222 222 127
Width: 1384
GlyphClass: 2
Flags: W
HStem: 0 21G<170 490> 1215 120<490 762.636> 1500 10<30 42.8174>
VStem: 170 320<0 1215 1335 1442.41> 975 339<541.307 993.835>
LayerCount: 2
Fore
SplineSet
170 0 m 1,0,-1
 170 1320 l 2,1,2
 170 1453 170 1453 30 1500 c 1,3,-1
 30 1510 l 1,4,-1
 490 1510 l 1,5,-1
 490 1335 l 1,6,-1
 665 1335 l 2,7,8
 959 1335 959 1335 1137 1177 c 0,9,10
 1314 1019 1314 1019 1314 788 c 0,11,12
 1314 553 1314 553 1180 391 c 0,13,14
 999 174 999 174 604 174 c 1,15,-1
 604 184 l 1,16,17
 777 278 777 278 874 417 c 0,18,19
 975 560 975 560 975 756 c 0,20,21
 975 960 975 960 883 1072 c 0,22,23
 766 1215 766 1215 584 1215 c 2,24,-1
 490 1215 l 1,25,-1
 490 0 l 1,26,-1
 170 0 l 1,0,-1
EndSplineSet
Validated: 19457
EndChar

StartChar: germandbls
Encoding: 223 223 128
Width: 1358
GlyphClass: 2
Flags: W
HStem: 0 10<590 595.728> 909 120<567 691.121> 1418 112<504.424 712.205>
VStem: 170 300<0 1349.2> 765 272<1105.64 1370.17> 968 320<318.888 717.81>
LayerCount: 2
Fore
SplineSet
170 0 m 1,0,-1
 170 1173 l 2,1,2
 170 1351 170 1351 311 1453 c 0,3,4
 417 1530 417 1530 613 1530 c 0,5,6
 802 1530 802 1530 920 1446 c 0,7,8
 1037 1362 1037 1362 1037 1245 c 0,9,10
 1037 1147 1037 1147 976 1085 c 128,-1,11
 915 1023 915 1023 829 990 c 1,12,13
 1050 961 1050 961 1169 843 c 0,14,15
 1288 724 1288 724 1288 518 c 0,16,17
 1288 309 1288 309 1128 167 c 0,18,19
 940 0 940 0 590 0 c 1,20,-1
 590 10 l 1,21,22
 774 91 774 91 868 212 c 0,23,24
 968 340 968 340 968 504 c 0,25,26
 968 670 968 670 892 768 c 0,27,28
 782 909 782 909 567 909 c 9,29,-1
 567 1029 l 1,30,31
 654 1029 654 1029 709.5 1092 c 128,-1,32
 765 1155 765 1155 765 1239 c 0,33,34
 765 1330 765 1330 712 1379 c 0,35,36
 671 1418 671 1418 609 1418 c 0,37,38
 560 1418 560 1418 524 1393 c 0,39,40
 470 1356 470 1356 470 1238 c 2,41,-1
 470 0 l 1,42,-1
 170 0 l 1,0,-1
EndSplineSet
Validated: 19457
EndChar

StartChar: ae
Encoding: 230 230 129
Width: 1864
GlyphClass: 2
Flags: W
HStem: -20 120<1177.1 1532.95> 0 10<759.722 770> 495 110<1158 1501> 990 110<591.188 858> 1011 109<1160.14 1448.37>
VStem: 70 320<329.165 770.797> 858 300<131.5 495 605 989.73>
LayerCount: 2
Fore
SplineSet
858 0 m 1,0,-1
 858 990 l 1,1,-1
 758 990 l 2,2,3
 606 990 606 990 503 876 c 0,4,5
 390 750 390 750 390 550 c 0,6,7
 390 349 390 349 501 210 c 0,8,9
 601 85 601 85 770 10 c 1,10,-1
 770 0 l 1,11,12
 440 0 440 0 253 150 c 0,13,14
 70 298 70 298 70 550 c 0,15,16
 70 793 70 793 249 946 c 0,17,18
 428 1100 428 1100 738 1100 c 2,19,-1
 1107 1100 l 1,20,21
 1190 1120 1190 1120 1288 1120 c 0,22,23
 1587 1120 1587 1120 1763 910 c 1,24,-1
 1550 708 l 1,25,-1
 1541 715 l 1,26,27
 1545 737 1545 737 1545 771 c 0,28,29
 1545 855 1545 855 1492 924 c 0,30,31
 1425 1011 1425 1011 1307 1011 c 0,32,33
 1220 1011 1220 1011 1158 966 c 1,34,-1
 1158 605 l 1,35,-1
 1501 605 l 1,36,-1
 1501 495 l 1,37,-1
 1158 495 l 1,38,-1
 1158 156 l 1,39,40
 1240 100 1240 100 1365 100 c 0,41,42
 1598 100 1598 100 1787 240 c 1,43,-1
 1795 234 l 1,44,45
 1613 -20 1613 -20 1299 -20 c 0,46,47
 1197 -20 1197 -20 1111 0 c 1,48,-1
 858 0 l 1,0,-1
EndSplineSet
Validated: 19457
EndChar

StartChar: eth
Encoding: 240 240 130
Width: 1347
GlyphClass: 2
Flags: W
HStem: -20 109<541.362 793.382> 1100 20G<517 668> 1520 10<424 433.102>
VStem: 70 320<314.938 786.296> 957 320<370.433 977.549>
DStem2: 501 1308 579 1230 0.70602 0.708192<0 152.735 324.393 460.158>
LayerCount: 2
Fore
SplineSet
668 -20 m 0,0,1
 364 -20 364 -20 202 172 c 0,2,3
 70 329 70 329 70 550 c 0,4,5
 70 774 70 774 202 928 c 0,6,7
 366 1120 366 1120 668 1120 c 1,8,-1
 668 1110 l 1,9,10
 545 1027 545 1027 467.5 885.5 c 128,-1,11
 390 744 390 744 390 550 c 0,12,13
 390 341 390 341 464 221 c 0,14,15
 546 89 546 89 671.5 89 c 128,-1,16
 797 89 797 89 872 229 c 0,17,18
 957 386 957 386 957 655 c 0,19,20
 957 976 957 976 820 1194 c 0,21,22
 767 1278 767 1278 695 1346 c 1,23,-1
 579 1230 l 1,24,-1
 501 1308 l 1,25,-1
 609 1416 l 1,26,27
 526 1475 526 1475 424 1520 c 1,28,-1
 424 1530 l 1,29,30
 570 1530 570 1530 692 1499 c 1,31,-1
 827 1633 l 1,32,-1
 904 1556 l 1,33,-1
 808 1460 l 1,34,35
 954 1399 954 1399 1060 1283 c 0,36,37
 1277 1049 1277 1049 1277 657 c 0,38,39
 1277 364 1277 364 1133 190 c 0,40,41
 960 -20 960 -20 668 -20 c 0,0,1
EndSplineSet
Validated: 19457
EndChar

StartChar: divide
Encoding: 247 247 131
Width: 1192
GlyphClass: 2
Flags: W
HStem: 130 370<477.14 714.86> 650 210<120 1072> 1010 370<477.14 714.86>
VStem: 414 364<192.578 437.422 1072.58 1317.42>
CounterMasks: 1 e0
LayerCount: 2
Fore
SplineSet
120 860 m 1,0,-1
 1072 860 l 1,1,-1
 1072 650 l 1,2,-1
 120 650 l 1,3,-1
 120 860 l 1,0,-1
596 1380 m 128,-1,5
 672 1380 672 1380 725 1326 c 128,-1,6
 778 1272 778 1272 778 1195 c 128,-1,7
 778 1118 778 1118 725 1064 c 128,-1,8
 672 1010 672 1010 596 1010 c 128,-1,9
 520 1010 520 1010 467 1064 c 128,-1,10
 414 1118 414 1118 414 1195 c 128,-1,11
 414 1272 414 1272 467 1326 c 128,-1,4
 520 1380 520 1380 596 1380 c 128,-1,5
596 130 m 128,-1,13
 520 130 520 130 467 184 c 128,-1,14
 414 238 414 238 414 315 c 128,-1,15
 414 392 414 392 467 446 c 128,-1,16
 520 500 520 500 596 500 c 128,-1,17
 672 500 672 500 725 446 c 128,-1,18
 778 392 778 392 778 315 c 128,-1,19
 778 238 778 238 725 184 c 128,-1,12
 672 130 672 130 596 130 c 128,-1,13
EndSplineSet
Validated: 19457
EndChar

StartChar: oslash
Encoding: 248 248 132
Width: 1335
GlyphClass: 2
Flags: W
HStem: -20 109<539.983 795.101> 1011 109<540.799 795.904>
VStem: 70 320<315.397 784.431> 946 319<311.957 786.537>
DStem2: 294 15 390 -40 0.500278 0.865865<0.40407 62.3465 291.239 1010.68 1237.55 1299.28>
LayerCount: 2
Fore
SplineSet
668 -20 m 0,0,1
 532 -20 532 -20 424 19 c 1,2,-1
 390 -40 l 1,3,-1
 294 15 l 1,4,-1
 324 66 l 1,5,6
 255 108 255 108 202 172 c 0,7,8
 70 329 70 329 70 550 c 0,9,10
 70 774 70 774 202 928 c 0,11,12
 366 1120 366 1120 668 1120 c 0,13,14
 803 1120 803 1120 910 1082 c 1,15,-1
 944 1140 l 1,16,-1
 1040 1085 l 1,17,-1
 1010 1034 l 1,18,19
 1080 991 1080 991 1134 928 c 0,20,21
 1265 775 1265 775 1265 550 c 0,22,23
 1265 323 1265 323 1134 172 c 0,24,25
 968 -20 968 -20 668 -20 c 0,0,1
668 89 m 0,26,27
 790 89 790 89 868 215 c 0,28,29
 946 340 946 340 946 550 c 0,30,31
 946 723 946 723 895 835 c 1,32,-1
 507 163 l 1,33,34
 577 89 577 89 668 89 c 0,26,27
440 267 m 1,35,-1
 827 938 l 1,36,37
 758 1011 758 1011 668 1011 c 0,38,39
 547 1011 547 1011 468 885 c 0,40,41
 390 758 390 758 390 550 c 0,42,43
 390 379 390 379 440 267 c 1,35,-1
EndSplineSet
Validated: 19457
EndChar

StartChar: thorn
Encoding: 254 254 133
Width: 1328
GlyphClass: 2
Flags: W
HStem: -410 21G<170 470> 0 10<558 568.278> 990 110<470 736.812> 1500 10<30 42.8174>
VStem: 170 300<-410 990 1100 1442.41> 938 320<329.165 770.797>
LayerCount: 2
Fore
SplineSet
170 -410 m 1,0,-1
 170 1320 l 2,1,2
 170 1453 170 1453 30 1500 c 1,3,-1
 30 1510 l 1,4,-1
 470 1510 l 1,5,-1
 470 1100 l 1,6,-1
 590 1100 l 2,7,8
 900 1100 900 1100 1079 946 c 0,9,10
 1258 793 1258 793 1258 550 c 0,11,12
 1258 298 1258 298 1075 150 c 0,13,14
 888 0 888 0 558 0 c 1,15,-1
 558 10 l 1,16,17
 727 85 727 85 827 210 c 0,18,19
 938 349 938 349 938 550 c 0,20,21
 938 750 938 750 825 876 c 0,22,23
 722 990 722 990 570 990 c 2,24,-1
 470 990 l 1,25,-1
 470 -410 l 1,26,-1
 170 -410 l 1,0,-1
EndSplineSet
Validated: 19457
EndChar

StartChar: Dcroat
Encoding: 272 272 134
Width: 1646
GlyphClass: 2
Flags: W
HStem: 0 10<610 626.12> 694 120<30 170 490 902> 1390 120<490 908.5> 1500 10<30 42.8174>
VStem: 170 320<0 694 814 1388.01> 1236 340<503.779 1035.15>
LayerCount: 2
Fore
SplineSet
170 0 m 1,0,-1
 170 694 l 1,1,-1
 30 694 l 1,2,-1
 30 814 l 1,3,-1
 170 814 l 1,4,-1
 170 1320 l 2,5,6
 170 1453 170 1453 30 1500 c 1,7,-1
 30 1510 l 1,8,-1
 746 1510 l 2,9,10
 1178 1510 1178 1510 1396 1265 c 0,11,12
 1576 1063 1576 1063 1576 755 c 0,13,14
 1576 468 1576 468 1371 255 c 0,15,16
 1128 1 1128 1 610 0 c 1,17,-1
 610 10 l 1,18,19
 920 80 920 80 1093 318 c 0,20,21
 1236 515 1236 515 1236 755 c 0,22,23
 1236 1051 1236 1051 1082 1220.5 c 128,-1,24
 928 1390 928 1390 696 1390 c 2,25,-1
 490 1390 l 1,26,-1
 490 814 l 1,27,-1
 902 814 l 1,28,-1
 902 694 l 1,29,-1
 490 694 l 1,30,-1
 490 0 l 1,31,-1
 170 0 l 1,0,-1
EndSplineSet
Validated: 19457
EndChar

StartChar: dcroat
Encoding: 273 273 135
Width: 1328
GlyphClass: 2
Flags: W
HStem: 0 110<591.188 858> 0 10<1285.18 1298> 1090 10<759.722 770> 1210 110<526 858 1158 1298> 1500 10<718 730.817>
VStem: 70 320<329.203 770.835> 858 300<111.978 1210 1320 1442.41>
LayerCount: 2
Fore
SplineSet
1298 0 m 1,0,-1
 738 0 l 2,1,2
 428 0 428 0 249 154 c 0,3,4
 70 307 70 307 70 550 c 0,5,6
 70 802 70 802 253 950 c 0,7,8
 440 1100 440 1100 770 1100 c 1,9,-1
 770 1090 l 1,10,11
 601 1015 601 1015 501 890 c 0,12,13
 390 751 390 751 390 550 c 0,14,15
 390 350 390 350 503 224 c 0,16,17
 606 110 606 110 758 110 c 2,18,-1
 858 110 l 1,19,-1
 858 1210 l 1,20,-1
 526 1210 l 1,21,-1
 526 1320 l 1,22,-1
 858 1320 l 1,23,24
 858 1453 858 1453 718 1500 c 1,25,-1
 718 1510 l 1,26,-1
 1158 1510 l 1,27,-1
 1158 1320 l 1,28,-1
 1298 1320 l 1,29,-1
 1298 1210 l 1,30,-1
 1158 1210 l 1,31,-1
 1158 190 l 2,32,33
 1158 57 1158 57 1298 10 c 1,34,-1
 1298 0 l 1,0,-1
EndSplineSet
Validated: 19457
EndChar

StartChar: Hbar
Encoding: 294 294 136
Width: 1612
GlyphClass: 2
Flags: W
HStem: 0 10<1569.18 1582> 695 120<490 1122> 1206 120<30 170 490 1122 1442 1582> 1500 10<30 42.5493>
VStem: 170 320<0 695 815 1206 1326 1441.48> 1122 320<67.5859 695 815 1206 1326 1510>
LayerCount: 2
Fore
SplineSet
170 0 m 1,0,-1
 170 1206 l 1,1,-1
 30 1206 l 1,2,-1
 30 1326 l 1,3,-1
 170 1326 l 1,4,5
 167 1454 167 1454 30 1500 c 1,6,-1
 30 1510 l 1,7,-1
 490 1510 l 1,8,-1
 490 1326 l 1,9,-1
 1122 1326 l 1,10,-1
 1122 1510 l 1,11,-1
 1442 1510 l 1,12,-1
 1442 1326 l 1,13,-1
 1582 1326 l 1,14,-1
 1582 1206 l 1,15,-1
 1442 1206 l 1,16,-1
 1442 190 l 2,17,18
 1442 57 1442 57 1582 10 c 1,19,-1
 1582 0 l 1,20,-1
 1122 0 l 1,21,-1
 1122 695 l 1,22,-1
 490 695 l 1,23,-1
 490 0 l 1,24,-1
 170 0 l 1,0,-1
1122 1206 m 1,25,-1
 490 1206 l 1,26,-1
 490 815 l 1,27,-1
 1122 815 l 1,28,-1
 1122 1206 l 1,25,-1
EndSplineSet
Validated: 19457
EndChar

StartChar: hbar
Encoding: 295 295 137
Width: 1348
GlyphClass: 2
Flags: W
HStem: 0 21G<190 490 783 889.5> 990 110<490 758.249> 1210 110<60 190 490 819> 1500 10<50 62.8174>
VStem: 190 300<0 990 1100 1210 1320 1442.41> 958 320<330.569 764.864>
LayerCount: 2
Fore
SplineSet
190 0 m 1,0,-1
 190 1210 l 1,1,-1
 60 1210 l 1,2,-1
 60 1320 l 1,3,-1
 190 1320 l 1,4,5
 190 1453 190 1453 50 1500 c 1,6,-1
 50 1510 l 1,7,-1
 490 1510 l 1,8,-1
 490 1320 l 1,9,-1
 819 1320 l 1,10,-1
 819 1210 l 1,11,-1
 490 1210 l 1,12,-1
 490 1100 l 1,13,-1
 610 1100 l 2,14,15
 925 1100 925 1100 1093 952 c 0,16,17
 1278 789 1278 789 1278 550 c 0,18,19
 1278 320 1278 320 1109 157 c 0,20,21
 986 39 986 39 793 -20 c 1,22,-1
 783 -20 l 1,23,24
 869 108 869 108 913 248 c 0,25,26
 958 393 958 393 958 550 c 0,27,28
 958 753 958 753 849.5 871.5 c 128,-1,29
 741 990 741 990 590 990 c 2,30,-1
 490 990 l 1,31,-1
 490 0 l 1,32,-1
 190 0 l 1,0,-1
EndSplineSet
Validated: 19457
EndChar

StartChar: IJ
Encoding: 306 306 138
Width: 1840
GlyphClass: 2
Flags: W
HStem: -20 120<930.662 1193.21> 0 21G<170 490> 1390 120<839.586 1350> 1500 10<30 42.8174>
VStem: 170 320<0 1442.41> 772 10<1250 1262.82> 1350 320<321.5 1390>
LayerCount: 2
Fore
SplineSet
1053.5 -20 m 128,-1,1
 763 -20 763 -20 578 223 c 1,2,-1
 837 472 l 1,3,-1
 845 465 l 1,4,5
 836 410 836 410 836 353 c 0,6,7
 836 260 836 260 879 198 c 0,8,9
 947 100 947 100 1073 100 c 0,10,11
 1150 100 1150 100 1222 166 c 0,12,13
 1350 283 1350 283 1350 554 c 2,14,-1
 1350 1390 l 1,15,-1
 962 1390 l 2,16,17
 829 1390 829 1390 782 1250 c 1,18,-1
 772 1250 l 1,19,-1
 772 1510 l 1,20,-1
 1670 1510 l 1,21,-1
 1670 551 l 2,22,23
 1670 315 1670 315 1520 161 c 0,24,0
 1344 -20 1344 -20 1053.5 -20 c 128,-1,1
170 0 m 1,25,-1
 170 1320 l 10,26,27
 170 1453 170 1453 30 1500 c 1,28,-1
 30 1510 l 1,29,-1
 490 1510 l 1,30,-1
 490 0 l 1,31,-1
 170 0 l 1,25,-1
EndSplineSet
Validated: 19457
EndChar

StartChar: ij
Encoding: 307 307 139
Width: 1340
GlyphClass: 2
Flags: W
HStem: -410 10<690 695.581> 0 10<597.183 610> 1090 10<30 42.8174 730 742.817> 1170 370<183.14 420.86 883.14 1120.86>
VStem: 120 364<1232.58 1477.42> 170 300<67.5859 1032.41> 820 364<1232.58 1477.42> 870 300<-226.583 1032.41>
LayerCount: 2
Fore
SplineSet
1002 1540 m 128,-1,1
 1078 1540 1078 1540 1131 1486 c 128,-1,2
 1184 1432 1184 1432 1184 1355 c 128,-1,3
 1184 1278 1184 1278 1131 1224 c 128,-1,4
 1078 1170 1078 1170 1002 1170 c 128,-1,5
 926 1170 926 1170 873 1224 c 128,-1,6
 820 1278 820 1278 820 1355 c 128,-1,7
 820 1432 820 1432 873 1486 c 128,-1,0
 926 1540 926 1540 1002 1540 c 128,-1,1
690 -410 m 1,8,-1
 690 -400 l 1,9,10
 870 -309 870 -309 870 -39 c 2,11,-1
 870 910 l 2,12,13
 870 1043 870 1043 730 1090 c 1,14,-1
 730 1100 l 1,15,-1
 1170 1100 l 1,16,-1
 1170 -39 l 2,17,18
 1170 -410 1170 -410 690 -410 c 1,8,-1
302 1540 m 128,-1,20
 378 1540 378 1540 431 1486 c 128,-1,21
 484 1432 484 1432 484 1355 c 128,-1,22
 484 1278 484 1278 431 1224 c 128,-1,23
 378 1170 378 1170 302 1170 c 128,-1,24
 226 1170 226 1170 173 1224 c 128,-1,25
 120 1278 120 1278 120 1355 c 128,-1,26
 120 1432 120 1432 173 1486 c 128,-1,19
 226 1540 226 1540 302 1540 c 128,-1,20
170 0 m 1,27,-1
 170 910 l 2,28,29
 170 1043 170 1043 30 1090 c 1,30,-1
 30 1100 l 1,31,-1
 470 1100 l 1,32,-1
 470 190 l 10,33,34
 470 57 470 57 610 10 c 1,35,-1
 610 0 l 1,36,-1
 170 0 l 1,27,-1
EndSplineSet
Validated: 19457
EndChar

StartChar: kgreenlandic
Encoding: 312 312 140
Width: 1349
GlyphClass: 2
Flags: W
HStem: 0 21G<170 470 886.14 1344> 184 8<504 508.455> 1090 10<30 42.8174>
VStem: 170 300<0 1032.41> 867 321<584.093 943.605>
LayerCount: 2
Fore
SplineSet
170 0 m 1,0,-1
 170 910 l 2,1,2
 170 1043 170 1043 30 1090 c 1,3,-1
 30 1100 l 1,4,-1
 470 1100 l 1,5,-1
 470 0 l 1,6,-1
 170 0 l 1,0,-1
1344 0 m 1,7,-1
 912 0 l 1,8,-1
 634 215 l 1,9,-1
 509 184 l 1,10,-1
 504 192 l 1,11,12
 647 282 647 282 732 384 c 0,13,14
 867 545 867 545 867 751 c 0,15,16
 867 979 867 979 708 1090 c 1,17,-1
 708 1100 l 1,18,19
 1188 1100 1188 1100 1188 782 c 0,20,21
 1188 505 1188 505 904 342 c 1,22,-1
 1344 0 l 1,7,-1
EndSplineSet
Validated: 19457
EndChar

StartChar: Lslash
Encoding: 321 321 141
Width: 1078
GlyphClass: 2
Flags: W
HStem: 0 120<490 1000.41> 1500 10<30 42.8174>
VStem: 170 320<120 518 658 703 842 1442.41> 1058 10<247.183 260>
DStem2: 68 599 128 494 0.866283 0.499553<0 47.8971 486.963 850.285>
LayerCount: 2
Fore
SplineSet
170 0 m 1,0,-1
 170 518 l 1,1,-1
 128 494 l 1,2,-1
 68 599 l 1,3,-1
 170 658 l 1,4,-1
 170 1320 l 2,5,6
 170 1453 170 1453 30 1500 c 1,7,-1
 30 1510 l 1,8,-1
 490 1510 l 1,9,-1
 490 842 l 1,10,-1
 805 1024 l 1,11,-1
 865 919 l 1,12,-1
 490 703 l 1,13,-1
 490 120 l 1,14,-1
 878 120 l 2,15,16
 1011 120 1011 120 1058 260 c 1,17,-1
 1068 260 l 1,18,-1
 1068 0 l 1,19,-1
 170 0 l 1,0,-1
EndSplineSet
Validated: 19457
EndChar

StartChar: lslash
Encoding: 322 322 142
Width: 796
GlyphClass: 2
Flags: W
HStem: 0 10<675.183 688> 1500 10<108 120.817>
VStem: 248 300<67.5859 603 732 776 905 1442.41>
DStem2: 20 600 75 503 0.865877 0.500257<0 198.921 609.761 808.682>
LayerCount: 2
Fore
SplineSet
248 0 m 1,0,-1
 248 603 l 1,1,-1
 75 503 l 1,2,-1
 20 600 l 1,3,-1
 248 732 l 1,4,-1
 248 1320 l 2,5,6
 248 1453 248 1453 108 1500 c 1,7,-1
 108 1510 l 1,8,-1
 548 1510 l 1,9,-1
 548 905 l 1,10,-1
 721 1005 l 1,11,-1
 776 908 l 1,12,-1
 548 776 l 1,13,-1
 548 190 l 2,14,15
 548 57 548 57 688 10 c 1,16,-1
 688 0 l 1,17,-1
 248 0 l 1,0,-1
EndSplineSet
Validated: 19457
EndChar

StartChar: Eng
Encoding: 330 330 143
Width: 1637
GlyphClass: 2
Flags: W
HStem: -410 21G<828 1003> 0 21G<170 490> 1390 120<490 880.286> 1500 10<30 42.8174>
VStem: 170 320<0 1388.01> 1177 340<73.8726 1043.25>
LayerCount: 2
Fore
SplineSet
170 0 m 1,0,-1
 170 1320 l 10,1,2
 170 1453 170 1453 30 1500 c 1,3,-1
 30 1510 l 1,4,-1
 716 1510 l 2,5,6
 1083 1510 1083 1510 1309 1306 c 0,7,8
 1517 1118 1517 1118 1517 755 c 2,9,-1
 1517 352 l 2,10,11
 1517 37 1517 37 1329 -172 c 0,12,13
 1168 -351 1168 -351 838 -410 c 1,14,-1
 828 -410 l 1,15,16
 1028 -236 1028 -236 1104 -49 c 0,17,18
 1177 132 1177 132 1177 351 c 2,19,-1
 1177 754 l 2,20,21
 1177 1054 1177 1054 1033 1224 c 0,22,23
 892 1390 892 1390 689 1390 c 2,24,-1
 490 1390 l 1,25,-1
 490 0 l 1,26,-1
 170 0 l 1,0,-1
EndSplineSet
Validated: 19457
EndChar

StartChar: eng
Encoding: 331 331 144
Width: 1378
GlyphClass: 2
Flags: W
HStem: 0 21G<170 470> 990 110<470 738.249> 1090 10<30 42.8174>
VStem: 170 300<0 988.022> 938 320<-79.3743 763.7>
LayerCount: 2
Fore
SplineSet
170 0 m 1,0,-1
 170 910 l 2,1,2
 170 1043 170 1043 30 1090 c 1,3,-1
 30 1100 l 1,4,-1
 590 1100 l 2,5,6
 905 1100 905 1100 1073 952 c 0,7,8
 1258 789 1258 789 1258 550 c 2,9,-1
 1258 140 l 2,10,11
 1258 -90 1258 -90 1089 -253 c 0,12,13
 966 -371 966 -371 773 -430 c 1,14,-1
 763 -430 l 1,15,16
 849 -302 849 -302 893 -162 c 0,17,18
 938 -17 938 -17 938 140 c 2,19,-1
 938 550 l 2,20,21
 938 753 938 753 829.5 871.5 c 128,-1,22
 721 990 721 990 570 990 c 2,23,-1
 470 990 l 1,24,-1
 470 0 l 1,25,-1
 170 0 l 1,0,-1
EndSplineSet
Validated: 19457
EndChar

StartChar: OE
Encoding: 338 338 145
Width: 2565
GlyphClass: 2
Flags: W
HStem: -20 119.967<705.067 1062.72 1674.79 2087.54> 695 120<1690.63 2094> 1410 120<705.626 1059.56 1608.87 1973.93>
VStem: 70 340<471.869 1038.38> 1356 338<472.695 695 815 1035.54>
LayerCount: 2
Fore
SplineSet
883.046875 99.966796875 m 128,-1,1
 1084 100 1084 100 1219 289 c 0,2,3
 1356 481 1356 481 1356 755 c 128,-1,4
 1356 1029 1356 1029 1219 1221 c 0,5,6
 1084 1410 1084 1410 883 1410 c 128,-1,7
 682 1410 682 1410 547 1221 c 0,8,9
 410 1029 410 1029 410 755 c 128,-1,10
 410 481 410 481 547 289 c 0,11,0
 682 100 682 100 883.046875 99.966796875 c 128,-1,1
883 -20 m 0,12,13
 486 -20 486 -20 261 226 c 0,14,15
 70 435 70 435 70 755 c 0,16,17
 70 1076 70 1076 262 1284 c 0,18,19
 489 1530 489 1530 883 1530 c 0,20,21
 1149 1530 1149 1530 1339 1418 c 1,22,23
 1531 1530 1531 1530 1803 1530 c 0,24,25
 2206 1530 2206 1530 2431 1262 c 1,26,-1
 2166 1010 l 1,27,-1
 2158 1018 l 1,28,29
 2158 1176 2158 1176 2072 1283 c 0,30,31
 1971 1410 1971 1410 1792 1410 c 0,32,33
 1620 1410 1620 1410 1504 1285 c 0,34,-1
 1505 1284 l 0,35,36
 1678 1096 1678 1096 1694 815 c 1,37,-1
 2094 815 l 1,38,-1
 2094 695 l 1,39,-1
 1694 695 l 1,40,41
 1678 425 1678 425 1519 243 c 1,42,43
 1658 110 1658 110 1871 110 c 0,44,45
 2236 110 2236 110 2487 340 c 1,46,-1
 2495 334 l 1,47,48
 2260 -20 2260 -20 1794 -20 c 0,49,50
 1527 -20 1527 -20 1337 92 c 1,51,52
 1147 -20 1147 -20 883 -20 c 0,12,13
EndSplineSet
Validated: 19457
EndChar

StartChar: oe
Encoding: 339 339 146
Width: 1860
GlyphClass: 2
Flags: W
HStem: -20 109<541.006 795.469 1192.63 1527.95> 495 110<1258.72 1496> 1011 109<540.799 794.917 1156.28 1443.37>
VStem: 70 320<314.938 784.431> 946 317<308.93 495 605 788.973>
CounterMasks: 1 e0
LayerCount: 2
Fore
SplineSet
667.5 89 m 128,-1,1
 789 89 789 89 868 215 c 0,2,3
 946 340 946 340 946 550 c 0,4,5
 946 759 946 759 872 879 c 0,6,7
 790 1011 790 1011 668 1011 c 0,8,9
 547 1011 547 1011 468 885 c 0,10,11
 390 758 390 758 390 550 c 0,12,13
 390 341 390 341 464 221 c 0,14,0
 546 89 546 89 667.5 89 c 128,-1,1
668 -20 m 0,15,16
 364 -20 364 -20 202 172 c 0,17,18
 70 329 70 329 70 550 c 0,19,20
 70 774 70 774 202 928 c 0,21,22
 366 1120 366 1120 668 1120 c 0,23,24
 845 1120 845 1120 975 1054 c 1,25,26
 1106 1120 1106 1120 1283 1120 c 0,27,28
 1582 1120 1582 1120 1758 910 c 1,29,-1
 1545 708 l 1,30,-1
 1536 715 l 1,31,32
 1540 737 1540 737 1540 771 c 0,33,34
 1540 855 1540 855 1487 924 c 0,35,36
 1420 1011 1420 1011 1302 1011 c 0,37,38
 1194 1011 1194 1011 1123 940 c 1,39,40
 1249 795 1249 795 1263 605 c 1,41,-1
 1496 605 l 1,42,-1
 1496 495 l 1,43,-1
 1263 495 l 1,44,45
 1249 305 1249 305 1133 171 c 1,46,47
 1218 100 1218 100 1360 100 c 0,48,49
 1593 100 1593 100 1782 240 c 1,50,-1
 1790 234 l 1,51,52
 1608 -20 1608 -20 1294 -20 c 0,53,54
 1108 -20 1108 -20 975 47 c 1,55,56
 845 -20 845 -20 668 -20 c 0,15,16
EndSplineSet
Validated: 19457
EndChar

StartChar: Tbar
Encoding: 358 358 147
Width: 1210
GlyphClass: 2
Flags: W
HStem: 0 21G<446 766> 580 120<219 446 766 991> 1390 120<77.5859 446 766 1132.41>
VStem: 10 10<1250 1262.82> 446 320<0 580 700 1390> 1190 10<1250 1262.82>
LayerCount: 2
Fore
SplineSet
446 0 m 1,0,-1
 446 580 l 1,1,-1
 219 580 l 1,2,-1
 219 700 l 1,3,-1
 446 700 l 1,4,-1
 446 1390 l 1,5,-1
 200 1390 l 2,6,7
 67 1390 67 1390 20 1250 c 1,8,-1
 10 1250 l 1,9,-1
 10 1510 l 1,10,-1
 1200 1510 l 1,11,-1
 1200 1250 l 1,12,-1
 1190 1250 l 1,13,14
 1143 1390 1143 1390 1010 1390 c 2,15,-1
 766 1390 l 1,16,-1
 766 700 l 1,17,-1
 991 700 l 1,18,-1
 991 580 l 1,19,-1
 766 580 l 1,20,-1
 766 0 l 1,21,-1
 446 0 l 1,0,-1
EndSplineSet
Validated: 19457
EndChar

StartChar: tbar
Encoding: 359 359 148
Width: 825
GlyphClass: 2
Flags: W
HStem: 0 10<597.183 610> 580 110<40 170 470 600> 990 110<470 820> 1500 10<30 42.8174>
VStem: 170 300<67.5859 580 690 990 1100 1442.41>
LayerCount: 2
Fore
SplineSet
170 0 m 1,0,-1
 170 580 l 1,1,-1
 40 580 l 1,2,-1
 40 690 l 1,3,-1
 170 690 l 1,4,-1
 170 1320 l 2,5,6
 170 1453 170 1453 30 1500 c 1,7,-1
 30 1510 l 1,8,-1
 470 1510 l 1,9,-1
 470 1100 l 1,10,-1
 820 1100 l 1,11,-1
 820 990 l 1,12,-1
 470 990 l 1,13,-1
 470 690 l 1,14,-1
 600 690 l 1,15,-1
 600 580 l 1,16,-1
 470 580 l 1,17,-1
 470 190 l 2,18,19
 470 57 470 57 610 10 c 1,20,-1
 610 0 l 1,21,-1
 170 0 l 1,0,-1
EndSplineSet
Validated: 19457
EndChar

StartChar: longs
Encoding: 383 383 149
Width: 1311
GlyphClass: 2
Flags: W
HStem: -410 21G<230 530> 670 110<30 230> 1116 21G<1084 1114.09> 1419 109<686.296 991.012>
VStem: 230 300<-410 670 780 1193.83>
LayerCount: 2
Fore
SplineSet
230 -410 m 1,0,-1
 230 670 l 1,1,-1
 30 670 l 1,2,-1
 30 780 l 1,3,-1
 230 780 l 1,4,-1
 230 958 l 2,5,6
 230 1184 230 1184 362 1336 c 0,7,8
 529 1528 529 1528 831 1528 c 0,9,10
 1130 1528 1130 1528 1306 1318 c 1,11,-1
 1093 1116 l 1,12,-1
 1084 1123 l 1,13,14
 1088 1145 1088 1145 1088 1179 c 0,15,16
 1088 1263 1088 1263 1035 1332 c 0,17,18
 968 1419 968 1419 841 1419 c 0,19,20
 715 1419 715 1419 636 1333 c 0,21,22
 530 1219 530 1219 530 958 c 2,23,-1
 530 -410 l 1,24,-1
 230 -410 l 1,0,-1
EndSplineSet
Validated: 19457
EndChar

StartChar: florin
Encoding: 402 402 150
Width: 1251
GlyphClass: 2
Flags: W
HStem: -410 10<-10 -4.41895> 670 110<470 962> 1116 21G<1024 1054.09> 1419 109<626.296 931.012>
VStem: 170 300<-226.583 670 780 1193.83>
LayerCount: 2
Fore
SplineSet
-10 -410 m 1,0,-1
 -10 -400 l 1,1,2
 170 -309 170 -309 170 -39 c 2,3,-1
 170 958 l 2,4,5
 170 1184 170 1184 302 1336 c 0,6,7
 469 1528 469 1528 771 1528 c 0,8,9
 1070 1528 1070 1528 1246 1318 c 1,10,-1
 1033 1116 l 1,11,-1
 1024 1123 l 1,12,13
 1028 1145 1028 1145 1028 1179 c 0,14,15
 1028 1263 1028 1263 975 1332 c 0,16,17
 908 1419 908 1419 781 1419 c 0,18,19
 655 1419 655 1419 576 1333 c 0,20,21
 470 1219 470 1219 470 958 c 2,22,-1
 470 780 l 1,23,-1
 962 780 l 1,24,-1
 962 670 l 1,25,-1
 470 670 l 1,26,-1
 470 -39 l 2,27,28
 470 -410 470 -410 -10 -410 c 1,0,-1
EndSplineSet
Validated: 19457
EndChar

StartChar: endash
Encoding: 8211 8211 151
Width: 1192
GlyphClass: 2
Flags: W
HStem: 650 210<120 1072>
LayerCount: 2
Fore
SplineSet
120 860 m 1,0,-1
 1072 860 l 1,1,-1
 1072 650 l 1,2,-1
 120 650 l 1,3,-1
 120 860 l 1,0,-1
EndSplineSet
Validated: 19457
EndChar

StartChar: emdash
Encoding: 8212 8212 152
Width: 1593
GlyphClass: 2
Flags: W
HStem: 650 210<120 1473>
LayerCount: 2
Fore
SplineSet
120 860 m 1,0,-1
 1473 860 l 1,1,-1
 1473 650 l 1,2,-1
 120 650 l 1,3,-1
 120 860 l 1,0,-1
EndSplineSet
Validated: 19457
EndChar

StartChar: afii00208
Encoding: 8213 8213 153
Width: 1593
GlyphClass: 2
Flags: W
HStem: 650 210<120 1473>
LayerCount: 2
Fore
SplineSet
120 860 m 1,0,-1
 1473 860 l 1,1,-1
 1473 650 l 1,2,-1
 120 650 l 1,3,-1
 120 860 l 1,0,-1
EndSplineSet
Validated: 19457
EndChar

StartChar: quoteleft
Encoding: 8216 8216 154
Width: 368
GlyphClass: 2
Flags: W
HStem: 967 633
VStem: 20 231<1128.76 1391.87>
LayerCount: 2
Fore
SplineSet
358 1600 m 1,0,-1
 358 1590 l 1,1,2
 251 1470 251 1470 251 1334 c 0,3,4
 251 1202 251 1202 343 1136 c 1,5,-1
 174 967 l 1,6,7
 20 1065 20 1065 20 1231 c 0,8,9
 20 1475 20 1475 358 1600 c 1,0,-1
EndSplineSet
Validated: 19457
EndChar

StartChar: quoteright
Encoding: 8217 8217 155
Width: 368
GlyphClass: 2
Flags: W
HStem: 967 633
VStem: 117 231<1175.13 1438.24>
LayerCount: 2
Fore
SplineSet
194 1600 m 1,0,1
 348 1502 348 1502 348 1336 c 0,2,3
 348 1092 348 1092 10 967 c 1,4,-1
 10 977 l 1,5,6
 117 1097 117 1097 117 1233 c 0,7,8
 117 1365 117 1365 25 1431 c 1,9,-1
 194 1600 l 1,0,1
EndSplineSet
Validated: 19457
EndChar

StartChar: quotesinglbase
Encoding: 8218 8218 156
Width: 368
GlyphClass: 2
Flags: W
HStem: -324 633
VStem: 117 231<-115.87 147.244>
LayerCount: 2
Fore
SplineSet
194 309 m 1,0,1
 348 211 348 211 348 45 c 0,2,3
 348 -199 348 -199 10 -324 c 1,4,-1
 10 -314 l 1,5,6
 117 -194 117 -194 117 -58 c 0,7,8
 117 74 117 74 25 140 c 1,9,-1
 194 309 l 1,0,1
EndSplineSet
Validated: 19457
EndChar

StartChar: quotereversed
Encoding: 8219 8219 157
Width: 368
GlyphClass: 2
Flags: W
HStem: 967 633
VStem: 20 231<1175.13 1438.24>
LayerCount: 2
Fore
SplineSet
174 1600 m 1,0,1
 343 1431 l 1,2,3
 251 1365 251 1365 251 1233 c 0,4,5
 251 1097 251 1097 358 977 c 1,6,-1
 358 967 l 1,7,8
 20 1092 20 1092 20 1336 c 0,9,10
 20 1502 20 1502 174 1600 c 1,0,1
EndSplineSet
Validated: 19457
EndChar

StartChar: quotedblleft
Encoding: 8220 8220 158
Width: 724
GlyphClass: 2
Flags: W
HStem: 967 633
VStem: 20 231<1128.76 1391.87> 376 231<1129.76 1392.87>
LayerCount: 2
Fore
SplineSet
358 1600 m 1,0,-1
 358 1590 l 1,1,2
 251 1470 251 1470 251 1334 c 0,3,4
 251 1202 251 1202 343 1136 c 1,5,-1
 174 967 l 1,6,7
 20 1065 20 1065 20 1231 c 0,8,9
 20 1475 20 1475 358 1600 c 1,0,-1
714 1601 m 1,10,-1
 714 1591 l 1,11,12
 607 1471 607 1471 607 1335 c 0,13,14
 607 1203 607 1203 699 1137 c 1,15,-1
 530 968 l 1,16,17
 376 1066 376 1066 376 1232 c 0,18,19
 376 1476 376 1476 714 1601 c 1,10,-1
EndSplineSet
Validated: 19457
EndChar

StartChar: quotedblright
Encoding: 8221 8221 159
Width: 724
GlyphClass: 2
Flags: W
HStem: 968 633
VStem: 117 231<1175.13 1438.24> 473 231<1176.13 1439.24>
LayerCount: 2
Fore
SplineSet
550 1601 m 1,0,1
 704 1503 704 1503 704 1337 c 0,2,3
 704 1093 704 1093 366 968 c 1,4,-1
 366 978 l 1,5,6
 473 1098 473 1098 473 1234 c 0,7,8
 473 1366 473 1366 381 1432 c 1,9,-1
 550 1601 l 1,0,1
194 1600 m 1,10,11
 348 1502 348 1502 348 1336 c 0,12,13
 348 1092 348 1092 10 967 c 1,14,-1
 10 977 l 1,15,16
 117 1097 117 1097 117 1233 c 0,17,18
 117 1365 117 1365 25 1431 c 1,19,-1
 194 1600 l 1,10,11
EndSplineSet
Validated: 19457
EndChar

StartChar: quotedblbase
Encoding: 8222 8222 160
Width: 724
GlyphClass: 2
Flags: W
HStem: -323 633
VStem: 117 231<-115.87 147.244> 473 231<-114.87 148.244>
LayerCount: 2
Fore
SplineSet
550 310 m 1,0,1
 704 212 704 212 704 46 c 0,2,3
 704 -198 704 -198 366 -323 c 1,4,-1
 366 -313 l 1,5,6
 473 -193 473 -193 473 -57 c 0,7,8
 473 75 473 75 381 141 c 1,9,-1
 550 310 l 1,0,1
194 309 m 1,10,11
 348 211 348 211 348 45 c 0,12,13
 348 -199 348 -199 10 -324 c 1,14,-1
 10 -314 l 1,15,16
 117 -194 117 -194 117 -58 c 0,17,18
 117 74 117 74 25 140 c 1,19,-1
 194 309 l 1,10,11
EndSplineSet
Validated: 19457
EndChar

StartChar: dagger
Encoding: 8224 8224 161
Width: 1192
GlyphClass: 2
Flags: W
HStem: 0 21G<456 736> 1025 120<120 456 736 1072> 1490 20G<456 736>
VStem: 456 280<0 1025 1145 1510>
LayerCount: 2
Fore
SplineSet
456 0 m 1,0,-1
 456 1025 l 1,1,-1
 120 1025 l 1,2,-1
 120 1145 l 1,3,-1
 456 1145 l 1,4,-1
 456 1510 l 1,5,-1
 736 1510 l 1,6,-1
 736 1145 l 1,7,-1
 1072 1145 l 1,8,-1
 1072 1025 l 1,9,-1
 736 1025 l 1,10,-1
 736 0 l 1,11,-1
 456 0 l 1,0,-1
EndSplineSet
Validated: 19457
EndChar

StartChar: daggerdbl
Encoding: 8225 8225 162
Width: 1192
GlyphClass: 2
Flags: W
HStem: 0 21G<456 736> 364 120<120 456 736 1072> 1025 120<120 456 736 1072> 1490 20G<456 736>
VStem: 456 280<0 364 484 1025 1145 1510>
LayerCount: 2
Fore
SplineSet
456 0 m 1,0,-1
 456 364 l 1,1,-1
 120 364 l 1,2,-1
 120 484 l 1,3,-1
 456 484 l 1,4,-1
 456 1025 l 1,5,-1
 120 1025 l 1,6,-1
 120 1145 l 1,7,-1
 456 1145 l 1,8,-1
 456 1510 l 1,9,-1
 736 1510 l 1,10,-1
 736 1145 l 1,11,-1
 1072 1145 l 1,12,-1
 1072 1025 l 1,13,-1
 736 1025 l 1,14,-1
 736 484 l 1,15,-1
 1072 484 l 1,16,-1
 1072 364 l 1,17,-1
 736 364 l 1,18,-1
 736 0 l 1,19,-1
 456 0 l 1,0,-1
EndSplineSet
Validated: 19457
EndChar

StartChar: bullet
Encoding: 8226 8226 163
Width: 968
GlyphClass: 2
Flags: W
HStem: 385 740<308.128 659.872>
VStem: 120 728<576.566 933.434>
LayerCount: 2
Fore
SplineSet
484 1125 m 128,-1,1
 636 1125 636 1125 742 1017 c 128,-1,2
 848 909 848 909 848 755 c 128,-1,3
 848 601 848 601 742 493 c 128,-1,4
 636 385 636 385 484 385 c 128,-1,5
 332 385 332 385 226 493 c 128,-1,6
 120 601 120 601 120 755 c 128,-1,7
 120 909 120 909 226 1017 c 128,-1,0
 332 1125 332 1125 484 1125 c 128,-1,1
EndSplineSet
Validated: 19457
EndChar

StartChar: ellipsis
Encoding: 8230 8230 164
Width: 1234
GlyphClass: 2
Flags: W
HStem: -20 370<83.1396 320.86 499.14 736.86 913.14 1150.86>
VStem: 20 364<42.5779 287.422> 436 364<42.5779 287.422> 850 364<42.5779 287.422>
LayerCount: 2
Fore
SplineSet
1032 -20 m 128,-1,1
 956 -20 956 -20 903 34 c 128,-1,2
 850 88 850 88 850 165 c 128,-1,3
 850 242 850 242 903 296 c 128,-1,4
 956 350 956 350 1032 350 c 128,-1,5
 1108 350 1108 350 1161 296 c 128,-1,6
 1214 242 1214 242 1214 165 c 128,-1,7
 1214 88 1214 88 1161 34 c 128,-1,0
 1108 -20 1108 -20 1032 -20 c 128,-1,1
618 -20 m 128,-1,9
 542 -20 542 -20 489 34 c 128,-1,10
 436 88 436 88 436 165 c 128,-1,11
 436 242 436 242 489 296 c 128,-1,12
 542 350 542 350 618 350 c 128,-1,13
 694 350 694 350 747 296 c 128,-1,14
 800 242 800 242 800 165 c 128,-1,15
 800 88 800 88 747 34 c 128,-1,8
 694 -20 694 -20 618 -20 c 128,-1,9
202 -20 m 128,-1,17
 126 -20 126 -20 73 34 c 128,-1,18
 20 88 20 88 20 165 c 128,-1,19
 20 242 20 242 73 296 c 128,-1,20
 126 350 126 350 202 350 c 128,-1,21
 278 350 278 350 331 296 c 128,-1,22
 384 242 384 242 384 165 c 128,-1,23
 384 88 384 88 331 34 c 128,-1,16
 278 -20 278 -20 202 -20 c 128,-1,17
EndSplineSet
Validated: 19457
EndChar

StartChar: perthousand
Encoding: 8240 8240 165
Width: 2588
GlyphClass: 2
Flags: W
HStem: -20 70<1245.87 1381.82 2027.87 2163.82> 584 70<1246.89 1383.12 2028.89 2165.12> 856 70<422.874 558.824> 1460 70<423.886 560.119>
VStem: 120 254<1027.17 1362.22> 610 253<1023.54 1358.12> 943 254<151.172 486.22> 1433 253<147.54 482.116> 1725 254<151.172 486.22> 2215 253<147.54 482.116>
DStem2: 432 102 661 -20 0.446965 0.894551<0 1596.11>
LayerCount: 2
Fore
SplineSet
2098 50 m 0,0,1
 2154 50 2154 50 2186 117 c 0,2,3
 2215 178 2215 178 2215 317 c 128,-1,4
 2215 456 2215 456 2186 517 c 0,5,6
 2154 584 2154 584 2097 584 c 128,-1,7
 2040 584 2040 584 2008 517 c 0,8,9
 1979 456 1979 456 1979 318 c 0,10,11
 1979 177 1979 177 2008 116 c 0,12,13
 2039 50 2039 50 2098 50 c 0,0,1
1316 50 m 0,14,15
 1372 50 1372 50 1404 117 c 0,16,17
 1433 178 1433 178 1433 317 c 128,-1,18
 1433 456 1433 456 1404 517 c 0,19,20
 1372 584 1372 584 1315 584 c 128,-1,21
 1258 584 1258 584 1226 517 c 0,22,23
 1197 456 1197 456 1197 318 c 0,24,25
 1197 177 1197 177 1226 116 c 0,26,27
 1257 50 1257 50 1316 50 c 0,14,15
492 1460 m 128,-1,29
 435 1460 435 1460 403 1393 c 0,30,31
 374 1332 374 1332 374 1194 c 0,32,33
 374 1053 374 1053 403 992 c 0,34,35
 434 926 434 926 493 926 c 0,36,37
 549 926 549 926 581 993 c 0,38,39
 610 1054 610 1054 610 1193 c 128,-1,40
 610 1332 610 1332 581 1393 c 0,41,28
 549 1460 549 1460 492 1460 c 128,-1,29
493 1530 m 0,42,43
 663 1530 663 1530 764 1428 c 0,44,45
 863 1328 863 1328 863 1193 c 0,46,47
 863 1053 863 1053 769 962 c 0,48,49
 660 856 660 856 490 856 c 0,50,51
 318 856 318 856 218 958 c 0,52,53
 120 1057 120 1057 120 1192 c 0,54,55
 120 1332 120 1332 213 1424 c 0,56,57
 318 1530 318 1530 493 1530 c 0,42,43
1313 -20 m 0,58,59
 1141 -20 1141 -20 1041 82 c 0,60,61
 943 181 943 181 943 316 c 0,62,63
 943 456 943 456 1036 548 c 0,64,65
 1141 654 1141 654 1316 654 c 0,66,67
 1486 654 1486 654 1587 552 c 0,68,69
 1686 452 1686 452 1686 317 c 0,70,71
 1686 177 1686 177 1592 86 c 0,72,73
 1483 -20 1483 -20 1313 -20 c 0,58,59
661 -20 m 1,74,-1
 432 102 l 1,75,-1
 1145 1530 l 1,76,-1
 1381 1421 l 1,77,-1
 661 -20 l 1,74,-1
2095 -20 m 0,78,79
 1923 -20 1923 -20 1823 82 c 0,80,81
 1725 181 1725 181 1725 316 c 0,82,83
 1725 456 1725 456 1818 548 c 0,84,85
 1923 654 1923 654 2098 654 c 0,86,87
 2268 654 2268 654 2369 552 c 0,88,89
 2468 452 2468 452 2468 317 c 0,90,91
 2468 177 2468 177 2374 86 c 0,92,93
 2265 -20 2265 -20 2095 -20 c 0,78,79
EndSplineSet
Validated: 19457
EndChar

StartChar: minute
Encoding: 8242 8242 166
Width: 421
GlyphClass: 2
Flags: W
HStem: 1156 394<157 188>
VStem: 20 381
LayerCount: 2
Fore
SplineSet
157 1550 m 1,0,-1
 401 1550 l 1,1,-1
 188 1156 l 1,2,-1
 20 1156 l 1,3,-1
 157 1550 l 1,0,-1
EndSplineSet
Validated: 19457
EndChar

StartChar: second
Encoding: 8243 8243 167
Width: 718
GlyphClass: 2
Flags: W
HStem: 1156 394<157 188 454 485>
VStem: 20 678
LayerCount: 2
Fore
SplineSet
454 1550 m 1,0,-1
 698 1550 l 1,1,-1
 485 1156 l 1,2,-1
 317 1156 l 1,3,-1
 454 1550 l 1,0,-1
157 1550 m 1,4,-1
 401 1550 l 1,5,-1
 188 1156 l 1,6,-1
 20 1156 l 1,7,-1
 157 1550 l 1,4,-1
EndSplineSet
Validated: 19457
EndChar

StartChar: guilsinglleft
Encoding: 8249 8249 168
Width: 901
GlyphClass: 2
Flags: W
VStem: 120 611
DStem2: 360 815 120 755 0.665725 -0.746197<0 555.163> 120 755 360 815 0.666452 0.745548<204.681 674.302>
LayerCount: 2
Fore
SplineSet
575 1264 m 1,0,-1
 672 1166 l 1,1,-1
 360 815 l 1,2,-1
 731 402 l 1,3,-1
 575 245 l 1,4,-1
 120 755 l 1,5,-1
 575 1264 l 1,0,-1
EndSplineSet
Validated: 19457
EndChar

StartChar: guilsinglright
Encoding: 8250 8250 169
Width: 901
GlyphClass: 2
Flags: W
VStem: 170 611
DStem2: 326 1265 170 1108 0.665725 -0.746197<13.2999 568.463> 229 344 326 246 0.666452 0.745548<0 469.62>
LayerCount: 2
Fore
SplineSet
326 1265 m 1,0,-1
 781 755 l 1,1,-1
 326 246 l 1,2,-1
 229 344 l 1,3,-1
 541 695 l 1,4,-1
 170 1108 l 1,5,-1
 326 1265 l 1,0,-1
EndSplineSet
Validated: 19457
EndChar

StartChar: fraction
Encoding: 8260 8260 170
Width: 969
GlyphClass: 2
Flags: W
HStem: -20 21G<201.459 248.993> 1510 20G<713.014 766.303>
DStem2: 10 102 239 -20 0.446965 0.894551<0 1596.11>
LayerCount: 2
Fore
SplineSet
239 -20 m 1,0,-1
 10 102 l 1,1,-1
 723 1530 l 1,2,-1
 959 1421 l 1,3,-1
 239 -20 l 1,0,-1
EndSplineSet
Validated: 3073
EndChar

StartChar: Euro
Encoding: 8364 8364 171
Width: 1805
GlyphClass: 2
Flags: W
HStem: -20 130<840.578 1277.54> 587 120<70 172 528 1214> 803 120<70 172 525 1214> 1410 120<791.99 1163.93>
VStem: 171 340<707 803 923 1036.86>
LayerCount: 2
Fore
SplineSet
984 -20 m 0,0,1
 587 -20 587 -20 362 226 c 0,2,3
 224 377 224 377 186 587 c 1,4,-1
 70 587 l 1,5,-1
 70 707 l 1,6,-1
 172 707 l 1,7,8
 171 731 171 731 171 756 c 0,9,10
 171 780 171 780 172 803 c 1,11,-1
 70 803 l 1,12,-1
 70 923 l 1,13,-1
 185 923 l 1,14,15
 223 1134 223 1134 362 1284 c 0,16,17
 591 1530 591 1530 993 1530 c 0,18,19
 1396 1530 1396 1530 1621 1262 c 1,20,-1
 1356 1010 l 1,21,-1
 1348 1018 l 1,22,23
 1348 1176 1348 1176 1262 1283 c 0,24,25
 1161 1410 1161 1410 982 1410 c 0,26,27
 762 1410 762 1410 642 1220 c 0,28,29
 554 1083 554 1083 525 923 c 1,30,-1
 1214 923 l 1,31,-1
 1214 803 l 1,32,-1
 512 803 l 1,33,34
 511 783 511 783 511 762 c 0,35,36
 511 734 511 734 513 707 c 1,37,-1
 1214 707 l 1,38,-1
 1214 587 l 1,39,-1
 528 587 l 1,40,41
 559 433 559 433 649 312 c 0,42,43
 799 110 799 110 1061 110 c 0,44,45
 1426 110 1426 110 1677 340 c 1,46,-1
 1685 334 l 1,47,48
 1450 -20 1450 -20 984 -20 c 0,0,1
EndSplineSet
Validated: 19457
EndChar

StartChar: afii61248
Encoding: 8453 8453 172
Width: 2074
GlyphClass: 2
Flags: W
HStem: -20 71<1430.41 1626.28> 692 70<1431.74 1626.44> 747 75<468.934 745.079> 1460 70<443.884 648.54>
VStem: 120 212<959 1334.45> 1101 211<178.13 564.955> 1743 211<177.566 564.113>
DStem2: 548 102 777 -20 0.446965 0.894551<0 1596.11>
LayerCount: 2
Fore
SplineSet
553 1530 m 128,-1,1
 770 1530 770 1530 886 1393 c 1,2,-1
 732 1246 l 1,3,-1
 724 1254 l 1,4,5
 724 1331 724 1331 680 1392 c 0,6,7
 631 1460 631 1460 548 1460 c 0,8,9
 457 1460 457 1460 400 1382 c 0,10,11
 332 1290 332 1290 332 1137 c 0,12,13
 332 1010 332 1010 404 915 c 0,14,15
 475 822 475 822 620 822 c 0,16,17
 786 822 786 822 910 935 c 1,18,-1
 918 928 l 1,19,20
 796 747 796 747 548 747 c 0,21,22
 331 747 331 747 216 873 c 0,23,24
 120 978 120 978 120 1141 c 0,25,26
 120 1306 120 1306 216 1406 c 0,27,0
 336 1530 336 1530 553 1530 c 128,-1,1
777 -20 m 1,28,-1
 548 102 l 1,29,-1
 1261 1530 l 1,30,-1
 1497 1421 l 1,31,-1
 777 -20 l 1,28,-1
1530 692 m 128,-1,33
 1441 692 1441 692 1379 603 c 0,34,35
 1312 507 1312 507 1312 369 c 128,-1,36
 1312 231 1312 231 1375 142 c 0,37,38
 1440 51 1440 51 1526 51 c 0,39,40
 1615 51 1615 51 1676 140 c 0,41,42
 1743 236 1743 236 1743 378 c 0,43,44
 1743 508 1743 508 1679 602 c 0,45,32
 1619 692 1619 692 1530 692 c 128,-1,33
1530 762 m 0,46,47
 1745 762 1745 762 1858 638 c 0,48,49
 1954 533 1954 533 1954 369 c 128,-1,50
 1954 205 1954 205 1858 105 c 0,51,52
 1738 -20 1738 -20 1526 -20 c 128,-1,53
 1314 -20 1314 -20 1197 105 c 0,54,55
 1101 208 1101 208 1101 372 c 128,-1,56
 1101 536 1101 536 1197 638 c 24,57,58
 1314 762 1314 762 1530 762 c 0,46,47
EndSplineSet
Validated: 19457
EndChar

StartChar: afii61289
Encoding: 8467 8467 173
Width: 1267
GlyphClass: 2
Flags: W
HStem: 0 1G<120 496.273 646 755> 1510 20G<814.5 912>
LayerCount: 2
Fore
SplineSet
700 -20 m 4,0,1
 592 -20 592 -20 511 44 c 5,2,-1
 484 0 l 5,3,-1
 120 0 l 5,4,5
 282 162 282 162 385 325 c 5,6,7
 374 420 374 420 374 524 c 4,8,9
 374 686 374 686 421 865 c 4,10,11
 519 1240 519 1240 671 1423 c 4,12,13
 759 1530 759 1530 870 1530 c 4,14,15
 954 1530 954 1530 1004 1480 c 4,16,17
 1068 1416 1068 1416 1068 1281 c 4,18,19
 1068 1186 1068 1186 1039 1041 c 4,20,21
 969 688 969 688 686 272 c 5,22,23
 688 216 688 216 709 216 c 132,-1,24
 730 216 730 216 755 260 c 4,25,26
 770 286 770 286 781 319 c 5,27,-1
 1097 319 l 5,28,29
 1004 144 1004 144 907 62 c 132,-1,30
 810 -20 810 -20 700 -20 c 4,0,1
EndSplineSet
Validated: 19457
EndChar

StartChar: trademark
Encoding: 8482 8482 174
Width: 1954
GlyphClass: 2
Flags: W
HStem: 786 10<1020 1028.12 1492 1500.12> 1410 140<70 107.295 665.74 704> 1479 71<97.9331 288 488 675.232> 1540 10<766 778.2 1252 1264.2>
VStem: 70 10<1410 1422.33> 288 200<786 1479> 629 212<786 998> 694 10<1410 1422.33> 1624 210<879.125 1198.95>
DStem2: 629 786 841 786 0.275552 0.961286<58.417 725.436>
LayerCount: 2
Fore
SplineSet
1492 786 m 1,0,1
 1492 796 l 1,2,3
 1624 863 1624 863 1624 1011 c 0,4,5
 1624 1302 1624 1302 1535 1468 c 1,6,-1
 1542 1477 l 1,7,8
 1834 1262 1834 1262 1834 1011 c 0,9,10
 1834 786 1834 786 1492 786 c 1,0,1
1252 1550 m 1,11,-1
 1532 1550 l 1,12,-1
 1361 952 l 2,13,14
 1314 786 1314 786 1020 786 c 1,15,-1
 1020 796 l 1,16,17
 1152 863 1152 863 1152 1011 c 0,18,19
 1152 1302 1152 1302 1063 1468 c 1,20,-1
 1070 1477 l 1,21,22
 1181 1398 1181 1398 1262 1287 c 1,23,-1
 1306 1451 l 2,24,25
 1311 1470 1311 1470 1311 1485 c 0,26,27
 1311 1521 1311 1521 1252 1540 c 1,28,-1
 1252 1550 l 1,11,-1
766 1550 m 1,29,-1
 1060 1550 l 1,30,-1
 841 786 l 1,31,-1
 629 786 l 1,32,-1
 820 1451 l 2,33,34
 825 1468 825 1468 825 1485 c 0,35,36
 825 1520 825 1520 766 1540 c 1,37,-1
 766 1550 l 1,29,-1
70 1550 m 1,38,-1
 704 1550 l 1,39,-1
 704 1410 l 1,40,-1
 694 1410 l 1,41,42
 671 1479 671 1479 590 1479 c 2,43,-1
 488 1479 l 1,44,-1
 488 786 l 1,45,-1
 288 786 l 1,46,-1
 288 1479 l 1,47,-1
 184 1479 l 2,48,49
 101 1479 101 1479 80 1410 c 1,50,-1
 70 1410 l 1,51,-1
 70 1550 l 1,38,-1
EndSplineSet
Validated: 19457
EndChar

StartChar: uni2126
Encoding: 8486 8486 175
Width: 1966
GlyphClass: 2
Flags: W
HStem: 0 120<137.586 505 780.562 872 1094 1191.88 1458 1828.41> 1410 120<806.626 1161.58>
VStem: 70 10<247.183 260> 171 340<472.361 1038.38> 1457 340<477.756 1038.38> 1886 10<247.183 260>
LayerCount: 2
Fore
SplineSet
70 0 m 1,0,-1
 70 260 l 1,1,-1
 80 260 l 1,2,3
 127 120 127 120 260 120 c 2,4,-1
 505 120 l 1,5,6
 416 167 416 167 362 226 c 0,7,8
 171 435 171 435 171 755 c 0,9,10
 171 1076 171 1076 363 1284 c 0,11,12
 590 1530 590 1530 984 1530 c 0,13,14
 1379 1530 1379 1530 1606 1284 c 0,15,16
 1797 1076 1797 1076 1797 755 c 0,17,18
 1797 432 1797 432 1605 226 c 0,19,20
 1554 171 1554 171 1458 120 c 1,21,-1
 1706 120 l 2,22,23
 1839 120 1839 120 1886 260 c 1,24,-1
 1896 260 l 1,25,-1
 1896 0 l 1,26,-1
 1094 0 l 1,27,-1
 1094 120 l 1,28,29
 1235 163 1235 163 1320 289 c 0,30,31
 1457 491 1457 491 1457 755 c 0,32,33
 1457 1029 1457 1029 1320 1221 c 0,34,35
 1185 1410 1185 1410 984 1410 c 128,-1,36
 783 1410 783 1410 648 1221 c 0,37,38
 511 1029 511 1029 511 755 c 0,39,40
 511 483 511 483 648 289 c 0,41,42
 728 174 728 174 872 120 c 1,43,-1
 872 0 l 1,44,-1
 70 0 l 1,0,-1
EndSplineSet
Validated: 19457
EndChar

StartChar: estimated
Encoding: 8494 8494 176
Width: 1261
GlyphClass: 2
Flags: W
HStem: -20 183<451.95 808.867> 491 189<403 855> 935 185<449.039 809.176>
VStem: 70 333<316.826 491 680 791.88>
LayerCount: 2
Fore
SplineSet
629 -20 m 4,0,1
 378 -20 378 -20 224 145 c 132,-1,2
 70 310 70 310 70 553 c 4,3,4
 70 802 70 802 226 960 c 4,5,6
 384 1120 384 1120 626 1120 c 4,7,8
 869 1120 869 1120 1017 974 c 4,9,10
 1191 802 1191 802 1191 491 c 5,11,-1
 403 491 l 5,12,-1
 403 239 l 5,13,14
 498 163 498 163 629 163 c 4,15,16
 837 163 837 163 955 351 c 5,17,-1
 1119 255 l 5,18,19
 995 85 995 85 876 32.5 c 132,-1,20
 757 -20 757 -20 629 -20 c 4,0,1
855 680 m 5,21,-1
 855 862 l 5,22,23
 757 935 757 935 627 935 c 4,24,25
 495 935 495 935 403 861 c 5,26,-1
 403 680 l 5,27,-1
 855 680 l 5,21,-1
EndSplineSet
Validated: 19457
EndChar

StartChar: partialdiff
Encoding: 8706 8706 177
Width: 1345
GlyphClass: 2
Flags: W
HStem: -20 273<462.903 676.396> 823 260<587.1 836.76> 1257 273<512.596 836.913>
VStem: 120 305<291.814 617.824> 916 309<1024 1178.17>
LayerCount: 2
Fore
SplineSet
542 -20 m 4,0,1
 272 -20 272 -20 173 171 c 4,2,3
 120 273 120 273 120 416 c 4,4,5
 120 673 120 673 274 878 c 132,-1,6
 428 1083 428 1083 700 1083 c 4,7,8
 819 1083 819 1083 916 1024 c 5,9,10
 913 1115 913 1115 875 1173 c 4,11,12
 818 1257 818 1257 696 1257 c 4,13,14
 541 1257 541 1257 390 1132 c 5,15,-1
 390 1443 l 5,16,17
 536 1530 536 1530 733 1530 c 4,18,19
 1050 1530 1050 1530 1166 1271 c 4,20,21
 1225 1139 1225 1139 1225 950 c 4,22,23
 1225 563 1225 563 1042 272 c 4,24,25
 861 -20 861 -20 542 -20 c 4,0,1
889 699 m 5,26,27
 868 756 868 756 825 788 c 4,28,29
 778 823 778 823 710 823 c 4,30,31
 601 823 601 823 520 706 c 4,32,33
 425 567 425 567 425 431 c 4,34,35
 425 344 425 344 463 295 c 4,36,37
 495 253 495 253 555 253 c 4,38,39
 662 253 662 253 757 376 c 132,-1,40
 852 499 852 499 889 699 c 5,26,27
EndSplineSet
Validated: 19457
EndChar

StartChar: uni2206
Encoding: 8710 8710 178
Width: 1552
GlyphClass: 2
Flags: W
HStem: 0 120<214 1125>
DStem2: 5 0 214 120 0.449057 0.893503<201.073 1239.05> 794 1550 677 1049 0.436971 -0.899476<399.512 1430.89>
LayerCount: 2
Fore
SplineSet
214 120 m 1,0,-1
 1125 120 l 1,1,-1
 677 1049 l 1,2,-1
 214 120 l 1,0,-1
1547 0 m 1,3,-1
 5 0 l 1,4,-1
 784 1550 l 1,5,-1
 794 1550 l 1,6,-1
 1547 0 l 1,3,-1
EndSplineSet
Validated: 1
EndChar

StartChar: product
Encoding: 8719 8719 179
Width: 1609
GlyphClass: 2
Flags: W
HStem: -410 10<1566.18 1579> 1390 120<490 1119> 1500 10<30 42.8174>
VStem: 170 320<-410 1388.01> 1119 320<-342.414 1390>
LayerCount: 2
Fore
SplineSet
170 -410 m 1,0,-1
 170 1320 l 2,1,2
 170 1453 170 1453 30 1500 c 1,3,-1
 30 1510 l 1,4,-1
 1439 1510 l 1,5,-1
 1439 -220 l 2,6,7
 1439 -353 1439 -353 1579 -400 c 1,8,-1
 1579 -410 l 1,9,-1
 1119 -410 l 1,10,-1
 1119 1390 l 1,11,-1
 490 1390 l 1,12,-1
 490 -410 l 1,13,-1
 170 -410 l 1,0,-1
EndSplineSet
Validated: 19457
EndChar

StartChar: summation
Encoding: 8721 8721 180
Width: 1396
GlyphClass: 2
Flags: W
HStem: -410 120<492 1208.41> 1390 120<477 1117.41>
VStem: 1175 10<1250 1262.82> 1266 10<-162.817 -150>
DStem2: 477 1390 70 1510 0.452024 -0.892006<0 788.575> 111 -410 492 -290 0.423196 0.906038<269.962 1056.25>
LayerCount: 2
Fore
SplineSet
111 -410 m 1,0,-1
 558 547 l 1,1,-1
 70 1510 l 1,2,-1
 1185 1510 l 1,3,-1
 1185 1250 l 1,4,-1
 1175 1250 l 1,5,6
 1128 1390 1128 1390 995 1390 c 2,7,-1
 477 1390 l 1,8,-1
 900 554 l 1,9,-1
 492 -290 l 1,10,-1
 1086 -290 l 2,11,12
 1219 -290 1219 -290 1266 -150 c 1,13,-1
 1276 -150 l 1,14,-1
 1276 -410 l 1,15,-1
 111 -410 l 1,0,-1
EndSplineSet
Validated: 19457
EndChar

StartChar: minus
Encoding: 8722 8722 181
Width: 1192
GlyphClass: 2
Flags: W
HStem: 650 210<120 1072>
LayerCount: 2
Fore
SplineSet
120 860 m 1,0,-1
 1072 860 l 1,1,-1
 1072 650 l 1,2,-1
 120 650 l 1,3,-1
 120 860 l 1,0,-1
EndSplineSet
Validated: 19457
EndChar

StartChar: uni2215
Encoding: 8725 8725 182
Width: 969
GlyphClass: 2
Flags: W
HStem: -20 21G<201.459 248.993> 1510 20G<713.014 766.303>
DStem2: 10 102 239 -20 0.446965 0.894551<0 1596.11>
LayerCount: 2
Fore
SplineSet
239 -20 m 1,0,-1
 10 102 l 1,1,-1
 723 1530 l 1,2,-1
 959 1421 l 1,3,-1
 239 -20 l 1,0,-1
EndSplineSet
Validated: 3073
EndChar

StartChar: uni2219
Encoding: 8729 8729 183
Width: 404
GlyphClass: 2
Flags: W
HStem: 570 370<83.1396 320.86>
VStem: 20 364<632.578 877.422>
LayerCount: 2
Fore
SplineSet
202 940 m 128,-1,1
 278 940 278 940 331 886 c 128,-1,2
 384 832 384 832 384 755 c 128,-1,3
 384 678 384 678 331 624 c 128,-1,4
 278 570 278 570 202 570 c 128,-1,5
 126 570 126 570 73 624 c 128,-1,6
 20 678 20 678 20 755 c 128,-1,7
 20 832 20 832 73 886 c 128,-1,0
 126 940 126 940 202 940 c 128,-1,1
EndSplineSet
Validated: 19457
EndChar

StartChar: radical
Encoding: 8730 8730 184
Width: 1295
GlyphClass: 2
Flags: W
HStem: 0 21G<457.435 496.396> 690 121<70 204> 1390 120<1003 1225>
DStem2: 553 498 489 0 0.346831 0.937928<0 992.705>
LayerCount: 2
Fore
SplineSet
465 0 m 1,0,-1
 204 690 l 1,1,-1
 70 690 l 1,2,-1
 70 811 l 1,3,-1
 434 811 l 1,4,-1
 553 498 l 1,5,-1
 919 1510 l 1,6,-1
 1225 1510 l 1,7,-1
 1225 1390 l 1,8,-1
 1003 1390 l 1,9,-1
 489 0 l 1,10,-1
 465 0 l 1,0,-1
EndSplineSet
Validated: 19457
EndChar

StartChar: infinity
Encoding: 8734 8734 185
Width: 1496
GlyphClass: 2
Flags: W
HStem: 407 178<309.816 525.233> 407 93<914.609 1140.2> 924 178<970.767 1186.18> 1009 93<356.46 581.391>
VStem: 120 144<635.732 913.314> 1232 144<596.055 873.268>
DStem2: 587 718 847 660 0.42779 0.903878<-151.613 355.345>
LayerCount: 2
Fore
SplineSet
1001 1102 m 0,0,1
 1180 1102 1180 1102 1278 1001.5 c 128,-1,2
 1376 901 1376 901 1376 752 c 0,3,4
 1376 610 1376 610 1288 514 c 24,5,6
 1190 407 1190 407 1048 407 c 128,-1,7
 906 407 906 407 856 538 c 1,8,-1
 863 546 l 1,9,10
 930 500 930 500 1007 500 c 0,11,12
 1105 500 1105 500 1170 573 c 0,13,14
 1232 644 1232 644 1232 752 c 0,15,16
 1232 822 1232 822 1194 871 c 0,17,18
 1153 924 1153 924 1074 924 c 0,19,20
 972 924 972 924 909 791 c 2,21,-1
 847 660 l 2,22,23
 727 407 727 407 495 407 c 0,24,25
 316 407 316 407 218 507.5 c 128,-1,26
 120 608 120 608 120 757 c 0,27,28
 120 893 120 893 208 995 c 0,29,30
 300 1102 300 1102 448 1102 c 0,31,32
 590 1102 590 1102 640 971 c 1,33,-1
 633 963 l 1,34,35
 566 1009 566 1009 489 1009 c 0,36,37
 391 1009 391 1009 326 936 c 0,38,39
 264 865 264 865 264 757 c 0,40,41
 264 687 264 687 302 638 c 0,42,43
 343 585 343 585 422 585 c 0,44,45
 524 585 524 585 587 718 c 2,46,-1
 649 849 l 2,47,48
 769 1102 769 1102 1001 1102 c 0,0,1
EndSplineSet
Validated: 19457
EndChar

StartChar: approxequal
Encoding: 8776 8776 186
Width: 1223
GlyphClass: 2
Flags: W
HStem: 353 211<714.15 926.712> 516 211<296.803 510.975> 773 211<714.15 926.712> 936 211<296.803 510.975>
VStem: 120 121<353 458.536 773 878.536> 982 121<621.816 728 1041.82 1148>
DStem2: 538 1118 460 917 0.892036 -0.451965<-55.7558 330.625> 538 698 460 497 0.892036 -0.451965<-55.7558 330.625>
LayerCount: 2
Fore
SplineSet
982 728 m 1,0,-1
 1103 728 l 1,1,2
 1049 353 1049 353 823 353 c 0,3,4
 744 353 744 353 679 386 c 2,5,-1
 460 497 l 2,6,7
 423 516 423 516 382 516 c 0,8,9
 283 516 283 516 241 353 c 1,10,-1
 120 353 l 1,11,12
 174 727 174 727 412 727 c 0,13,14
 481 727 481 727 538 698 c 2,15,-1
 763 584 l 2,16,17
 802 564 802 564 842 564 c 0,18,19
 940 564 940 564 982 728 c 1,0,-1
982 1148 m 1,20,-1
 1103 1148 l 1,21,22
 1049 773 1049 773 823 773 c 0,23,24
 744 773 744 773 679 806 c 2,25,-1
 460 917 l 2,26,27
 423 936 423 936 382 936 c 0,28,29
 283 936 283 936 241 773 c 1,30,-1
 120 773 l 1,31,32
 174 1147 174 1147 412 1147 c 0,33,34
 481 1147 481 1147 538 1118 c 2,35,-1
 763 1004 l 2,36,37
 802 984 802 984 842 984 c 0,38,39
 940 984 940 984 982 1148 c 1,20,-1
EndSplineSet
Validated: 19457
EndChar

StartChar: notequal
Encoding: 8800 8800 187
Width: 1192
GlyphClass: 2
Flags: W
HStem: 440 210<120 345 605 1072> 859 210<120 587 847 1072>
DStem2: 251 277 354 217 0.500263 0.865873<0 188.162 500.064 672.027 983.929 1172.96>
LayerCount: 2
Fore
SplineSet
120 1069 m 1,0,-1
 708 1069 l 1,1,-1
 838 1293 l 1,2,-1
 941 1233 l 1,3,-1
 847 1069 l 1,4,-1
 1072 1069 l 1,5,-1
 1072 859 l 1,6,-1
 725 859 l 1,7,-1
 605 650 l 1,8,-1
 1072 650 l 1,9,-1
 1072 440 l 1,10,-1
 483 440 l 1,11,-1
 354 217 l 1,12,-1
 251 277 l 1,13,-1
 345 440 l 1,14,-1
 120 440 l 1,15,-1
 120 650 l 1,16,-1
 466 650 l 1,17,-1
 587 859 l 1,18,-1
 120 859 l 1,19,-1
 120 1069 l 1,0,-1
EndSplineSet
Validated: 19457
EndChar

StartChar: lessequal
Encoding: 8804 8804 188
Width: 1242
GlyphClass: 2
Flags: W
HStem: 114 210<120 1072>
DStem2: 120 1012 316 942 0.866509 0.499161<134.895 919.792> 316 942 120 802 0.855395 -0.517977<0 791>
LayerCount: 2
Fore
SplineSet
120 1012 m 1,0,-1
 922 1474 l 1,1,-1
 996 1334 l 1,2,-1
 316 942 l 1,3,-1
 996 531 l 1,4,-1
 878 343 l 1,5,-1
 120 802 l 1,6,-1
 120 1012 l 1,0,-1
120 324 m 1,7,-1
 1072 324 l 1,8,-1
 1072 114 l 1,9,-1
 120 114 l 1,10,-1
 120 324 l 1,7,-1
EndSplineSet
Validated: 19457
EndChar

StartChar: greaterequal
Encoding: 8805 8805 189
Width: 1242
GlyphClass: 2
Flags: W
HStem: 114 210<170 1122>
DStem2: 364 1474 246 1286 0.855395 -0.517977<0 791> 246 483 320 343 0.866509 0.499161<0 784.897>
LayerCount: 2
Fore
SplineSet
1122 805 m 1,0,-1
 320 343 l 1,1,-1
 246 483 l 1,2,-1
 926 875 l 1,3,-1
 246 1286 l 1,4,-1
 364 1474 l 1,5,-1
 1122 1015 l 1,6,-1
 1122 805 l 1,0,-1
170 324 m 1,7,-1
 1122 324 l 1,8,-1
 1122 114 l 1,9,-1
 170 114 l 1,10,-1
 170 324 l 1,7,-1
EndSplineSet
Validated: 19457
EndChar

StartChar: lozenge
Encoding: 9674 9674 190
Width: 1198
GlyphClass: 2
Flags: W
HStem: -20 21G<585.042 612.903> 1510 20G<585.641 612.409>
DStem2: 70 738 314 874 0.555427 0.831565<248.617 588.926> 314 874 70 738 0.5723 -0.820044<0 656.369> 599 1530 503 1157 0.556885 -0.83059<256.349 915.908> 690 336 599 -20 0.57078 0.821103<0 333.611>
LayerCount: 2
Fore
SplineSet
690 336 m 1,0,-1
 876 613 l 1,1,-1
 503 1157 l 1,2,-1
 314 874 l 1,3,-1
 690 336 l 1,0,-1
599 -20 m 1,4,-1
 70 738 l 1,5,-1
 599 1530 l 1,6,-1
 1128 741 l 1,7,-1
 599 -20 l 1,4,-1
EndSplineSet
Validated: 19457
EndChar

StartChar: uni1E02
Encoding: 7682 7682 191
Width: 1378
Flags: W
HStem: 0 21G<170 490 610 785> 909 120<567 696.789> 1390 120<490 702.495> 1500 10<30 42.8174> 1580 370<445.14 682.86>
VStem: 170 320<0 1388.01> 382 364<1642.58 1887.42> 765 292<1103.88 1332.39> 968 340<318.888 717.81>
LayerCount: 2
Fore
SplineSet
564 1950 m 128,-1,1
 640 1950 640 1950 693 1896 c 128,-1,2
 746 1842 746 1842 746 1765 c 128,-1,3
 746 1688 746 1688 693 1634 c 128,-1,4
 640 1580 640 1580 564 1580 c 128,-1,5
 488 1580 488 1580 435 1634 c 128,-1,6
 382 1688 382 1688 382 1765 c 128,-1,7
 382 1842 382 1842 435 1896 c 128,-1,0
 488 1950 488 1950 564 1950 c 128,-1,1
170 0 m 1,8,-1
 170 1320 l 10,9,10
 170 1453 170 1453 30 1500 c 1,11,-1
 30 1510 l 1,12,-1
 611 1510 l 2,13,14
 848 1510 848 1510 969 1415 c 0,15,16
 1057 1346 1057 1346 1057 1245 c 0,17,18
 1057 1149 1057 1149 996 1085 c 0,19,20
 935 1023 935 1023 849 990 c 1,21,22
 1070 961 1070 961 1189 843 c 0,23,24
 1308 724 1308 724 1308 518 c 0,25,26
 1308 309 1308 309 1148 167 c 0,27,28
 960 0 960 0 610 0 c 1,29,-1
 610 10 l 1,30,31
 774 92 774 92 868 212 c 0,32,33
 968 340 968 340 968 504 c 0,34,35
 968 670 968 670 892 768 c 0,36,37
 782 909 782 909 567 909 c 9,38,-1
 567 1029 l 1,39,40
 654 1029 654 1029 709.5 1081.5 c 128,-1,41
 765 1134 765 1134 765 1218 c 0,42,43
 765 1296 765 1296 705 1347 c 0,44,45
 655 1390 655 1390 566 1390 c 2,46,-1
 490 1390 l 1,47,-1
 490 0 l 1,48,-1
 170 0 l 1,8,-1
EndSplineSet
Validated: 19457
EndChar

StartChar: uni1E03
Encoding: 7683 7683 192
Width: 1328
Flags: W
HStem: 0 110<470 736.812> 1090 10<558 568.278> 1170 370<615.14 852.86> 1500 10<30 42.8174>
VStem: 170 300<110 1442.41> 552 364<1232.58 1477.42> 938 320<329.203 770.835>
LayerCount: 2
Fore
SplineSet
734 1540 m 128,-1,1
 810 1540 810 1540 863 1486 c 128,-1,2
 916 1432 916 1432 916 1355 c 128,-1,3
 916 1278 916 1278 863 1224 c 128,-1,4
 810 1170 810 1170 734 1170 c 128,-1,5
 658 1170 658 1170 605 1224 c 128,-1,6
 552 1278 552 1278 552 1355 c 128,-1,7
 552 1432 552 1432 605 1486 c 128,-1,0
 658 1540 658 1540 734 1540 c 128,-1,1
170 0 m 1,8,-1
 170 1320 l 10,9,10
 170 1453 170 1453 30 1500 c 1,11,-1
 30 1510 l 1,12,-1
 470 1510 l 1,13,-1
 470 110 l 1,14,-1
 570 110 l 2,15,16
 723 110 723 110 825 224 c 0,17,18
 938 350 938 350 938 550 c 0,19,20
 938 751 938 751 827 890 c 0,21,22
 727 1015 727 1015 558 1090 c 1,23,-1
 558 1100 l 1,24,25
 888 1100 888 1100 1075 950 c 0,26,27
 1258 802 1258 802 1258 550 c 0,28,29
 1258 307 1258 307 1079 154 c 0,30,31
 900 0 900 0 590 0 c 2,32,-1
 170 0 l 1,8,-1
EndSplineSet
Validated: 19457
EndChar

StartChar: uni1E0A
Encoding: 7690 7690 193
Width: 1646
Flags: W
HStem: 0 10<610 626.12> 1390 120<490 908.5> 1500 10<30 42.8174> 1580 370<635.14 872.86>
VStem: 170 320<0 1388.01> 572 364<1642.58 1887.42> 1236 340<503.779 1035.15>
LayerCount: 2
Fore
SplineSet
754 1950 m 128,-1,1
 830 1950 830 1950 883 1896 c 128,-1,2
 936 1842 936 1842 936 1765 c 128,-1,3
 936 1688 936 1688 883 1634 c 128,-1,4
 830 1580 830 1580 754 1580 c 128,-1,5
 678 1580 678 1580 625 1634 c 128,-1,6
 572 1688 572 1688 572 1765 c 128,-1,7
 572 1842 572 1842 625 1896 c 128,-1,0
 678 1950 678 1950 754 1950 c 128,-1,1
170 0 m 1,8,-1
 170 1320 l 10,9,10
 170 1453 170 1453 30 1500 c 1,11,-1
 30 1510 l 1,12,-1
 746 1510 l 2,13,14
 1178 1510 1178 1510 1396 1265 c 0,15,16
 1576 1063 1576 1063 1576 755 c 0,17,18
 1576 468 1576 468 1371 255 c 0,19,20
 1128 1 1128 1 610 0 c 1,21,-1
 610 10 l 1,22,23
 920 80 920 80 1093 318 c 0,24,25
 1236 515 1236 515 1236 755 c 0,26,27
 1236 1051 1236 1051 1082 1220.5 c 128,-1,28
 928 1390 928 1390 696 1390 c 2,29,-1
 490 1390 l 1,30,-1
 490 0 l 1,31,-1
 170 0 l 1,8,-1
EndSplineSet
Validated: 19457
EndChar

StartChar: uni1E0B
Encoding: 7691 7691 194
Width: 1328
Flags: W
HStem: 0 110<591.188 858> 0 10<1285.18 1298> 1090 10<759.722 770> 1170 370<415.14 652.86> 1500 10<718 730.817>
VStem: 70 320<329.203 770.835> 352 364<1232.58 1477.42> 858 300<111.978 1442.41>
LayerCount: 2
Fore
SplineSet
534 1540 m 128,-1,1
 610 1540 610 1540 663 1486 c 128,-1,2
 716 1432 716 1432 716 1355 c 128,-1,3
 716 1278 716 1278 663 1224 c 128,-1,4
 610 1170 610 1170 534 1170 c 128,-1,5
 458 1170 458 1170 405 1224 c 128,-1,6
 352 1278 352 1278 352 1355 c 128,-1,7
 352 1432 352 1432 405 1486 c 128,-1,0
 458 1540 458 1540 534 1540 c 128,-1,1
1298 0 m 1,8,-1
 738 0 l 2,9,10
 428 0 428 0 249 154 c 0,11,12
 70 307 70 307 70 550 c 0,13,14
 70 802 70 802 253 950 c 0,15,16
 440 1100 440 1100 770 1100 c 1,17,-1
 770 1090 l 1,18,19
 601 1015 601 1015 501 890 c 0,20,21
 390 751 390 751 390 550 c 0,22,23
 390 350 390 350 503 224 c 0,24,25
 606 110 606 110 758 110 c 2,26,-1
 858 110 l 1,27,-1
 858 1320 l 2,28,29
 858 1453 858 1453 718 1500 c 1,30,-1
 718 1510 l 1,31,-1
 1158 1510 l 1,32,-1
 1158 190 l 2,33,34
 1158 57 1158 57 1298 10 c 1,35,-1
 1298 0 l 1,8,-1
EndSplineSet
Validated: 19457
EndChar

StartChar: uni1E1E
Encoding: 7710 7710 195
Width: 1078
Flags: W
HStem: 0 21G<170 490> 695 120<490 882> 1390 120<490 1000.41> 1500 10<30 42.8174> 1580 370<465.14 702.86>
VStem: 170 320<0 695 815 1388.01> 402 364<1642.58 1887.42> 1058 10<1250 1262.82>
LayerCount: 2
Fore
SplineSet
584 1950 m 128,-1,1
 660 1950 660 1950 713 1896 c 128,-1,2
 766 1842 766 1842 766 1765 c 128,-1,3
 766 1688 766 1688 713 1634 c 128,-1,4
 660 1580 660 1580 584 1580 c 128,-1,5
 508 1580 508 1580 455 1634 c 128,-1,6
 402 1688 402 1688 402 1765 c 128,-1,7
 402 1842 402 1842 455 1896 c 128,-1,0
 508 1950 508 1950 584 1950 c 128,-1,1
170 0 m 1,8,-1
 170 1320 l 2,9,10
 170 1453 170 1453 30 1500 c 1,11,-1
 30 1510 l 1,12,-1
 1068 1510 l 1,13,-1
 1068 1250 l 1,14,-1
 1058 1250 l 1,15,16
 1011 1390 1011 1390 878 1390 c 2,17,-1
 490 1390 l 1,18,-1
 490 815 l 1,19,-1
 882 815 l 1,20,-1
 882 695 l 1,21,-1
 490 695 l 1,22,-1
 490 0 l 1,23,-1
 170 0 l 1,8,-1
EndSplineSet
Validated: 19457
EndChar

StartChar: uni1E1F
Encoding: 7711 7711 196
Width: 1251
Flags: W
HStem: 0 21G<170 470> 670 110<470 962> 1116 21G<1024 1054.09> 1419 109<626.296 931.012> 1580 370<519.14 756.86>
VStem: 170 300<0 670 780 1193.83> 456 364<1642.58 1887.42>
LayerCount: 2
Fore
SplineSet
638 1950 m 128,-1,1
 714 1950 714 1950 767 1896 c 128,-1,2
 820 1842 820 1842 820 1765 c 128,-1,3
 820 1688 820 1688 767 1634 c 128,-1,4
 714 1580 714 1580 638 1580 c 128,-1,5
 562 1580 562 1580 509 1634 c 128,-1,6
 456 1688 456 1688 456 1765 c 128,-1,7
 456 1842 456 1842 509 1896 c 128,-1,0
 562 1950 562 1950 638 1950 c 128,-1,1
170 0 m 1,8,-1
 170 958 l 2,9,10
 170 1184 170 1184 302 1336 c 0,11,12
 469 1528 469 1528 771 1528 c 0,13,14
 1070 1528 1070 1528 1246 1318 c 1,15,-1
 1033 1116 l 1,16,-1
 1024 1123 l 1,17,18
 1028 1145 1028 1145 1028 1179 c 0,19,20
 1028 1263 1028 1263 975 1332 c 0,21,22
 908 1419 908 1419 781 1419 c 0,23,24
 655 1419 655 1419 576 1333 c 0,25,26
 470 1219 470 1219 470 958 c 2,27,-1
 470 780 l 1,28,-1
 962 780 l 1,29,-1
 962 670 l 1,30,-1
 470 670 l 1,31,-1
 470 0 l 1,32,-1
 170 0 l 1,8,-1
EndSplineSet
Validated: 19457
EndChar

StartChar: uni1E40
Encoding: 7744 7744 197
Width: 2386
Flags: W
HStem: 0 10<769 777.155 1713 1721.15> 1500 10<276 286.803 1233 1243.8> 1580 370<908.14 1145.86>
VStem: 5 329<0 329> 845 364<1642.58 1887.42> 1976 340<236.46 700.192>
DStem2: 5 0 334 0 0.275646 0.961259<90.6875 1440.52> 1231 907 1371 323 0.275363 0.96134<0 494.604>
LayerCount: 2
Fore
SplineSet
1027 1950 m 128,-1,1
 1103 1950 1103 1950 1156 1896 c 128,-1,2
 1209 1842 1209 1842 1209 1765 c 128,-1,3
 1209 1688 1209 1688 1156 1634 c 128,-1,4
 1103 1580 1103 1580 1027 1580 c 128,-1,5
 951 1580 951 1580 898 1634 c 128,-1,6
 845 1688 845 1688 845 1765 c 128,-1,7
 845 1842 845 1842 898 1896 c 128,-1,0
 951 1950 951 1950 1027 1950 c 128,-1,1
769 0 m 1,8,-1
 769 10 l 1,9,10
 1032 135 1032 135 1032 440 c 0,11,12
 1032 895 1032 895 750 1386 c 1,13,-1
 756 1394 l 1,14,15
 1072 1167 1072 1167 1231 907 c 1,16,-1
 1341 1322 l 2,17,18
 1351 1360 1351 1360 1351 1388 c 0,19,20
 1351 1458 1351 1458 1233 1500 c 1,21,-1
 1233 1510 l 1,22,-1
 1711 1510 l 1,23,-1
 1371 323 l 2,24,25
 1280 4 1280 4 769 0 c 1,8,-1
1713 0 m 1,26,-1
 1713 10 l 1,27,28
 1976 133 1976 133 1976 440 c 0,29,30
 1976 895 1976 895 1694 1386 c 1,31,-1
 1700 1394 l 1,32,33
 2316 938 2316 938 2316 440 c 0,34,35
 2316 0 2316 0 1713 0 c 1,26,-1
5 0 m 1,36,-1
 384 1322 l 2,37,38
 394 1357 394 1357 394 1388 c 0,39,40
 394 1458 394 1458 276 1500 c 1,41,-1
 276 1510 l 1,42,-1
 767 1510 l 1,43,-1
 334 0 l 1,44,-1
 5 0 l 1,36,-1
EndSplineSet
Validated: 1
EndChar

StartChar: uni1E41
Encoding: 7745 7745 198
Width: 1805
Flags: W
HStem: 0 21G<170 470 757 1057 1240 1346.5> 990 110<470 1215.25> 1090 10<30 42.8174> 1170 370<795.14 1032.86>
VStem: 170 300<0 988.022> 732 364<1232.58 1477.42> 757 300<0 858> 1415 320<330.569 764.864>
LayerCount: 2
Fore
SplineSet
914 1540 m 128,-1,1
 990 1540 990 1540 1043 1486 c 128,-1,2
 1096 1432 1096 1432 1096 1355 c 128,-1,3
 1096 1278 1096 1278 1043 1224 c 128,-1,4
 990 1170 990 1170 914 1170 c 128,-1,5
 838 1170 838 1170 785 1224 c 128,-1,6
 732 1278 732 1278 732 1355 c 128,-1,7
 732 1432 732 1432 785 1486 c 128,-1,0
 838 1540 838 1540 914 1540 c 128,-1,1
170 0 m 1,8,-1
 170 910 l 2,9,10
 170 1043 170 1043 30 1090 c 1,11,-1
 30 1100 l 1,12,-1
 1067 1100 l 2,13,14
 1382 1100 1382 1100 1550 952 c 0,15,16
 1735 789 1735 789 1735 550 c 0,17,18
 1735 320 1735 320 1566 157 c 0,19,20
 1443 39 1443 39 1250 -20 c 1,21,-1
 1240 -20 l 1,22,23
 1326 108 1326 108 1370 248 c 0,24,25
 1415 393 1415 393 1415 550 c 0,26,27
 1415 753 1415 753 1306.5 871.5 c 128,-1,28
 1198 990 1198 990 1047 990 c 2,29,-1
 470 990 l 1,30,-1
 470 0 l 1,31,-1
 170 0 l 1,8,-1
757 0 m 1,32,-1
 757 858 l 1,33,-1
 1057 858 l 1,34,-1
 1057 0 l 1,35,-1
 757 0 l 1,32,-1
EndSplineSet
Validated: 19457
EndChar

StartChar: uni1E56
Encoding: 7766 7766 199
Width: 1384
Flags: W
HStem: 0 21G<170 490> 1390 120<490 762.636> 1500 10<30 42.8174> 1580 370<499.14 736.86>
VStem: 170 320<0 1388.01> 436 364<1642.58 1887.42> 975 339<716.307 1168.83>
LayerCount: 2
Fore
SplineSet
618 1950 m 128,-1,1
 694 1950 694 1950 747 1896 c 128,-1,2
 800 1842 800 1842 800 1765 c 128,-1,3
 800 1688 800 1688 747 1634 c 128,-1,4
 694 1580 694 1580 618 1580 c 128,-1,5
 542 1580 542 1580 489 1634 c 128,-1,6
 436 1688 436 1688 436 1765 c 128,-1,7
 436 1842 436 1842 489 1896 c 128,-1,0
 542 1950 542 1950 618 1950 c 128,-1,1
170 0 m 1,8,-1
 170 1320 l 10,9,10
 170 1453 170 1453 30 1500 c 1,11,-1
 30 1510 l 1,12,-1
 665 1510 l 2,13,14
 959 1510 959 1510 1137 1352 c 0,15,16
 1314 1194 1314 1194 1314 963 c 0,17,18
 1314 728 1314 728 1180 566 c 0,19,20
 999 349 999 349 604 349 c 1,21,-1
 604 359 l 1,22,23
 777 453 777 453 874 592 c 0,24,25
 975 735 975 735 975 931 c 0,26,27
 975 1135 975 1135 883 1247 c 0,28,29
 766 1390 766 1390 584 1390 c 2,30,-1
 490 1390 l 1,31,-1
 490 0 l 1,32,-1
 170 0 l 1,8,-1
EndSplineSet
Validated: 19457
EndChar

StartChar: uni1E57
Encoding: 7767 7767 200
Width: 1328
Flags: W
HStem: -410 21G<170 470> 0 10<558 568.278> 990 110<470 736.812> 1090 10<30 42.8174> 1170 370<533.14 770.86>
VStem: 170 300<-410 988.022> 470 364<1232.58 1477.42> 938 320<329.165 770.797>
LayerCount: 2
Fore
SplineSet
652 1540 m 128,-1,1
 728 1540 728 1540 781 1486 c 128,-1,2
 834 1432 834 1432 834 1355 c 128,-1,3
 834 1278 834 1278 781 1224 c 128,-1,4
 728 1170 728 1170 652 1170 c 128,-1,5
 576 1170 576 1170 523 1224 c 128,-1,6
 470 1278 470 1278 470 1355 c 128,-1,7
 470 1432 470 1432 523 1486 c 128,-1,0
 576 1540 576 1540 652 1540 c 128,-1,1
170 -410 m 1,8,-1
 170 910 l 2,9,10
 170 1043 170 1043 30 1090 c 1,11,-1
 30 1100 l 1,12,-1
 590 1100 l 2,13,14
 900 1100 900 1100 1079 946 c 0,15,16
 1258 793 1258 793 1258 550 c 0,17,18
 1258 298 1258 298 1075 150 c 0,19,20
 888 0 888 0 558 0 c 1,21,-1
 558 10 l 1,22,23
 727 85 727 85 827 210 c 0,24,25
 938 349 938 349 938 550 c 0,26,27
 938 750 938 750 825 876 c 0,28,29
 722 990 722 990 570 990 c 2,30,-1
 470 990 l 1,31,-1
 470 -410 l 1,32,-1
 170 -410 l 1,8,-1
EndSplineSet
Validated: 19457
EndChar

StartChar: uni1E60
Encoding: 7776 7776 201
Width: 1330
Flags: W
HStem: -20 120<468.177 800.782> 1100 21G<869 898.788> 1410 120<597.947 824.535> 1580 370<546.14 783.86>
VStem: 261 285<1136.36 1328.27> 483 364<1642.58 1887.42> 964 316<308.419 576.845>
DStem2: 726 1047 529 805 0.913009 -0.40794<-192.121 359.091>
LayerCount: 2
Fore
SplineSet
665 1950 m 128,-1,1
 741 1950 741 1950 794 1896 c 128,-1,2
 847 1842 847 1842 847 1765 c 128,-1,3
 847 1688 847 1688 794 1634 c 128,-1,4
 741 1580 741 1580 665 1580 c 128,-1,5
 589 1580 589 1580 536 1634 c 128,-1,6
 483 1688 483 1688 483 1765 c 128,-1,7
 483 1842 483 1842 536 1896 c 128,-1,0
 589 1950 589 1950 665 1950 c 128,-1,1
640 -20 m 128,-1,9
 358 -20 358 -20 208 122 c 0,10,11
 112 213 112 213 50 368 c 1,12,-1
 322 627 l 1,13,-1
 331 620 l 1,14,15
 314 535 314 535 314 440 c 0,16,17
 314 318 314 318 388 216 c 0,18,19
 472 100 472 100 645 100 c 0,20,21
 786 100 786 100 879 211 c 0,22,23
 964 313 964 313 964 434 c 0,24,25
 964 609 964 609 747 707 c 2,26,-1
 529 805 l 2,27,28
 261 925 261 925 261 1151 c 0,29,30
 261 1324 261 1324 401 1440 c 0,31,32
 509 1530 509 1530 695 1530 c 0,33,34
 900 1530 900 1530 1008 1426 c 0,35,36
 1060 1376 1060 1376 1089 1303 c 1,37,-1
 878 1100 l 1,38,-1
 869 1107 l 1,39,40
 880 1161 880 1161 880 1217 c 0,41,42
 880 1294 880 1294 844 1344 c 0,43,44
 796 1410 796 1410 708 1410 c 0,45,46
 641 1410 641 1410 598 1371 c 0,47,48
 546 1324 546 1324 546 1242 c 0,49,50
 546 1127 546 1127 726 1047 c 2,51,-1
 961 942 l 2,52,53
 1280 799 1280 799 1280 506 c 0,54,55
 1280 294 1280 294 1109 144 c 0,56,8
 922 -20 922 -20 640 -20 c 128,-1,9
EndSplineSet
Validated: 19457
EndChar

StartChar: uni1E61
Encoding: 7777 7777 202
Width: 1026
Flags: W
HStem: -20 109<347.403 616.45> 1011 109<470.737 638.043> 1170 370<397.14 634.86>
VStem: 190 253<719.5 970.176> 334 364<1232.58 1477.42> 690 286<206.751 398.495>
DStem2: 554 778 390 542 0.900552 -0.434749<-140.654 290.72>
LayerCount: 2
Fore
SplineSet
516 1540 m 128,-1,1
 592 1540 592 1540 645 1486 c 128,-1,2
 698 1432 698 1432 698 1355 c 128,-1,3
 698 1278 698 1278 645 1224 c 128,-1,4
 592 1170 592 1170 516 1170 c 128,-1,5
 440 1170 440 1170 387 1224 c 128,-1,6
 334 1278 334 1278 334 1355 c 128,-1,7
 334 1432 334 1432 387 1486 c 128,-1,0
 440 1540 440 1540 516 1540 c 128,-1,1
506 -20 m 0,8,9
 325 -20 325 -20 216.5 46.5 c 128,-1,10
 108 113 108 113 50 233 c 1,11,-1
 262 435 l 1,12,-1
 270 428 l 1,13,14
 258 377 258 377 258 326 c 0,15,16
 258 228 258 228 323 156 c 0,17,18
 384 89 384 89 481 89 c 0,19,20
 585 89 585 89 647 163 c 0,21,22
 690 215 690 215 690 289 c 0,23,24
 690 399 690 399 556 463 c 2,25,-1
 390 542 l 2,26,27
 190 637 190 637 190 802 c 0,28,29
 190 951 190 951 293 1036 c 0,30,31
 394 1120 394 1120 538 1120 c 0,32,33
 648 1120 648 1120 726 1077 c 0,34,35
 805 1033 805 1033 850 945 c 1,36,-1
 664 770 l 1,37,-1
 656 777 l 1,38,39
 670 825 670 825 670 865 c 0,40,41
 670 915 670 915 648 953 c 0,42,43
 614 1011 614 1011 550 1011 c 0,44,45
 506 1011 506 1011 476 983 c 0,46,47
 443 954 443 954 443 904 c 0,48,49
 443 832 443 832 554 778 c 2,50,-1
 757 680 l 2,51,52
 976 574 976 574 976 378 c 0,53,54
 976 207 976 207 827 88 c 0,55,56
 692 -20 692 -20 506 -20 c 0,8,9
EndSplineSet
Validated: 19457
EndChar

StartChar: uni1E6A
Encoding: 7786 7786 203
Width: 1210
Flags: W
HStem: 0 21G<446 766> 1390 120<77.5859 446 766 1132.41> 1580 370<486.14 723.86>
VStem: 10 10<1250 1262.82> 423 364<1642.58 1887.42> 446 320<0 1390> 1190 10<1250 1262.82>
LayerCount: 2
Fore
SplineSet
605 1950 m 128,-1,1
 681 1950 681 1950 734 1896 c 128,-1,2
 787 1842 787 1842 787 1765 c 128,-1,3
 787 1688 787 1688 734 1634 c 128,-1,4
 681 1580 681 1580 605 1580 c 128,-1,5
 529 1580 529 1580 476 1634 c 128,-1,6
 423 1688 423 1688 423 1765 c 128,-1,7
 423 1842 423 1842 476 1896 c 128,-1,0
 529 1950 529 1950 605 1950 c 128,-1,1
446 0 m 1,8,-1
 446 1390 l 1,9,-1
 200 1390 l 2,10,11
 67 1390 67 1390 20 1250 c 1,12,-1
 10 1250 l 1,13,-1
 10 1510 l 1,14,-1
 1200 1510 l 1,15,-1
 1200 1250 l 1,16,-1
 1190 1250 l 1,17,18
 1143 1390 1143 1390 1010 1390 c 2,19,-1
 766 1390 l 1,20,-1
 766 0 l 1,21,-1
 446 0 l 1,8,-1
EndSplineSet
Validated: 19457
EndChar

StartChar: uni1E6B
Encoding: 7787 7787 204
Width: 825
Flags: W
HStem: 0 10<597.183 610> 990 110<470 820> 1500 10<30 42.8174> 1580 370<175.14 412.86>
VStem: 112 364<1642.58 1887.42> 170 300<67.5859 990 1100 1442.41>
LayerCount: 2
Fore
SplineSet
294 1950 m 128,-1,1
 370 1950 370 1950 423 1896 c 128,-1,2
 476 1842 476 1842 476 1765 c 128,-1,3
 476 1688 476 1688 423 1634 c 128,-1,4
 370 1580 370 1580 294 1580 c 128,-1,5
 218 1580 218 1580 165 1634 c 128,-1,6
 112 1688 112 1688 112 1765 c 128,-1,7
 112 1842 112 1842 165 1896 c 128,-1,0
 218 1950 218 1950 294 1950 c 128,-1,1
170 0 m 1,8,-1
 170 1320 l 2,9,10
 170 1453 170 1453 30 1500 c 1,11,-1
 30 1510 l 1,12,-1
 470 1510 l 1,13,-1
 470 1100 l 1,14,-1
 820 1100 l 1,15,-1
 820 990 l 1,16,-1
 470 990 l 1,17,-1
 470 190 l 2,18,19
 470 57 470 57 610 10 c 1,20,-1
 610 0 l 1,21,-1
 170 0 l 1,8,-1
EndSplineSet
Validated: 19457
EndChar

StartChar: Wgrave
Encoding: 7808 7808 205
Width: 2408
Flags: W
HStem: 0 10<1173.56 1185 1796.56 1808> 1500 10<5 16.4404 628 639.44 1735 1743.15>
VStem: 1998 340<809.808 1273.54>
DStem2: 436 1510 169 1359 0.395387 -0.918515<0 1512.69> 1059 1510 792 1359 0.395387 -0.918515<0 1512.69>
LayerCount: 2
Fore
SplineSet
1179 1964 m 1,0,1
 1361 1822 1361 1822 1378 1560 c 1,2,-1
 1368 1560 l 1,3,4
 1198 1742 1198 1742 991 1777 c 1,5,-1
 1179 1964 l 1,0,1
754 0 m 1,6,-1
 169 1359 l 2,7,8
 129 1453 129 1453 5 1500 c 9,9,-1
 5 1510 l 1,10,-1
 436 1510 l 1,11,-1
 1021 151 l 2,12,13
 1061 57 1061 57 1185 10 c 9,14,-1
 1185 0 l 1,15,-1
 754 0 l 1,6,-1
1735 1510 m 1,16,17
 2338 1510 2338 1510 2338 1070 c 0,18,19
 2338 572 2338 572 1722 116 c 1,20,-1
 1716 124 l 1,21,22
 1998 615 1998 615 1998 1070 c 0,23,24
 1998 1377 1998 1377 1735 1500 c 1,25,-1
 1735 1510 l 1,16,17
1377 0 m 1,26,-1
 792 1359 l 2,27,28
 752 1453 752 1453 628 1500 c 9,29,-1
 628 1510 l 1,30,-1
 1059 1510 l 1,31,-1
 1644 151 l 2,32,33
 1684 57 1684 57 1808 10 c 9,34,-1
 1808 0 l 1,35,-1
 1377 0 l 1,26,-1
EndSplineSet
Validated: 1
EndChar

StartChar: wgrave
Encoding: 7809 7809 206
Width: 1979
Flags: W
HStem: 0 10<976.649 988 1517.65 1529> 1090 10<5 16.3511 546 557.351>
VStem: 1589 320<561.74 913.661>
DStem2: 415 1100 169 949 0.395787 -0.918342<0 1074.69> 956 1100 710 949 0.395787 -0.918342<0 1074.69>
LayerCount: 2
Fore
SplineSet
943 1554 m 1,0,1
 1125 1412 1125 1412 1142 1150 c 1,2,-1
 1132 1150 l 1,3,4
 962 1332 962 1332 755 1367 c 1,5,-1
 943 1554 l 1,0,1
988 0 m 1,6,-1
 578 0 l 1,7,-1
 169 949 l 2,8,9
 128 1045 128 1045 5 1090 c 9,10,-1
 5 1100 l 1,11,-1
 415 1100 l 1,12,-1
 824 151 l 2,13,14
 865 55 865 55 988 10 c 9,15,-1
 988 0 l 1,6,-1
1529 0 m 1,16,-1
 1119 0 l 1,17,-1
 710 949 l 2,18,19
 669 1045 669 1045 546 1090 c 9,20,-1
 546 1100 l 1,21,-1
 956 1100 l 1,22,-1
 1365 151 l 2,23,24
 1406 55 1406 55 1529 10 c 9,25,-1
 1529 0 l 1,16,-1
1375 1100 m 1,26,27
 1909 1100 1909 1100 1909 765 c 0,28,29
 1909 447 1909 447 1471 105 c 1,30,-1
 1465 113 l 1,31,32
 1589 410 1589 410 1589 693 c 0,33,34
 1589 978 1589 978 1375 1090 c 1,35,-1
 1375 1100 l 1,26,27
EndSplineSet
Validated: 1
EndChar

StartChar: Wacute
Encoding: 7810 7810 207
Width: 2408
Flags: W
HStem: 0 10<1173.56 1185 1796.56 1808> 1500 10<5 16.4404 628 639.44 1735 1743.15>
VStem: 1998 340<809.808 1273.54>
DStem2: 436 1510 169 1359 0.395387 -0.918515<0 1512.69> 1059 1510 792 1359 0.395387 -0.918515<0 1512.69>
LayerCount: 2
Fore
SplineSet
1402 1964 m 1,0,-1
 1590 1777 l 1,1,2
 1383 1742 1383 1742 1213 1560 c 1,3,-1
 1203 1560 l 1,4,5
 1220 1822 1220 1822 1402 1964 c 1,0,-1
754 0 m 1,6,-1
 169 1359 l 2,7,8
 129 1453 129 1453 5 1500 c 9,9,-1
 5 1510 l 1,10,-1
 436 1510 l 1,11,-1
 1021 151 l 2,12,13
 1061 57 1061 57 1185 10 c 9,14,-1
 1185 0 l 1,15,-1
 754 0 l 1,6,-1
1735 1510 m 1,16,17
 2338 1510 2338 1510 2338 1070 c 0,18,19
 2338 572 2338 572 1722 116 c 1,20,-1
 1716 124 l 1,21,22
 1998 615 1998 615 1998 1070 c 0,23,24
 1998 1377 1998 1377 1735 1500 c 1,25,-1
 1735 1510 l 1,16,17
1377 0 m 1,26,-1
 792 1359 l 2,27,28
 752 1453 752 1453 628 1500 c 9,29,-1
 628 1510 l 1,30,-1
 1059 1510 l 1,31,-1
 1644 151 l 2,32,33
 1684 57 1684 57 1808 10 c 9,34,-1
 1808 0 l 1,35,-1
 1377 0 l 1,26,-1
EndSplineSet
Validated: 1
EndChar

StartChar: wacute
Encoding: 7811 7811 208
Width: 1979
Flags: W
HStem: 0 10<976.649 988 1517.65 1529> 1090 10<5 16.3511 546 557.351>
VStem: 1589 320<561.74 913.661>
DStem2: 415 1100 169 949 0.395787 -0.918342<0 1074.69> 956 1100 710 949 0.395787 -0.918342<0 1074.69>
LayerCount: 2
Fore
SplineSet
1270 1554 m 1,0,-1
 1458 1367 l 1,1,2
 1251 1332 1251 1332 1081 1150 c 1,3,-1
 1071 1150 l 1,4,5
 1088 1412 1088 1412 1270 1554 c 1,0,-1
988 0 m 1,6,-1
 578 0 l 1,7,-1
 169 949 l 2,8,9
 128 1045 128 1045 5 1090 c 9,10,-1
 5 1100 l 1,11,-1
 415 1100 l 1,12,-1
 824 151 l 2,13,14
 865 55 865 55 988 10 c 9,15,-1
 988 0 l 1,6,-1
1529 0 m 1,16,-1
 1119 0 l 1,17,-1
 710 949 l 2,18,19
 669 1045 669 1045 546 1090 c 9,20,-1
 546 1100 l 1,21,-1
 956 1100 l 1,22,-1
 1365 151 l 2,23,24
 1406 55 1406 55 1529 10 c 9,25,-1
 1529 0 l 1,16,-1
1375 1100 m 1,26,27
 1909 1100 1909 1100 1909 765 c 0,28,29
 1909 447 1909 447 1471 105 c 1,30,-1
 1465 113 l 1,31,32
 1589 410 1589 410 1589 693 c 0,33,34
 1589 978 1589 978 1375 1090 c 1,35,-1
 1375 1100 l 1,26,27
EndSplineSet
Validated: 1
EndChar

StartChar: Wdieresis
Encoding: 7812 7812 209
Width: 2408
Flags: W
HStem: 0 10<1173.56 1185 1796.56 1808> 1500 10<5 16.4404 628 639.44 1735 1743.15> 1615 264<1019.19 1200.81 1360.19 1541.81>
VStem: 980 260<1654.71 1839.29> 1321 260<1654.71 1839.29> 1998 340<809.808 1273.54>
DStem2: 436 1510 169 1359 0.395387 -0.918515<0 1512.69> 1059 1510 792 1359 0.395387 -0.918515<0 1512.69>
LayerCount: 2
Fore
SplineSet
1451 1879 m 128,-1,1
 1505 1879 1505 1879 1543 1840.5 c 128,-1,2
 1581 1802 1581 1802 1581 1747 c 128,-1,3
 1581 1692 1581 1692 1543 1653.5 c 128,-1,4
 1505 1615 1505 1615 1451 1615 c 128,-1,5
 1397 1615 1397 1615 1359 1653.5 c 128,-1,6
 1321 1692 1321 1692 1321 1747 c 128,-1,7
 1321 1802 1321 1802 1359 1840.5 c 128,-1,0
 1397 1879 1397 1879 1451 1879 c 128,-1,1
1110 1879 m 128,-1,9
 1164 1879 1164 1879 1202 1840.5 c 128,-1,10
 1240 1802 1240 1802 1240 1747 c 128,-1,11
 1240 1692 1240 1692 1202 1653.5 c 128,-1,12
 1164 1615 1164 1615 1110 1615 c 128,-1,13
 1056 1615 1056 1615 1018 1653.5 c 128,-1,14
 980 1692 980 1692 980 1747 c 128,-1,15
 980 1802 980 1802 1018 1840.5 c 128,-1,8
 1056 1879 1056 1879 1110 1879 c 128,-1,9
754 0 m 1,16,-1
 169 1359 l 2,17,18
 129 1453 129 1453 5 1500 c 9,19,-1
 5 1510 l 1,20,-1
 436 1510 l 1,21,-1
 1021 151 l 2,22,23
 1061 57 1061 57 1185 10 c 9,24,-1
 1185 0 l 1,25,-1
 754 0 l 1,16,-1
1735 1510 m 1,26,27
 2338 1510 2338 1510 2338 1070 c 0,28,29
 2338 572 2338 572 1722 116 c 1,30,-1
 1716 124 l 1,31,32
 1998 615 1998 615 1998 1070 c 0,33,34
 1998 1377 1998 1377 1735 1500 c 1,35,-1
 1735 1510 l 1,26,27
1377 0 m 1,36,-1
 792 1359 l 2,37,38
 752 1453 752 1453 628 1500 c 9,39,-1
 628 1510 l 1,40,-1
 1059 1510 l 1,41,-1
 1644 151 l 2,42,43
 1684 57 1684 57 1808 10 c 9,44,-1
 1808 0 l 1,45,-1
 1377 0 l 1,36,-1
EndSplineSet
Validated: 1
EndChar

StartChar: wdieresis
Encoding: 7813 7813 210
Width: 1979
Flags: W
HStem: 0 10<976.649 988 1517.65 1529> 1090 10<5 16.3511 546 557.351> 1205 264<812.191 993.809 1153.19 1334.81>
VStem: 773 260<1244.71 1429.29> 1114 260<1244.71 1429.29> 1589 320<561.74 913.661>
DStem2: 415 1100 169 949 0.395787 -0.918342<0 1074.69> 956 1100 710 949 0.395787 -0.918342<0 1074.69>
LayerCount: 2
Fore
SplineSet
1244 1469 m 128,-1,1
 1298 1469 1298 1469 1336 1430.5 c 128,-1,2
 1374 1392 1374 1392 1374 1337 c 128,-1,3
 1374 1282 1374 1282 1336 1243.5 c 128,-1,4
 1298 1205 1298 1205 1244 1205 c 128,-1,5
 1190 1205 1190 1205 1152 1243.5 c 128,-1,6
 1114 1282 1114 1282 1114 1337 c 128,-1,7
 1114 1392 1114 1392 1152 1430.5 c 128,-1,0
 1190 1469 1190 1469 1244 1469 c 128,-1,1
903 1469 m 128,-1,9
 957 1469 957 1469 995 1430.5 c 128,-1,10
 1033 1392 1033 1392 1033 1337 c 128,-1,11
 1033 1282 1033 1282 995 1243.5 c 128,-1,12
 957 1205 957 1205 903 1205 c 128,-1,13
 849 1205 849 1205 811 1243.5 c 128,-1,14
 773 1282 773 1282 773 1337 c 128,-1,15
 773 1392 773 1392 811 1430.5 c 128,-1,8
 849 1469 849 1469 903 1469 c 128,-1,9
988 0 m 1,16,-1
 578 0 l 1,17,-1
 169 949 l 2,18,19
 128 1045 128 1045 5 1090 c 9,20,-1
 5 1100 l 1,21,-1
 415 1100 l 1,22,-1
 824 151 l 2,23,24
 865 55 865 55 988 10 c 9,25,-1
 988 0 l 1,16,-1
1529 0 m 1,26,-1
 1119 0 l 1,27,-1
 710 949 l 2,28,29
 669 1045 669 1045 546 1090 c 9,30,-1
 546 1100 l 1,31,-1
 956 1100 l 1,32,-1
 1365 151 l 2,33,34
 1406 55 1406 55 1529 10 c 9,35,-1
 1529 0 l 1,26,-1
1375 1100 m 1,36,37
 1909 1100 1909 1100 1909 765 c 0,38,39
 1909 447 1909 447 1471 105 c 1,40,-1
 1465 113 l 1,41,42
 1589 410 1589 410 1589 693 c 0,43,44
 1589 978 1589 978 1375 1090 c 1,45,-1
 1375 1100 l 1,36,37
EndSplineSet
Validated: 1
EndChar

StartChar: Ygrave
Encoding: 7922 7922 211
Width: 1567
Flags: W
HStem: 0 21G<660 980> 1500 10<5 17.5654>
VStem: 660 320<0 504> 1167 330<961.707 1341.83>
DStem2: 459 1510 193 1361 0.474697 -0.880149<0 980.844>
LayerCount: 2
Fore
SplineSet
597 1964 m 1,0,1
 779 1822 779 1822 796 1560 c 1,2,-1
 786 1560 l 1,3,4
 616 1742 616 1742 409 1777 c 1,5,-1
 597 1964 l 1,0,1
660 0 m 1,6,-1
 660 504 l 1,7,-1
 193 1361 l 2,8,9
 141 1457 141 1457 5 1500 c 1,10,-1
 5 1510 l 1,11,-1
 459 1510 l 1,12,-1
 980 544 l 1,13,-1
 980 0 l 1,14,-1
 660 0 l 1,6,-1
998 1510 m 1,15,16
 1497 1510 1497 1510 1497 1170 c 0,17,18
 1497 820 1497 820 1047 576 c 1,19,-1
 1041 584 l 1,20,21
 1167 816 1167 816 1167 1101 c 0,22,23
 1167 1383 1167 1383 998 1500 c 1,24,-1
 998 1510 l 1,15,16
EndSplineSet
Validated: 1
EndChar

StartChar: ygrave
Encoding: 7923 7923 212
Width: 1328
Flags: W
HStem: -410 10<428 438.127> 0 110<589.751 833> 1100 0G<458.5 565 858 1158>
VStem: 70 320<335.136 769.431> 858 300<117.344 1100>
LayerCount: 2
Fore
SplineSet
519 1554 m 1,0,1
 701 1412 701 1412 718 1150 c 1,2,-1
 708 1150 l 1,3,4
 538 1332 538 1332 331 1367 c 1,5,-1
 519 1554 l 1,0,1
738 0 m 2,6,7
 423 0 423 0 255 148 c 0,8,9
 70 311 70 311 70 550 c 0,10,11
 70 780 70 780 239 943 c 0,12,13
 362 1061 362 1061 555 1120 c 1,14,-1
 565 1120 l 1,15,16
 479 992 479 992 435 852 c 0,17,18
 390 707 390 707 390 550 c 0,19,20
 390 347 390 347 498.5 228.5 c 128,-1,21
 607 110 607 110 758 110 c 2,22,-1
 854 110 l 1,23,24
 858 149 858 149 858 190 c 2,25,-1
 858 1100 l 1,26,-1
 1158 1100 l 1,27,-1
 1158 190 l 2,28,29
 1158 -410 1158 -410 428 -410 c 1,30,-1
 428 -400 l 1,31,32
 754 -274 754 -274 833 0 c 1,33,-1
 738 0 l 2,6,7
EndSplineSet
Validated: 19457
EndChar

StartChar: f
Encoding: 102 102 213
Width: 1251
Flags: W
HStem: 0 21G<170 470> 670 110<470 962> 1116 21G<1024 1054.09> 1419 109<626.296 931.012>
VStem: 170 300<0 670 780 1193.83>
LayerCount: 2
Fore
SplineSet
170 0 m 1,0,-1
 170 958 l 2,1,2
 170 1184 170 1184 302 1336 c 0,3,4
 469 1528 469 1528 771 1528 c 0,5,6
 1070 1528 1070 1528 1246 1318 c 1,7,-1
 1033 1116 l 1,8,-1
 1024 1123 l 1,9,10
 1028 1145 1028 1145 1028 1179 c 0,11,12
 1028 1263 1028 1263 975 1332 c 0,13,14
 908 1419 908 1419 781 1419 c 0,15,16
 655 1419 655 1419 576 1333 c 0,17,18
 470 1219 470 1219 470 958 c 2,19,-1
 470 780 l 1,20,-1
 962 780 l 1,21,-1
 962 670 l 1,22,-1
 470 670 l 1,23,-1
 470 0 l 1,24,-1
 170 0 l 1,0,-1
EndSplineSet
Validated: 19457
EndChar

StartChar: circumflex
Encoding: 710 710 214
Width: 682
Flags: W
HStem: 1506 48<312 370>
VStem: 20 642
LayerCount: 2
Fore
SplineSet
336 1554 m 1,0,-1
 346 1554 l 1,1,2
 461 1362 461 1362 662 1290 c 1,3,-1
 521 1150 l 1,4,5
 359 1280 359 1280 341 1506 c 1,6,7
 323 1280 323 1280 161 1150 c 1,8,-1
 20 1290 l 1,9,10
 221 1362 221 1362 336 1554 c 1,0,-1
EndSplineSet
Validated: 19457
EndChar

StartChar: caron
Encoding: 711 711 215
Width: 682
Flags: W
HStem: 1150 48<312 370>
VStem: 20 642
LayerCount: 2
Fore
SplineSet
161 1554 m 1,0,1
 323 1424 323 1424 341 1198 c 1,2,3
 359 1424 359 1424 521 1554 c 1,4,-1
 662 1414 l 1,5,6
 461 1342 461 1342 346 1150 c 1,7,-1
 336 1150 l 1,8,9
 221 1342 221 1342 20 1414 c 1,10,-1
 161 1554 l 1,0,1
EndSplineSet
Validated: 19457
EndChar

StartChar: uni02C9
Encoding: 713 713 216
Width: 658
Flags: W
HStem: 1270 141<20 638>
VStem: 20 618<1270 1411>
LayerCount: 2
Fore
SplineSet
20 1411 m 1,0,-1
 638 1411 l 1,1,-1
 638 1270 l 1,2,-1
 20 1270 l 1,3,-1
 20 1411 l 1,0,-1
EndSplineSet
Validated: 19457
EndChar

StartChar: breve
Encoding: 728 728 217
Width: 658
Flags: W
HStem: 1210 146<173.91 484.09>
VStem: 20 110<1402.76 1471> 528 110<1402.76 1471>
LayerCount: 2
Fore
SplineSet
20 1471 m 1,0,-1
 130 1471 l 1,1,2
 159 1356 159 1356 329 1356 c 128,-1,3
 499 1356 499 1356 528 1471 c 1,4,-1
 638 1471 l 1,5,6
 600 1210 600 1210 329 1210 c 128,-1,7
 58 1210 58 1210 20 1471 c 1,0,-1
EndSplineSet
Validated: 19457
EndChar

StartChar: dotaccent
Encoding: 729 729 218
Width: 404
Flags: W
HStem: 1170 370<83.1396 320.86>
VStem: 20 364<1232.58 1477.42>
LayerCount: 2
Fore
SplineSet
202 1540 m 128,-1,1
 278 1540 278 1540 331 1486 c 128,-1,2
 384 1432 384 1432 384 1355 c 128,-1,3
 384 1278 384 1278 331 1224 c 128,-1,4
 278 1170 278 1170 202 1170 c 128,-1,5
 126 1170 126 1170 73 1224 c 128,-1,6
 20 1278 20 1278 20 1355 c 128,-1,7
 20 1432 20 1432 73 1486 c 128,-1,0
 126 1540 126 1540 202 1540 c 128,-1,1
EndSplineSet
Validated: 19457
EndChar

StartChar: ring
Encoding: 730 730 219
Width: 406
Flags: W
HStem: 1170 90<136.695 269.305> 1450 90<136.695 269.305>
VStem: 20 97<1280.02 1429.98> 289 97<1280.02 1429.98>
LayerCount: 2
Fore
SplineSet
203 1450 m 128,-1,1
 167 1450 167 1450 142 1422.5 c 128,-1,2
 117 1395 117 1395 117 1355 c 128,-1,3
 117 1315 117 1315 142 1287.5 c 128,-1,4
 167 1260 167 1260 203 1260 c 128,-1,5
 239 1260 239 1260 264 1287.5 c 128,-1,6
 289 1315 289 1315 289 1355 c 128,-1,7
 289 1395 289 1395 264 1422.5 c 128,-1,0
 239 1450 239 1450 203 1450 c 128,-1,1
203 1540 m 128,-1,9
 279 1540 279 1540 332.5 1486 c 128,-1,10
 386 1432 386 1432 386 1355 c 128,-1,11
 386 1278 386 1278 332.5 1224 c 128,-1,12
 279 1170 279 1170 203 1170 c 128,-1,13
 127 1170 127 1170 73.5 1224 c 128,-1,14
 20 1278 20 1278 20 1355 c 128,-1,15
 20 1432 20 1432 73.5 1486 c 128,-1,8
 127 1540 127 1540 203 1540 c 128,-1,9
EndSplineSet
Validated: 19457
EndChar

StartChar: ogonek
Encoding: 731 731 220
Width: 403
Flags: W
HStem: -430 202<245.903 383> -20 20G<72 251>
VStem: 20 180<-248 -65.5317>
LayerCount: 2
Fore
SplineSet
124 0 m 1,0,1
 251 0 l 1,2,3
 200 -49 200 -49 200 -109 c 128,-1,4
 200 -169 200 -169 244.5 -198.5 c 128,-1,5
 289 -228 289 -228 383 -228 c 1,6,-1
 383 -430 l 1,7,8
 162 -430 162 -430 78 -346 c 0,9,10
 20 -289 20 -289 20 -207 c 0,11,12
 20 -91 20 -91 124 0 c 1,0,1
EndSplineSet
Validated: 19457
EndChar

StartChar: tilde
Encoding: 732 732 221
Width: 730
Flags: W
HStem: 1200 134<426.704 595.648> 1333 134<134.352 303.296>
VStem: 20 80<1203 1292.72> 630 80<1374.28 1464>
DStem2: 365 1424 283 1304 0.802342 -0.596864<-70.7456 178.778>
LayerCount: 2
Fore
SplineSet
630 1464 m 1,0,-1
 710 1464 l 1,1,2
 672 1200 672 1200 482 1200 c 0,3,4
 423 1200 423 1200 365 1243 c 2,5,-1
 283 1304 l 2,6,7
 244 1333 244 1333 208 1333 c 0,8,9
 129 1333 129 1333 100 1203 c 1,10,-1
 20 1203 l 1,11,12
 58 1467 58 1467 248 1467 c 0,13,14
 307 1467 307 1467 365 1424 c 2,15,-1
 447 1363 l 2,16,17
 486 1334 486 1334 522 1334 c 0,18,19
 601 1334 601 1334 630 1464 c 1,0,-1
EndSplineSet
Validated: 19457
EndChar

StartChar: hungarumlaut
Encoding: 733 733 222
Width: 683
Flags: W
HStem: 1180 344
VStem: 20 643
LayerCount: 2
Fore
SplineSet
185 1524 m 1,0,-1
 345 1365 l 1,1,2
 168 1323 168 1323 29 1180 c 1,3,-1
 20 1180 l 1,4,5
 28 1391 28 1391 185 1524 c 1,0,-1
503 1524 m 1,6,-1
 663 1365 l 1,7,8
 486 1323 486 1323 347 1180 c 1,9,-1
 338 1180 l 1,10,11
 346 1391 346 1391 503 1524 c 1,6,-1
EndSplineSet
Validated: 19457
EndChar

StartChar: uni1E9E
Encoding: 7838 7838 223
Width: 1378
Flags: W
HStem: 0 21G<170 490 610 785> 1390 120<490 702.495> 1500 10<30 42.8174>
VStem: 170 320<0 1388.01> 968 340<318.888 717.81>
LayerCount: 2
Fore
SplineSet
170 0 m 1,0,-1
 170 1320 l 10,1,2
 170 1453 170 1453 30 1500 c 1,3,-1
 30 1510 l 1,4,-1
 611 1510 l 2,5,6
 848 1510 848 1510 969 1415 c 0,7,8
 1026 1370 1026 1370 1062 1288 c 1,9,-1
 758 1024 l 1,10,11
 1036 995 1036 995 1189 843 c 0,12,13
 1308 724 1308 724 1308 518 c 0,14,15
 1308 309 1308 309 1148 167 c 0,16,17
 960 0 960 0 610 0 c 1,18,19
 610 10 l 1,20,21
 774 92 774 92 868 212 c 0,22,23
 968 340 968 340 968 504 c 0,24,25
 968 670 968 670 892 768 c 0,26,27
 782 909 782 909 567 909 c 1,28,-1
 567 1029 l 1,29,-1
 765 1218 l 1,30,31
 765 1296 765 1296 705 1347 c 0,32,33
 655 1390 655 1390 566 1390 c 2,34,-1
 490 1390 l 1,35,-1
 490 0 l 1,36,-1
 170 0 l 1,0,-1
EndSplineSet
Validated: 19457
EndChar

StartChar: uni203D
Encoding: 8253 8253 224
Width: 1380
Flags: W
HStem: -20 370<534.14 771.86> 1410 120<523.553 824.59>
VStem: 471 364<42.5779 287.422> 521 262<848.938 1181.78> 940 320<915.168 1269.65>
LayerCount: 2
Fore
SplineSet
704 1530 m 0,0,1
 956 1530 956 1530 1098 1413 c 0,2,3
 1260 1280 1260 1280 1260 1078 c 0,4,5
 1260 811 1260 811 1011 670 c 2,6,-1
 879 595 l 2,7,8
 752 523 752 523 657 426 c 1,9,-1
 647 426 l 1,10,11
 622 458 622 458 622 506 c 0,12,13
 622 523 622 523 625 539 c 1,14,-1
 524 1061 l 2,15,16
 521 1076 521 1076 521 1089 c 0,17,18
 521 1145 521 1145 559 1183.5 c 128,-1,19
 597 1222 597 1222 652 1222 c 128,-1,20
 707 1222 707 1222 745 1183 c 128,-1,21
 783 1144 783 1144 783 1089 c 0,22,23
 783 1076 783 1076 780 1061 c 2,24,-1
 707 684 l 1,25,-1
 815 801 l 2,26,27
 940 936 940 936 940 1091 c 0,28,29
 940 1226 940 1226 875 1316 c 0,30,31
 807 1410 807 1410 673 1410 c 0,32,33
 548 1410 548 1410 481 1323 c 0,34,35
 395 1211 395 1211 395 1081 c 0,36,37
 395 1013 395 1013 409 933 c 1,38,-1
 403 925 l 1,39,-1
 120 1202 l 1,40,41
 190 1309 190 1309 297 1398 c 0,42,43
 456 1530 456 1530 704 1530 c 0,0,1
653 -20 m 128,-1,45
 577 -20 577 -20 524 34 c 128,-1,46
 471 88 471 88 471 165 c 128,-1,47
 471 242 471 242 524 296 c 128,-1,48
 577 350 577 350 653 350 c 128,-1,49
 729 350 729 350 782 296 c 128,-1,50
 835 242 835 242 835 165 c 128,-1,51
 835 88 835 88 782 34 c 128,-1,44
 729 -20 729 -20 653 -20 c 128,-1,45
EndSplineSet
Validated: 19457
EndChar

StartChar: afii61352
Encoding: 8470 8470 225
Width: 2282
Flags: W
HStem: 0 141<1525 2162> 0 10<839 847.527> 196 65<1775.78 1911.47> 710 65<1776.27 1912.33> 1500 10<30 42.8174>
VStem: 170 320<0 1442.41> 1114 328<249.699 745.314> 1132 310<1043 1510> 1525 196<325.424 646.183> 1966 196<322.823 647.622>
LayerCount: 2
Fore
SplineSet
1525 141 m 1,0,-1
 2162 141 l 1,1,-1
 2162 0 l 1,2,-1
 1525 0 l 1,3,-1
 1525 141 l 1,0,-1
1843.5 710 m 128,-1,5
 1788 710 1788 710 1753 648 c 0,6,7
 1721 592 1721 592 1721 485 c 0,8,9
 1721 380 1721 380 1753 323 c 0,10,11
 1788 261 1788 261 1843.5 261 c 128,-1,12
 1899 261 1899 261 1934 323 c 0,13,14
 1966 380 1966 380 1966 486 c 0,15,16
 1966 591 1966 591 1934 648 c 0,17,4
 1899 710 1899 710 1843.5 710 c 128,-1,5
1842 775 m 0,18,19
 2011 775 2011 775 2097 676 c 0,20,21
 2162 601 2162 601 2162 486 c 0,22,23
 2162 366 2162 366 2097 295 c 0,24,25
 2006 196 2006 196 1842 196 c 0,26,27
 1674 196 1674 196 1591 295 c 0,28,29
 1525 375 1525 375 1525 485 c 0,30,31
 1525 600 1525 600 1591 676 c 0,32,33
 1677 775 1677 775 1842 775 c 0,18,19
170 0 m 1,34,-1
 170 1320 l 10,35,36
 170 1453 170 1453 30 1500 c 1,37,-1
 30 1510 l 1,38,-1
 490 1510 l 1,39,-1
 490 0 l 1,40,-1
 170 0 l 1,34,-1
839 0 m 1,41,-1
 839 10 l 1,42,43
 1114 100 1114 100 1114 449 c 0,44,45
 1114 989 1114 989 556 1435 c 1,46,-1
 562 1444 l 1,47,48
 898 1288 898 1288 1132 1043 c 1,49,-1
 1132 1510 l 1,50,-1
 1442 1510 l 1,51,-1
 1442 463 l 2,52,53
 1442 0 1442 0 839 0 c 1,41,-1
EndSplineSet
Validated: 19457
EndChar

StartChar: uni2117
Encoding: 8471 8471 226
Width: 1341
Flags: W
HStem: 386 55<504.73 827.893> 1254 71<617 739.788> 1475 55<512.972 828.032>
VStem: 120 60<779.952 1138.53> 417 200<560 1252.48> 819 210<887.143 1185.43> 1160 61<771.255 1146.12>
LayerCount: 2
Fore
SplineSet
417 560 m 1,0,-1
 417 1226 l 2,1,2
 417 1291 417 1291 347 1315 c 1,3,-1
 347 1325 l 1,4,-1
 685 1325 l 2,5,6
 851 1325 851 1325 940 1243 c 128,-1,7
 1029 1161 1029 1161 1029 1046 c 0,8,9
 1029 900 1029 900 918.5 817 c 128,-1,10
 808 734 808 734 635 734 c 1,11,-1
 635 745 l 1,12,13
 717 786 717 786 768 860 c 128,-1,14
 819 934 819 934 819 1033 c 128,-1,15
 819 1132 819 1132 769 1193 c 0,16,17
 718 1254 718 1254 645 1254 c 2,18,-1
 617 1254 l 1,19,-1
 617 560 l 1,20,-1
 417 560 l 1,0,-1
671 1530 m 0,21,22
 913 1530 913 1530 1069 1357 c 0,23,24
 1221 1188 1221 1188 1221 953 c 0,25,26
 1221 701 1221 701 1060 549 c 0,27,28
 889 386 889 386 669 386 c 0,29,30
 446 386 446 386 281 549 c 0,31,32
 120 708 120 708 120 953 c 0,33,34
 120 1197 120 1197 278 1362 c 0,35,36
 439 1530 439 1530 671 1530 c 0,21,22
669 1475 m 0,37,38
 473 1475 473 1475 327 1330 c 0,39,40
 180 1184 180 1184 180 953 c 0,41,42
 180 751 180 751 324 591 c 0,43,44
 459 441 459 441 671 441 c 0,45,46
 868 441 868 441 1017 591 c 0,47,48
 1160 736 1160 736 1160 953 c 0,49,50
 1160 1188 1160 1188 1019 1327 c 0,51,52
 869 1475 869 1475 669 1475 c 0,37,38
EndSplineSet
Validated: 19457
EndChar

StartChar: integral
Encoding: 8747 8747 227
Width: 1049
Flags: W
HStem: -250 120<20 223.253> 1640 120<825.747 1029>
VStem: 377 295<25.5054 1484.49>
LayerCount: 2
Fore
SplineSet
20 -250 m 1,0,1
 20 -130 l 1,2,3
 377 -130 377 -130 377 220 c 2,4,-1
 377 1290 l 2,5,6
 377 1760 377 1760 1029 1760 c 1,7,-1
 1029 1640 l 1,8,9
 672 1640 672 1640 672 1290 c 2,10,-1
 672 220 l 2,11,12
 672 -250 672 -250 20 -250 c 1,0,1
EndSplineSet
Validated: 19457
EndChar

StartChar: Ugrave
Encoding: 217 217 228
Width: 1634
Flags: W
HStem: -20 120<667.93 960.619> 1500 10<30 42.8174>
VStem: 170 320<324.75 1442.41> 1144 320<320.442 1510>
LayerCount: 2
Fore
SplineSet
619 1964 m 1,0,1
 801 1822 801 1822 818 1560 c 1,2,-1
 808 1560 l 1,3,4
 638 1742 638 1742 431 1777 c 1,5,-1
 619 1964 l 1,0,1
815 -20 m 0,6,7
 510 -20 510 -20 340 142 c 0,8,9
 170 303 170 303 170 551 c 2,10,-1
 170 1320 l 10,11,12
 170 1453 170 1453 30 1500 c 1,13,-1
 30 1510 l 1,14,-1
 490 1510 l 1,15,-1
 490 555 l 2,16,17
 490 356 490 356 576 234 c 0,18,19
 670 100 670 100 818 100 c 0,20,21
 922 100 922 100 1014 185 c 0,22,23
 1144 305 1144 305 1144 555 c 2,24,-1
 1144 1510 l 1,25,-1
 1464 1510 l 1,26,-1
 1464 551 l 2,27,28
 1464 300 1464 300 1298 145 c 0,29,30
 1121 -20 1121 -20 815 -20 c 0,6,7
EndSplineSet
Validated: 19457
EndChar

StartChar: Uacute
Encoding: 218 218 229
Width: 1634
Flags: W
HStem: -20 120<667.93 960.619> 1500 10<30 42.8174>
VStem: 170 320<324.75 1442.41> 1144 320<320.442 1510>
LayerCount: 2
Fore
SplineSet
1021 1964 m 1,0,-1
 1209 1777 l 1,1,2
 1002 1742 1002 1742 832 1560 c 1,3,-1
 822 1560 l 1,4,5
 839 1822 839 1822 1021 1964 c 1,0,-1
815 -20 m 0,6,7
 510 -20 510 -20 340 142 c 0,8,9
 170 303 170 303 170 551 c 2,10,-1
 170 1320 l 10,11,12
 170 1453 170 1453 30 1500 c 1,13,-1
 30 1510 l 1,14,-1
 490 1510 l 1,15,-1
 490 555 l 2,16,17
 490 356 490 356 576 234 c 0,18,19
 670 100 670 100 818 100 c 0,20,21
 922 100 922 100 1014 185 c 0,22,23
 1144 305 1144 305 1144 555 c 2,24,-1
 1144 1510 l 1,25,-1
 1464 1510 l 1,26,-1
 1464 551 l 2,27,28
 1464 300 1464 300 1298 145 c 0,29,30
 1121 -20 1121 -20 815 -20 c 0,6,7
EndSplineSet
Validated: 19457
EndChar

StartChar: uni00B2
Encoding: 178 178 230
Width: 666
Flags: W
HStem: 773 81<20 620.5> 1478 72<250.355 403.924>
VStem: 436 210<1200.5 1442.4> 636 10<911.49 924>
LayerCount: 2
Fore
SplineSet
20 773 m 1,0,-1
 20 854 l 1,1,-1
 532 854 l 2,2,3
 612 854 612 854 636 924 c 1,4,-1
 646 924 l 1,5,-1
 646 773 l 1,6,-1
 20 773 l 1,0,-1
346 1550 m 0,7,8
 484 1550 484 1550 566 1482 c 0,9,10
 646 1417 646 1417 646 1312 c 0,11,12
 646 1150 646 1150 490 1084 c 2,13,-1
 341 1021 l 2,14,15
 171 949 171 949 81 881 c 1,16,-1
 74 889 l 1,17,18
 149 1001 149 1001 235 1068 c 2,19,-1
 343 1152 l 2,20,21
 436 1224 436 1224 436 1336 c 0,22,23
 436 1401 436 1401 407 1439 c 0,24,25
 377 1478 377 1478 331 1478 c 0,26,27
 281 1478 281 1478 245 1437 c 0,28,29
 202 1386 202 1386 202 1317 c 0,30,31
 202 1266 202 1266 209 1224 c 1,32,-1
 203 1215 l 1,33,-1
 34 1381 l 1,34,35
 142 1550 142 1550 346 1550 c 0,7,8
EndSplineSet
Validated: 19457
EndChar

StartChar: uni00B3
Encoding: 179 179 231
Width: 686
Flags: W
HStem: 773 71<234.024 402.729> 1084 20G<163.753 191> 1479 71<171.021 348>
VStem: 143 10<1410 1422.33> 199 208<1252 1460> 462 204<902.696 1184.99>
LayerCount: 2
Fore
SplineSet
143 1550 m 1,0,-1
 602 1550 l 1,1,-1
 407 1252 l 1,2,-1
 199 1252 l 1,3,-1
 348 1479 l 1,4,-1
 258 1479 l 2,5,6
 174 1479 174 1479 153 1410 c 1,7,-1
 143 1410 l 1,8,-1
 143 1550 l 1,0,-1
326 773 m 0,9,10
 190 773 190 773 109 843 c 0,11,12
 52 892 52 892 20 942 c 1,13,-1
 184 1104 l 1,14,-1
 191 1096 l 1,15,16
 182 1055 182 1055 182 1019 c 0,17,18
 182 961 182 961 205 918 c 0,19,20
 244 844 244 844 317 844 c 0,21,22
 385 844 385 844 422 902 c 0,23,24
 462 963 462 963 462 1064 c 0,25,26
 462 1150 462 1150 434 1263 c 1,27,-1
 439 1272 l 1,28,29
 530 1271 530 1271 596 1212 c 0,30,31
 666 1149 666 1149 666 1045 c 0,32,33
 666 937 666 937 583 857 c 24,34,35
 496 773 496 773 326 773 c 0,9,10
EndSplineSet
Validated: 19457
EndChar

StartChar: uni00B9
Encoding: 185 185 232
Width: 390
Flags: W
VStem: 120 200<769 1427.18>
LayerCount: 2
Fore
SplineSet
320 1560 m 1,0,-1
 320 769 l 1,1,-1
 120 769 l 1,2,-1
 120 1339 l 2,3,4
 120 1439 120 1439 20 1439 c 1,5,-1
 20 1451 l 1,6,-1
 320 1560 l 1,0,-1
EndSplineSet
Validated: 19457
EndChar

StartChar: onequarter
Encoding: 188 188 233
Width: 1598
Flags: W
HStem: 0 1G<413.459 460.993 1278 1478> 128 10<1254.31 1266> 1510 20G<364.954 420 925.014 978.303>
VStem: 220 200<739 1397.18> 866 210<241.783 523.346> 1278 200<0 560>
DStem2: 222 102 451 -20 0.446965 0.894551<0 1596.11>
LayerCount: 2
Fore
SplineSet
420 1530 m 1,0,-1
 420 739 l 1,1,-1
 220 739 l 1,2,-1
 220 1309 l 2,3,4
 220 1409 220 1409 120 1409 c 1,5,-1
 120 1421 l 1,6,-1
 420 1530 l 1,0,-1
451 -20 m 1,7,-1
 222 102 l 1,8,-1
 935 1530 l 1,9,-1
 1171 1421 l 1,10,-1
 451 -20 l 1,7,-1
1478 0 m 1,11,-1
 1278 0 l 1,12,-1
 1278 560 l 1,13,-1
 1478 560 l 1,14,-1
 1478 0 l 1,11,-1
1168 764 m 1,15,-1
 1284 764 l 1,16,17
 1076 588 1076 588 1076 379 c 0,18,19
 1076 209 1076 209 1266 138 c 1,20,-1
 1266 128 l 1,21,22
 866 130 866 130 866 379 c 0,23,24
 866 568 866 568 1168 764 c 1,15,-1
EndSplineSet
Validated: 19457
EndChar

StartChar: onehalf
Encoding: 189 189 234
Width: 1656
Flags: W
HStem: -20 21G<413.459 460.993> 0 81<910 1510.5> 705 72<1140.36 1293.92> 1510 20G<364.954 420 925.014 978.303>
VStem: 220 200<739 1397.18> 1326 210<427.496 669.684> 1526 10<138.49 151>
DStem2: 222 102 451 -20 0.446965 0.894551<0 1596.11>
LayerCount: 2
Fore
SplineSet
910 0 m 1,0,-1
 910 81 l 1,1,-1
 1422 81 l 2,2,3
 1502 81 1502 81 1526 151 c 1,4,-1
 1536 151 l 1,5,-1
 1536 0 l 1,6,-1
 910 0 l 1,0,-1
1236 777 m 0,7,8
 1374 777 1374 777 1456 710 c 0,9,10
 1536 644 1536 644 1536 539 c 0,11,12
 1536 377 1536 377 1380 311 c 2,13,-1
 1231 248 l 2,14,15
 1061 176 1061 176 971 108 c 1,16,-1
 964 116 l 1,17,18
 1039 228 1039 228 1125 295 c 2,19,-1
 1233 379 l 2,20,21
 1326 451 1326 451 1326 563 c 0,22,23
 1326 628 1326 628 1297 666 c 0,24,25
 1267 705 1267 705 1221 705 c 0,26,27
 1171 705 1171 705 1135 664 c 0,28,29
 1092 613 1092 613 1092 544 c 0,30,31
 1092 493 1092 493 1099 451 c 1,32,-1
 1093 442 l 1,33,-1
 924 608 l 1,34,35
 1032 777 1032 777 1236 777 c 0,7,8
420 1530 m 1,36,-1
 420 739 l 1,37,-1
 220 739 l 1,38,-1
 220 1309 l 2,39,40
 220 1409 220 1409 120 1409 c 1,41,-1
 120 1421 l 1,42,-1
 420 1530 l 1,36,-1
451 -20 m 1,43,-1
 222 102 l 1,44,-1
 935 1530 l 1,45,-1
 1171 1421 l 1,46,-1
 451 -20 l 1,43,-1
EndSplineSet
Validated: 19457
EndChar

StartChar: threequarters
Encoding: 190 190 235
Width: 1884
Flags: W
HStem: 0 1G<699.459 746.993 1564 1764> 128 10<1540.31 1552> 743 71<334.024 502.729> 1449 71<271.021 448>
VStem: 243 10<1380 1392.33> 299 208<1222 1430> 562 204<872.696 1154.99> 1152 210<241.783 523.346> 1564 200<0 560>
DStem2: 508 102 737 -20 0.446965 0.894551<0 1596.11>
LayerCount: 2
Fore
SplineSet
243 1520 m 1,0,-1
 702 1520 l 1,1,-1
 507 1222 l 1,2,-1
 299 1222 l 1,3,-1
 448 1449 l 1,4,-1
 358 1449 l 2,5,6
 274 1449 274 1449 253 1380 c 1,7,-1
 243 1380 l 1,8,-1
 243 1520 l 1,0,-1
426 743 m 0,9,10
 290 743 290 743 209 813 c 0,11,12
 152 862 152 862 120 912 c 1,13,-1
 284 1074 l 1,14,-1
 291 1066 l 1,15,16
 282 1025 282 1025 282 989 c 0,17,18
 282 931 282 931 305 888 c 0,19,20
 344 814 344 814 417 814 c 0,21,22
 485 814 485 814 522 872 c 0,23,24
 562 933 562 933 562 1034 c 0,25,26
 562 1120 562 1120 534 1233 c 1,27,-1
 539 1242 l 1,28,29
 630 1241 630 1241 696 1182 c 0,30,31
 766 1119 766 1119 766 1015 c 0,32,33
 766 907 766 907 683 827 c 24,34,35
 596 743 596 743 426 743 c 0,9,10
737 -20 m 1,36,-1
 508 102 l 1,37,-1
 1221 1530 l 1,38,-1
 1457 1421 l 1,39,-1
 737 -20 l 1,36,-1
1764 0 m 1,40,-1
 1564 0 l 1,41,-1
 1564 560 l 1,42,-1
 1764 560 l 1,43,-1
 1764 0 l 1,40,-1
1454 764 m 1,44,-1
 1570 764 l 1,45,46
 1362 588 1362 588 1362 379 c 0,47,48
 1362 209 1362 209 1552 138 c 1,49,-1
 1552 128 l 1,50,51
 1152 130 1152 130 1152 379 c 0,52,53
 1152 568 1152 568 1454 764 c 1,44,-1
EndSplineSet
Validated: 19457
EndChar

StartChar: Agrave
Encoding: 192 192 236
Width: 1671
Flags: W
HStem: 0 10<998 1006.15> 695 120<673 1136> 1500 10<466 477.169>
VStem: 1261 340<236.46 700.192>
DStem2: 5 0 322 0 0.395387 0.918515<125.338 881.926 1012.71 1497.34>
CounterMasks: 1 e0
LayerCount: 2
Fore
SplineSet
624 1964 m 1,0,1
 806 1822 806 1822 823 1560 c 1,2,-1
 813 1560 l 1,3,4
 643 1742 643 1742 436 1777 c 1,5,-1
 624 1964 l 1,0,1
998 0 m 1,6,-1
 998 10 l 1,7,8
 1261 133 1261 133 1261 440 c 0,9,10
 1261 895 1261 895 979 1386 c 1,11,-1
 985 1394 l 1,12,13
 1601 938 1601 938 1601 440 c 0,14,15
 1601 0 1601 0 998 0 c 1,6,-1
5 0 m 1,16,-1
 574 1322 l 2,17,18
 588 1355 588 1355 588 1380 c 0,19,20
 588 1458 588 1458 466 1500 c 1,21,-1
 466 1510 l 1,22,-1
 972 1510 l 1,23,-1
 673 815 l 1,24,-1
 1136 815 l 1,25,-1
 1136 695 l 1,26,-1
 621 695 l 1,27,-1
 322 0 l 1,28,-1
 5 0 l 1,16,-1
EndSplineSet
Validated: 19457
EndChar

StartChar: Aacute
Encoding: 193 193 237
Width: 1671
Flags: W
HStem: 0 10<998 1006.15> 695 120<673 1136> 1500 10<466 477.169>
VStem: 1261 340<236.46 700.192>
DStem2: 5 0 322 0 0.395387 0.918515<125.338 881.926 1012.71 1497.34>
CounterMasks: 1 e0
LayerCount: 2
Fore
SplineSet
989 1964 m 1,0,-1
 1177 1777 l 1,1,2
 970 1742 970 1742 800 1560 c 1,3,-1
 790 1560 l 1,4,5
 807 1822 807 1822 989 1964 c 1,0,-1
998 0 m 1,6,-1
 998 10 l 1,7,8
 1261 133 1261 133 1261 440 c 0,9,10
 1261 895 1261 895 979 1386 c 1,11,-1
 985 1394 l 1,12,13
 1601 938 1601 938 1601 440 c 0,14,15
 1601 0 1601 0 998 0 c 1,6,-1
5 0 m 1,16,-1
 574 1322 l 2,17,18
 588 1355 588 1355 588 1380 c 0,19,20
 588 1458 588 1458 466 1500 c 1,21,-1
 466 1510 l 1,22,-1
 972 1510 l 1,23,-1
 673 815 l 1,24,-1
 1136 815 l 1,25,-1
 1136 695 l 1,26,-1
 621 695 l 1,27,-1
 322 0 l 1,28,-1
 5 0 l 1,16,-1
EndSplineSet
Validated: 19457
EndChar

StartChar: Acircumflex
Encoding: 194 194 238
Width: 1671
Flags: W
HStem: 0 10<998 1006.15> 695 120<673 1136> 1500 10<466 477.169> 1916 48<782 840>
VStem: 1261 340<236.46 700.192>
DStem2: 5 0 322 0 0.395387 0.918515<125.338 881.926 1012.71 1497.34>
LayerCount: 2
Fore
SplineSet
806 1964 m 1,0,-1
 816 1964 l 1,1,2
 931 1772 931 1772 1132 1700 c 1,3,-1
 991 1560 l 1,4,5
 829 1690 829 1690 811 1916 c 1,6,7
 793 1690 793 1690 631 1560 c 1,8,-1
 490 1700 l 1,9,10
 691 1772 691 1772 806 1964 c 1,0,-1
998 0 m 1,11,-1
 998 10 l 1,12,13
 1261 133 1261 133 1261 440 c 0,14,15
 1261 895 1261 895 979 1386 c 1,16,-1
 985 1394 l 1,17,18
 1601 938 1601 938 1601 440 c 0,19,20
 1601 0 1601 0 998 0 c 1,11,-1
5 0 m 1,21,-1
 574 1322 l 2,22,23
 588 1355 588 1355 588 1380 c 0,24,25
 588 1458 588 1458 466 1500 c 1,26,-1
 466 1510 l 1,27,-1
 972 1510 l 1,28,-1
 673 815 l 1,29,-1
 1136 815 l 1,30,-1
 1136 695 l 1,31,-1
 621 695 l 1,32,-1
 322 0 l 1,33,-1
 5 0 l 1,21,-1
EndSplineSet
Validated: 19457
EndChar

StartChar: Atilde
Encoding: 195 195 239
Width: 1671
Flags: W
HStem: 0 10<998 1006.15> 695 120<673 1136> 1500 10<466 477.169> 1610 134<865.704 1034.65> 1743 134<573.352 742.296>
VStem: 459 80<1613 1702.72> 1069 80<1784.28 1874> 1261 340<236.46 700.192>
DStem2: 5 0 322 0 0.395387 0.918515<125.338 881.926 1012.71 1497.34> 804 1834 722 1714 0.802342 -0.596864<-70.7456 178.778>
LayerCount: 2
Fore
SplineSet
1069 1874 m 1,0,-1
 1149 1874 l 1,1,2
 1111 1610 1111 1610 921 1610 c 0,3,4
 862 1610 862 1610 804 1653 c 2,5,-1
 722 1714 l 2,6,7
 683 1743 683 1743 647 1743 c 0,8,9
 568 1743 568 1743 539 1613 c 1,10,-1
 459 1613 l 1,11,12
 497 1877 497 1877 687 1877 c 0,13,14
 746 1877 746 1877 804 1834 c 2,15,-1
 886 1773 l 2,16,17
 925 1744 925 1744 961 1744 c 0,18,19
 1040 1744 1040 1744 1069 1874 c 1,0,-1
998 0 m 1,20,-1
 998 10 l 1,21,22
 1261 133 1261 133 1261 440 c 0,23,24
 1261 895 1261 895 979 1386 c 1,25,-1
 985 1394 l 1,26,27
 1601 938 1601 938 1601 440 c 0,28,29
 1601 0 1601 0 998 0 c 1,20,-1
5 0 m 1,30,-1
 574 1322 l 2,31,32
 588 1355 588 1355 588 1380 c 0,33,34
 588 1458 588 1458 466 1500 c 1,35,-1
 466 1510 l 1,36,-1
 972 1510 l 1,37,-1
 673 815 l 1,38,-1
 1136 815 l 1,39,-1
 1136 695 l 1,40,-1
 621 695 l 1,41,-1
 322 0 l 1,42,-1
 5 0 l 1,30,-1
EndSplineSet
Validated: 19457
EndChar

StartChar: Adieresis
Encoding: 196 196 240
Width: 1671
Flags: W
HStem: 0 10<998 1006.15> 695 120<673 1136> 1500 10<466 477.169> 1615 264<545.191 726.809 886.191 1067.81>
VStem: 506 260<1654.71 1839.29> 847 260<1654.71 1839.29> 1261 340<236.46 700.192>
DStem2: 5 0 322 0 0.395387 0.918515<125.338 881.926 1012.71 1497.34>
LayerCount: 2
Fore
SplineSet
977 1879 m 128,-1,1
 1031 1879 1031 1879 1069 1840.5 c 128,-1,2
 1107 1802 1107 1802 1107 1747 c 128,-1,3
 1107 1692 1107 1692 1069 1653.5 c 128,-1,4
 1031 1615 1031 1615 977 1615 c 128,-1,5
 923 1615 923 1615 885 1653.5 c 128,-1,6
 847 1692 847 1692 847 1747 c 128,-1,7
 847 1802 847 1802 885 1840.5 c 128,-1,0
 923 1879 923 1879 977 1879 c 128,-1,1
636 1879 m 128,-1,9
 690 1879 690 1879 728 1840.5 c 128,-1,10
 766 1802 766 1802 766 1747 c 128,-1,11
 766 1692 766 1692 728 1653.5 c 128,-1,12
 690 1615 690 1615 636 1615 c 128,-1,13
 582 1615 582 1615 544 1653.5 c 128,-1,14
 506 1692 506 1692 506 1747 c 128,-1,15
 506 1802 506 1802 544 1840.5 c 128,-1,8
 582 1879 582 1879 636 1879 c 128,-1,9
998 0 m 1,16,-1
 998 10 l 1,17,18
 1261 133 1261 133 1261 440 c 0,19,20
 1261 895 1261 895 979 1386 c 1,21,-1
 985 1394 l 1,22,23
 1601 938 1601 938 1601 440 c 0,24,25
 1601 0 1601 0 998 0 c 1,16,-1
5 0 m 1,26,-1
 574 1322 l 2,27,28
 588 1355 588 1355 588 1380 c 0,29,30
 588 1458 588 1458 466 1500 c 1,31,-1
 466 1510 l 1,32,-1
 972 1510 l 1,33,-1
 673 815 l 1,34,-1
 1136 815 l 1,35,-1
 1136 695 l 1,36,-1
 621 695 l 1,37,-1
 322 0 l 1,38,-1
 5 0 l 1,26,-1
EndSplineSet
Validated: 19457
EndChar

StartChar: Aring
Encoding: 197 197 241
Width: 1671
Flags: W
HStem: 0 10<998 1006.15> 695 120<673 1136> 1500 10<466 477.169> 1580 90<700.695 833.305> 1860 90<700.695 833.305>
VStem: 584 97<1690.02 1839.98> 853 97<1690.02 1839.98> 1261 340<236.46 700.192>
DStem2: 5 0 322 0 0.395387 0.918515<125.338 881.926 1012.71 1497.34>
LayerCount: 2
Fore
SplineSet
767 1860 m 128,-1,1
 731 1860 731 1860 706 1832.5 c 128,-1,2
 681 1805 681 1805 681 1765 c 128,-1,3
 681 1725 681 1725 706 1697.5 c 128,-1,4
 731 1670 731 1670 767 1670 c 128,-1,5
 803 1670 803 1670 828 1697.5 c 128,-1,6
 853 1725 853 1725 853 1765 c 128,-1,7
 853 1805 853 1805 828 1832.5 c 128,-1,0
 803 1860 803 1860 767 1860 c 128,-1,1
767 1950 m 128,-1,9
 843 1950 843 1950 896.5 1896 c 128,-1,10
 950 1842 950 1842 950 1765 c 128,-1,11
 950 1688 950 1688 896.5 1634 c 128,-1,12
 843 1580 843 1580 767 1580 c 128,-1,13
 691 1580 691 1580 637.5 1634 c 128,-1,14
 584 1688 584 1688 584 1765 c 128,-1,15
 584 1842 584 1842 637.5 1896 c 128,-1,8
 691 1950 691 1950 767 1950 c 128,-1,9
998 0 m 1,16,-1
 998 10 l 1,17,18
 1261 133 1261 133 1261 440 c 0,19,20
 1261 895 1261 895 979 1386 c 1,21,-1
 985 1394 l 1,22,23
 1601 938 1601 938 1601 440 c 0,24,25
 1601 0 1601 0 998 0 c 1,16,-1
5 0 m 1,26,-1
 574 1322 l 2,27,28
 588 1355 588 1355 588 1380 c 0,29,30
 588 1458 588 1458 466 1500 c 1,31,-1
 466 1510 l 1,32,-1
 972 1510 l 1,33,-1
 673 815 l 1,34,-1
 1136 815 l 1,35,-1
 1136 695 l 1,36,-1
 621 695 l 1,37,-1
 322 0 l 1,38,-1
 5 0 l 1,26,-1
EndSplineSet
Validated: 19457
EndChar

StartChar: Amacron
Encoding: 256 256 242
Width: 1671
Flags: W
HStem: 0 10<998 1006.15> 695 120<673 1136> 1500 10<466 477.169> 1680 141<469 1087>
VStem: 1261 340<236.46 700.192>
DStem2: 5 0 322 0 0.395387 0.918515<125.338 881.926 1012.71 1497.34>
LayerCount: 2
Fore
SplineSet
469 1821 m 1,0,-1
 1087 1821 l 1,1,-1
 1087 1680 l 1,2,-1
 469 1680 l 1,3,-1
 469 1821 l 1,0,-1
998 0 m 1,4,-1
 998 10 l 1,5,6
 1261 133 1261 133 1261 440 c 0,7,8
 1261 895 1261 895 979 1386 c 1,9,-1
 985 1394 l 1,10,11
 1601 938 1601 938 1601 440 c 0,12,13
 1601 0 1601 0 998 0 c 1,4,-1
5 0 m 1,14,-1
 574 1322 l 2,15,16
 588 1355 588 1355 588 1380 c 0,17,18
 588 1458 588 1458 466 1500 c 1,19,-1
 466 1510 l 1,20,-1
 972 1510 l 1,21,-1
 673 815 l 1,22,-1
 1136 815 l 1,23,-1
 1136 695 l 1,24,-1
 621 695 l 1,25,-1
 322 0 l 1,26,-1
 5 0 l 1,14,-1
EndSplineSet
Validated: 19457
EndChar

